G04 #@! TF.GenerationSoftware,KiCad,Pcbnew,(5.1.4)-1*
G04 #@! TF.CreationDate,2020-04-16T23:28:20+09:00*
G04 #@! TF.ProjectId,solenoid-driver,736f6c65-6e6f-4696-942d-647269766572,rev?*
G04 #@! TF.SameCoordinates,Original*
G04 #@! TF.FileFunction,Copper,L1,Top*
G04 #@! TF.FilePolarity,Positive*
%FSLAX46Y46*%
G04 Gerber Fmt 4.6, Leading zero omitted, Abs format (unit mm)*
G04 Created by KiCad (PCBNEW (5.1.4)-1) date 2020-04-16 23:28:20*
%MOMM*%
%LPD*%
G04 APERTURE LIST*
%ADD10R,1.200000X0.900000*%
%ADD11C,0.100000*%
%ADD12C,0.975000*%
%ADD13R,0.800000X0.900000*%
%ADD14C,3.500000*%
%ADD15O,1.700000X1.700000*%
%ADD16R,1.700000X1.700000*%
%ADD17R,1.060000X0.650000*%
%ADD18R,5.400000X2.900000*%
%ADD19R,1.550000X0.600000*%
%ADD20R,1.800000X1.200000*%
%ADD21R,1.800000X2.500000*%
%ADD22C,1.600000*%
%ADD23C,1.250000*%
%ADD24C,0.889000*%
%ADD25C,0.381000*%
%ADD26C,0.254000*%
G04 APERTURE END LIST*
D10*
X186250000Y-123400000D03*
X186250000Y-120100000D03*
D11*
G36*
X178230142Y-116701174D02*
G01*
X178253803Y-116704684D01*
X178277007Y-116710496D01*
X178299529Y-116718554D01*
X178321153Y-116728782D01*
X178341670Y-116741079D01*
X178360883Y-116755329D01*
X178378607Y-116771393D01*
X178394671Y-116789117D01*
X178408921Y-116808330D01*
X178421218Y-116828847D01*
X178431446Y-116850471D01*
X178439504Y-116872993D01*
X178445316Y-116896197D01*
X178448826Y-116919858D01*
X178450000Y-116943750D01*
X178450000Y-117431250D01*
X178448826Y-117455142D01*
X178445316Y-117478803D01*
X178439504Y-117502007D01*
X178431446Y-117524529D01*
X178421218Y-117546153D01*
X178408921Y-117566670D01*
X178394671Y-117585883D01*
X178378607Y-117603607D01*
X178360883Y-117619671D01*
X178341670Y-117633921D01*
X178321153Y-117646218D01*
X178299529Y-117656446D01*
X178277007Y-117664504D01*
X178253803Y-117670316D01*
X178230142Y-117673826D01*
X178206250Y-117675000D01*
X177293750Y-117675000D01*
X177269858Y-117673826D01*
X177246197Y-117670316D01*
X177222993Y-117664504D01*
X177200471Y-117656446D01*
X177178847Y-117646218D01*
X177158330Y-117633921D01*
X177139117Y-117619671D01*
X177121393Y-117603607D01*
X177105329Y-117585883D01*
X177091079Y-117566670D01*
X177078782Y-117546153D01*
X177068554Y-117524529D01*
X177060496Y-117502007D01*
X177054684Y-117478803D01*
X177051174Y-117455142D01*
X177050000Y-117431250D01*
X177050000Y-116943750D01*
X177051174Y-116919858D01*
X177054684Y-116896197D01*
X177060496Y-116872993D01*
X177068554Y-116850471D01*
X177078782Y-116828847D01*
X177091079Y-116808330D01*
X177105329Y-116789117D01*
X177121393Y-116771393D01*
X177139117Y-116755329D01*
X177158330Y-116741079D01*
X177178847Y-116728782D01*
X177200471Y-116718554D01*
X177222993Y-116710496D01*
X177246197Y-116704684D01*
X177269858Y-116701174D01*
X177293750Y-116700000D01*
X178206250Y-116700000D01*
X178230142Y-116701174D01*
X178230142Y-116701174D01*
G37*
D12*
X177750000Y-117187500D03*
D11*
G36*
X178230142Y-114826174D02*
G01*
X178253803Y-114829684D01*
X178277007Y-114835496D01*
X178299529Y-114843554D01*
X178321153Y-114853782D01*
X178341670Y-114866079D01*
X178360883Y-114880329D01*
X178378607Y-114896393D01*
X178394671Y-114914117D01*
X178408921Y-114933330D01*
X178421218Y-114953847D01*
X178431446Y-114975471D01*
X178439504Y-114997993D01*
X178445316Y-115021197D01*
X178448826Y-115044858D01*
X178450000Y-115068750D01*
X178450000Y-115556250D01*
X178448826Y-115580142D01*
X178445316Y-115603803D01*
X178439504Y-115627007D01*
X178431446Y-115649529D01*
X178421218Y-115671153D01*
X178408921Y-115691670D01*
X178394671Y-115710883D01*
X178378607Y-115728607D01*
X178360883Y-115744671D01*
X178341670Y-115758921D01*
X178321153Y-115771218D01*
X178299529Y-115781446D01*
X178277007Y-115789504D01*
X178253803Y-115795316D01*
X178230142Y-115798826D01*
X178206250Y-115800000D01*
X177293750Y-115800000D01*
X177269858Y-115798826D01*
X177246197Y-115795316D01*
X177222993Y-115789504D01*
X177200471Y-115781446D01*
X177178847Y-115771218D01*
X177158330Y-115758921D01*
X177139117Y-115744671D01*
X177121393Y-115728607D01*
X177105329Y-115710883D01*
X177091079Y-115691670D01*
X177078782Y-115671153D01*
X177068554Y-115649529D01*
X177060496Y-115627007D01*
X177054684Y-115603803D01*
X177051174Y-115580142D01*
X177050000Y-115556250D01*
X177050000Y-115068750D01*
X177051174Y-115044858D01*
X177054684Y-115021197D01*
X177060496Y-114997993D01*
X177068554Y-114975471D01*
X177078782Y-114953847D01*
X177091079Y-114933330D01*
X177105329Y-114914117D01*
X177121393Y-114896393D01*
X177139117Y-114880329D01*
X177158330Y-114866079D01*
X177178847Y-114853782D01*
X177200471Y-114843554D01*
X177222993Y-114835496D01*
X177246197Y-114829684D01*
X177269858Y-114826174D01*
X177293750Y-114825000D01*
X178206250Y-114825000D01*
X178230142Y-114826174D01*
X178230142Y-114826174D01*
G37*
D12*
X177750000Y-115312500D03*
D13*
X179000000Y-110750000D03*
X179950000Y-112750000D03*
X178050000Y-112750000D03*
D11*
G36*
X176230142Y-112201174D02*
G01*
X176253803Y-112204684D01*
X176277007Y-112210496D01*
X176299529Y-112218554D01*
X176321153Y-112228782D01*
X176341670Y-112241079D01*
X176360883Y-112255329D01*
X176378607Y-112271393D01*
X176394671Y-112289117D01*
X176408921Y-112308330D01*
X176421218Y-112328847D01*
X176431446Y-112350471D01*
X176439504Y-112372993D01*
X176445316Y-112396197D01*
X176448826Y-112419858D01*
X176450000Y-112443750D01*
X176450000Y-112931250D01*
X176448826Y-112955142D01*
X176445316Y-112978803D01*
X176439504Y-113002007D01*
X176431446Y-113024529D01*
X176421218Y-113046153D01*
X176408921Y-113066670D01*
X176394671Y-113085883D01*
X176378607Y-113103607D01*
X176360883Y-113119671D01*
X176341670Y-113133921D01*
X176321153Y-113146218D01*
X176299529Y-113156446D01*
X176277007Y-113164504D01*
X176253803Y-113170316D01*
X176230142Y-113173826D01*
X176206250Y-113175000D01*
X175293750Y-113175000D01*
X175269858Y-113173826D01*
X175246197Y-113170316D01*
X175222993Y-113164504D01*
X175200471Y-113156446D01*
X175178847Y-113146218D01*
X175158330Y-113133921D01*
X175139117Y-113119671D01*
X175121393Y-113103607D01*
X175105329Y-113085883D01*
X175091079Y-113066670D01*
X175078782Y-113046153D01*
X175068554Y-113024529D01*
X175060496Y-113002007D01*
X175054684Y-112978803D01*
X175051174Y-112955142D01*
X175050000Y-112931250D01*
X175050000Y-112443750D01*
X175051174Y-112419858D01*
X175054684Y-112396197D01*
X175060496Y-112372993D01*
X175068554Y-112350471D01*
X175078782Y-112328847D01*
X175091079Y-112308330D01*
X175105329Y-112289117D01*
X175121393Y-112271393D01*
X175139117Y-112255329D01*
X175158330Y-112241079D01*
X175178847Y-112228782D01*
X175200471Y-112218554D01*
X175222993Y-112210496D01*
X175246197Y-112204684D01*
X175269858Y-112201174D01*
X175293750Y-112200000D01*
X176206250Y-112200000D01*
X176230142Y-112201174D01*
X176230142Y-112201174D01*
G37*
D12*
X175750000Y-112687500D03*
D11*
G36*
X176230142Y-110326174D02*
G01*
X176253803Y-110329684D01*
X176277007Y-110335496D01*
X176299529Y-110343554D01*
X176321153Y-110353782D01*
X176341670Y-110366079D01*
X176360883Y-110380329D01*
X176378607Y-110396393D01*
X176394671Y-110414117D01*
X176408921Y-110433330D01*
X176421218Y-110453847D01*
X176431446Y-110475471D01*
X176439504Y-110497993D01*
X176445316Y-110521197D01*
X176448826Y-110544858D01*
X176450000Y-110568750D01*
X176450000Y-111056250D01*
X176448826Y-111080142D01*
X176445316Y-111103803D01*
X176439504Y-111127007D01*
X176431446Y-111149529D01*
X176421218Y-111171153D01*
X176408921Y-111191670D01*
X176394671Y-111210883D01*
X176378607Y-111228607D01*
X176360883Y-111244671D01*
X176341670Y-111258921D01*
X176321153Y-111271218D01*
X176299529Y-111281446D01*
X176277007Y-111289504D01*
X176253803Y-111295316D01*
X176230142Y-111298826D01*
X176206250Y-111300000D01*
X175293750Y-111300000D01*
X175269858Y-111298826D01*
X175246197Y-111295316D01*
X175222993Y-111289504D01*
X175200471Y-111281446D01*
X175178847Y-111271218D01*
X175158330Y-111258921D01*
X175139117Y-111244671D01*
X175121393Y-111228607D01*
X175105329Y-111210883D01*
X175091079Y-111191670D01*
X175078782Y-111171153D01*
X175068554Y-111149529D01*
X175060496Y-111127007D01*
X175054684Y-111103803D01*
X175051174Y-111080142D01*
X175050000Y-111056250D01*
X175050000Y-110568750D01*
X175051174Y-110544858D01*
X175054684Y-110521197D01*
X175060496Y-110497993D01*
X175068554Y-110475471D01*
X175078782Y-110453847D01*
X175091079Y-110433330D01*
X175105329Y-110414117D01*
X175121393Y-110396393D01*
X175139117Y-110380329D01*
X175158330Y-110366079D01*
X175178847Y-110353782D01*
X175200471Y-110343554D01*
X175222993Y-110335496D01*
X175246197Y-110329684D01*
X175269858Y-110326174D01*
X175293750Y-110325000D01*
X176206250Y-110325000D01*
X176230142Y-110326174D01*
X176230142Y-110326174D01*
G37*
D12*
X175750000Y-110812500D03*
D11*
G36*
X182730142Y-116701174D02*
G01*
X182753803Y-116704684D01*
X182777007Y-116710496D01*
X182799529Y-116718554D01*
X182821153Y-116728782D01*
X182841670Y-116741079D01*
X182860883Y-116755329D01*
X182878607Y-116771393D01*
X182894671Y-116789117D01*
X182908921Y-116808330D01*
X182921218Y-116828847D01*
X182931446Y-116850471D01*
X182939504Y-116872993D01*
X182945316Y-116896197D01*
X182948826Y-116919858D01*
X182950000Y-116943750D01*
X182950000Y-117431250D01*
X182948826Y-117455142D01*
X182945316Y-117478803D01*
X182939504Y-117502007D01*
X182931446Y-117524529D01*
X182921218Y-117546153D01*
X182908921Y-117566670D01*
X182894671Y-117585883D01*
X182878607Y-117603607D01*
X182860883Y-117619671D01*
X182841670Y-117633921D01*
X182821153Y-117646218D01*
X182799529Y-117656446D01*
X182777007Y-117664504D01*
X182753803Y-117670316D01*
X182730142Y-117673826D01*
X182706250Y-117675000D01*
X181793750Y-117675000D01*
X181769858Y-117673826D01*
X181746197Y-117670316D01*
X181722993Y-117664504D01*
X181700471Y-117656446D01*
X181678847Y-117646218D01*
X181658330Y-117633921D01*
X181639117Y-117619671D01*
X181621393Y-117603607D01*
X181605329Y-117585883D01*
X181591079Y-117566670D01*
X181578782Y-117546153D01*
X181568554Y-117524529D01*
X181560496Y-117502007D01*
X181554684Y-117478803D01*
X181551174Y-117455142D01*
X181550000Y-117431250D01*
X181550000Y-116943750D01*
X181551174Y-116919858D01*
X181554684Y-116896197D01*
X181560496Y-116872993D01*
X181568554Y-116850471D01*
X181578782Y-116828847D01*
X181591079Y-116808330D01*
X181605329Y-116789117D01*
X181621393Y-116771393D01*
X181639117Y-116755329D01*
X181658330Y-116741079D01*
X181678847Y-116728782D01*
X181700471Y-116718554D01*
X181722993Y-116710496D01*
X181746197Y-116704684D01*
X181769858Y-116701174D01*
X181793750Y-116700000D01*
X182706250Y-116700000D01*
X182730142Y-116701174D01*
X182730142Y-116701174D01*
G37*
D12*
X182250000Y-117187500D03*
D11*
G36*
X182730142Y-114826174D02*
G01*
X182753803Y-114829684D01*
X182777007Y-114835496D01*
X182799529Y-114843554D01*
X182821153Y-114853782D01*
X182841670Y-114866079D01*
X182860883Y-114880329D01*
X182878607Y-114896393D01*
X182894671Y-114914117D01*
X182908921Y-114933330D01*
X182921218Y-114953847D01*
X182931446Y-114975471D01*
X182939504Y-114997993D01*
X182945316Y-115021197D01*
X182948826Y-115044858D01*
X182950000Y-115068750D01*
X182950000Y-115556250D01*
X182948826Y-115580142D01*
X182945316Y-115603803D01*
X182939504Y-115627007D01*
X182931446Y-115649529D01*
X182921218Y-115671153D01*
X182908921Y-115691670D01*
X182894671Y-115710883D01*
X182878607Y-115728607D01*
X182860883Y-115744671D01*
X182841670Y-115758921D01*
X182821153Y-115771218D01*
X182799529Y-115781446D01*
X182777007Y-115789504D01*
X182753803Y-115795316D01*
X182730142Y-115798826D01*
X182706250Y-115800000D01*
X181793750Y-115800000D01*
X181769858Y-115798826D01*
X181746197Y-115795316D01*
X181722993Y-115789504D01*
X181700471Y-115781446D01*
X181678847Y-115771218D01*
X181658330Y-115758921D01*
X181639117Y-115744671D01*
X181621393Y-115728607D01*
X181605329Y-115710883D01*
X181591079Y-115691670D01*
X181578782Y-115671153D01*
X181568554Y-115649529D01*
X181560496Y-115627007D01*
X181554684Y-115603803D01*
X181551174Y-115580142D01*
X181550000Y-115556250D01*
X181550000Y-115068750D01*
X181551174Y-115044858D01*
X181554684Y-115021197D01*
X181560496Y-114997993D01*
X181568554Y-114975471D01*
X181578782Y-114953847D01*
X181591079Y-114933330D01*
X181605329Y-114914117D01*
X181621393Y-114896393D01*
X181639117Y-114880329D01*
X181658330Y-114866079D01*
X181678847Y-114853782D01*
X181700471Y-114843554D01*
X181722993Y-114835496D01*
X181746197Y-114829684D01*
X181769858Y-114826174D01*
X181793750Y-114825000D01*
X182706250Y-114825000D01*
X182730142Y-114826174D01*
X182730142Y-114826174D01*
G37*
D12*
X182250000Y-115312500D03*
D11*
G36*
X180480142Y-116701174D02*
G01*
X180503803Y-116704684D01*
X180527007Y-116710496D01*
X180549529Y-116718554D01*
X180571153Y-116728782D01*
X180591670Y-116741079D01*
X180610883Y-116755329D01*
X180628607Y-116771393D01*
X180644671Y-116789117D01*
X180658921Y-116808330D01*
X180671218Y-116828847D01*
X180681446Y-116850471D01*
X180689504Y-116872993D01*
X180695316Y-116896197D01*
X180698826Y-116919858D01*
X180700000Y-116943750D01*
X180700000Y-117431250D01*
X180698826Y-117455142D01*
X180695316Y-117478803D01*
X180689504Y-117502007D01*
X180681446Y-117524529D01*
X180671218Y-117546153D01*
X180658921Y-117566670D01*
X180644671Y-117585883D01*
X180628607Y-117603607D01*
X180610883Y-117619671D01*
X180591670Y-117633921D01*
X180571153Y-117646218D01*
X180549529Y-117656446D01*
X180527007Y-117664504D01*
X180503803Y-117670316D01*
X180480142Y-117673826D01*
X180456250Y-117675000D01*
X179543750Y-117675000D01*
X179519858Y-117673826D01*
X179496197Y-117670316D01*
X179472993Y-117664504D01*
X179450471Y-117656446D01*
X179428847Y-117646218D01*
X179408330Y-117633921D01*
X179389117Y-117619671D01*
X179371393Y-117603607D01*
X179355329Y-117585883D01*
X179341079Y-117566670D01*
X179328782Y-117546153D01*
X179318554Y-117524529D01*
X179310496Y-117502007D01*
X179304684Y-117478803D01*
X179301174Y-117455142D01*
X179300000Y-117431250D01*
X179300000Y-116943750D01*
X179301174Y-116919858D01*
X179304684Y-116896197D01*
X179310496Y-116872993D01*
X179318554Y-116850471D01*
X179328782Y-116828847D01*
X179341079Y-116808330D01*
X179355329Y-116789117D01*
X179371393Y-116771393D01*
X179389117Y-116755329D01*
X179408330Y-116741079D01*
X179428847Y-116728782D01*
X179450471Y-116718554D01*
X179472993Y-116710496D01*
X179496197Y-116704684D01*
X179519858Y-116701174D01*
X179543750Y-116700000D01*
X180456250Y-116700000D01*
X180480142Y-116701174D01*
X180480142Y-116701174D01*
G37*
D12*
X180000000Y-117187500D03*
D11*
G36*
X180480142Y-114826174D02*
G01*
X180503803Y-114829684D01*
X180527007Y-114835496D01*
X180549529Y-114843554D01*
X180571153Y-114853782D01*
X180591670Y-114866079D01*
X180610883Y-114880329D01*
X180628607Y-114896393D01*
X180644671Y-114914117D01*
X180658921Y-114933330D01*
X180671218Y-114953847D01*
X180681446Y-114975471D01*
X180689504Y-114997993D01*
X180695316Y-115021197D01*
X180698826Y-115044858D01*
X180700000Y-115068750D01*
X180700000Y-115556250D01*
X180698826Y-115580142D01*
X180695316Y-115603803D01*
X180689504Y-115627007D01*
X180681446Y-115649529D01*
X180671218Y-115671153D01*
X180658921Y-115691670D01*
X180644671Y-115710883D01*
X180628607Y-115728607D01*
X180610883Y-115744671D01*
X180591670Y-115758921D01*
X180571153Y-115771218D01*
X180549529Y-115781446D01*
X180527007Y-115789504D01*
X180503803Y-115795316D01*
X180480142Y-115798826D01*
X180456250Y-115800000D01*
X179543750Y-115800000D01*
X179519858Y-115798826D01*
X179496197Y-115795316D01*
X179472993Y-115789504D01*
X179450471Y-115781446D01*
X179428847Y-115771218D01*
X179408330Y-115758921D01*
X179389117Y-115744671D01*
X179371393Y-115728607D01*
X179355329Y-115710883D01*
X179341079Y-115691670D01*
X179328782Y-115671153D01*
X179318554Y-115649529D01*
X179310496Y-115627007D01*
X179304684Y-115603803D01*
X179301174Y-115580142D01*
X179300000Y-115556250D01*
X179300000Y-115068750D01*
X179301174Y-115044858D01*
X179304684Y-115021197D01*
X179310496Y-114997993D01*
X179318554Y-114975471D01*
X179328782Y-114953847D01*
X179341079Y-114933330D01*
X179355329Y-114914117D01*
X179371393Y-114896393D01*
X179389117Y-114880329D01*
X179408330Y-114866079D01*
X179428847Y-114853782D01*
X179450471Y-114843554D01*
X179472993Y-114835496D01*
X179496197Y-114829684D01*
X179519858Y-114826174D01*
X179543750Y-114825000D01*
X180456250Y-114825000D01*
X180480142Y-114826174D01*
X180480142Y-114826174D01*
G37*
D12*
X180000000Y-115312500D03*
D14*
X210000000Y-124000000D03*
X210000000Y-111000000D03*
X172000000Y-124000000D03*
X172000000Y-111000000D03*
D15*
X210000000Y-118540000D03*
D16*
X210000000Y-116000000D03*
D17*
X193100000Y-115050000D03*
X193100000Y-116950000D03*
X190900000Y-116950000D03*
X190900000Y-116000000D03*
X190900000Y-115050000D03*
X184400000Y-113050000D03*
X184400000Y-114000000D03*
X184400000Y-114950000D03*
X186600000Y-114950000D03*
X186600000Y-113050000D03*
X186600000Y-114000000D03*
D11*
G36*
X191580142Y-112051174D02*
G01*
X191603803Y-112054684D01*
X191627007Y-112060496D01*
X191649529Y-112068554D01*
X191671153Y-112078782D01*
X191691670Y-112091079D01*
X191710883Y-112105329D01*
X191728607Y-112121393D01*
X191744671Y-112139117D01*
X191758921Y-112158330D01*
X191771218Y-112178847D01*
X191781446Y-112200471D01*
X191789504Y-112222993D01*
X191795316Y-112246197D01*
X191798826Y-112269858D01*
X191800000Y-112293750D01*
X191800000Y-113206250D01*
X191798826Y-113230142D01*
X191795316Y-113253803D01*
X191789504Y-113277007D01*
X191781446Y-113299529D01*
X191771218Y-113321153D01*
X191758921Y-113341670D01*
X191744671Y-113360883D01*
X191728607Y-113378607D01*
X191710883Y-113394671D01*
X191691670Y-113408921D01*
X191671153Y-113421218D01*
X191649529Y-113431446D01*
X191627007Y-113439504D01*
X191603803Y-113445316D01*
X191580142Y-113448826D01*
X191556250Y-113450000D01*
X191068750Y-113450000D01*
X191044858Y-113448826D01*
X191021197Y-113445316D01*
X190997993Y-113439504D01*
X190975471Y-113431446D01*
X190953847Y-113421218D01*
X190933330Y-113408921D01*
X190914117Y-113394671D01*
X190896393Y-113378607D01*
X190880329Y-113360883D01*
X190866079Y-113341670D01*
X190853782Y-113321153D01*
X190843554Y-113299529D01*
X190835496Y-113277007D01*
X190829684Y-113253803D01*
X190826174Y-113230142D01*
X190825000Y-113206250D01*
X190825000Y-112293750D01*
X190826174Y-112269858D01*
X190829684Y-112246197D01*
X190835496Y-112222993D01*
X190843554Y-112200471D01*
X190853782Y-112178847D01*
X190866079Y-112158330D01*
X190880329Y-112139117D01*
X190896393Y-112121393D01*
X190914117Y-112105329D01*
X190933330Y-112091079D01*
X190953847Y-112078782D01*
X190975471Y-112068554D01*
X190997993Y-112060496D01*
X191021197Y-112054684D01*
X191044858Y-112051174D01*
X191068750Y-112050000D01*
X191556250Y-112050000D01*
X191580142Y-112051174D01*
X191580142Y-112051174D01*
G37*
D12*
X191312500Y-112750000D03*
D11*
G36*
X193455142Y-112051174D02*
G01*
X193478803Y-112054684D01*
X193502007Y-112060496D01*
X193524529Y-112068554D01*
X193546153Y-112078782D01*
X193566670Y-112091079D01*
X193585883Y-112105329D01*
X193603607Y-112121393D01*
X193619671Y-112139117D01*
X193633921Y-112158330D01*
X193646218Y-112178847D01*
X193656446Y-112200471D01*
X193664504Y-112222993D01*
X193670316Y-112246197D01*
X193673826Y-112269858D01*
X193675000Y-112293750D01*
X193675000Y-113206250D01*
X193673826Y-113230142D01*
X193670316Y-113253803D01*
X193664504Y-113277007D01*
X193656446Y-113299529D01*
X193646218Y-113321153D01*
X193633921Y-113341670D01*
X193619671Y-113360883D01*
X193603607Y-113378607D01*
X193585883Y-113394671D01*
X193566670Y-113408921D01*
X193546153Y-113421218D01*
X193524529Y-113431446D01*
X193502007Y-113439504D01*
X193478803Y-113445316D01*
X193455142Y-113448826D01*
X193431250Y-113450000D01*
X192943750Y-113450000D01*
X192919858Y-113448826D01*
X192896197Y-113445316D01*
X192872993Y-113439504D01*
X192850471Y-113431446D01*
X192828847Y-113421218D01*
X192808330Y-113408921D01*
X192789117Y-113394671D01*
X192771393Y-113378607D01*
X192755329Y-113360883D01*
X192741079Y-113341670D01*
X192728782Y-113321153D01*
X192718554Y-113299529D01*
X192710496Y-113277007D01*
X192704684Y-113253803D01*
X192701174Y-113230142D01*
X192700000Y-113206250D01*
X192700000Y-112293750D01*
X192701174Y-112269858D01*
X192704684Y-112246197D01*
X192710496Y-112222993D01*
X192718554Y-112200471D01*
X192728782Y-112178847D01*
X192741079Y-112158330D01*
X192755329Y-112139117D01*
X192771393Y-112121393D01*
X192789117Y-112105329D01*
X192808330Y-112091079D01*
X192828847Y-112078782D01*
X192850471Y-112068554D01*
X192872993Y-112060496D01*
X192896197Y-112054684D01*
X192919858Y-112051174D01*
X192943750Y-112050000D01*
X193431250Y-112050000D01*
X193455142Y-112051174D01*
X193455142Y-112051174D01*
G37*
D12*
X193187500Y-112750000D03*
D11*
G36*
X191580142Y-109801174D02*
G01*
X191603803Y-109804684D01*
X191627007Y-109810496D01*
X191649529Y-109818554D01*
X191671153Y-109828782D01*
X191691670Y-109841079D01*
X191710883Y-109855329D01*
X191728607Y-109871393D01*
X191744671Y-109889117D01*
X191758921Y-109908330D01*
X191771218Y-109928847D01*
X191781446Y-109950471D01*
X191789504Y-109972993D01*
X191795316Y-109996197D01*
X191798826Y-110019858D01*
X191800000Y-110043750D01*
X191800000Y-110956250D01*
X191798826Y-110980142D01*
X191795316Y-111003803D01*
X191789504Y-111027007D01*
X191781446Y-111049529D01*
X191771218Y-111071153D01*
X191758921Y-111091670D01*
X191744671Y-111110883D01*
X191728607Y-111128607D01*
X191710883Y-111144671D01*
X191691670Y-111158921D01*
X191671153Y-111171218D01*
X191649529Y-111181446D01*
X191627007Y-111189504D01*
X191603803Y-111195316D01*
X191580142Y-111198826D01*
X191556250Y-111200000D01*
X191068750Y-111200000D01*
X191044858Y-111198826D01*
X191021197Y-111195316D01*
X190997993Y-111189504D01*
X190975471Y-111181446D01*
X190953847Y-111171218D01*
X190933330Y-111158921D01*
X190914117Y-111144671D01*
X190896393Y-111128607D01*
X190880329Y-111110883D01*
X190866079Y-111091670D01*
X190853782Y-111071153D01*
X190843554Y-111049529D01*
X190835496Y-111027007D01*
X190829684Y-111003803D01*
X190826174Y-110980142D01*
X190825000Y-110956250D01*
X190825000Y-110043750D01*
X190826174Y-110019858D01*
X190829684Y-109996197D01*
X190835496Y-109972993D01*
X190843554Y-109950471D01*
X190853782Y-109928847D01*
X190866079Y-109908330D01*
X190880329Y-109889117D01*
X190896393Y-109871393D01*
X190914117Y-109855329D01*
X190933330Y-109841079D01*
X190953847Y-109828782D01*
X190975471Y-109818554D01*
X190997993Y-109810496D01*
X191021197Y-109804684D01*
X191044858Y-109801174D01*
X191068750Y-109800000D01*
X191556250Y-109800000D01*
X191580142Y-109801174D01*
X191580142Y-109801174D01*
G37*
D12*
X191312500Y-110500000D03*
D11*
G36*
X193455142Y-109801174D02*
G01*
X193478803Y-109804684D01*
X193502007Y-109810496D01*
X193524529Y-109818554D01*
X193546153Y-109828782D01*
X193566670Y-109841079D01*
X193585883Y-109855329D01*
X193603607Y-109871393D01*
X193619671Y-109889117D01*
X193633921Y-109908330D01*
X193646218Y-109928847D01*
X193656446Y-109950471D01*
X193664504Y-109972993D01*
X193670316Y-109996197D01*
X193673826Y-110019858D01*
X193675000Y-110043750D01*
X193675000Y-110956250D01*
X193673826Y-110980142D01*
X193670316Y-111003803D01*
X193664504Y-111027007D01*
X193656446Y-111049529D01*
X193646218Y-111071153D01*
X193633921Y-111091670D01*
X193619671Y-111110883D01*
X193603607Y-111128607D01*
X193585883Y-111144671D01*
X193566670Y-111158921D01*
X193546153Y-111171218D01*
X193524529Y-111181446D01*
X193502007Y-111189504D01*
X193478803Y-111195316D01*
X193455142Y-111198826D01*
X193431250Y-111200000D01*
X192943750Y-111200000D01*
X192919858Y-111198826D01*
X192896197Y-111195316D01*
X192872993Y-111189504D01*
X192850471Y-111181446D01*
X192828847Y-111171218D01*
X192808330Y-111158921D01*
X192789117Y-111144671D01*
X192771393Y-111128607D01*
X192755329Y-111110883D01*
X192741079Y-111091670D01*
X192728782Y-111071153D01*
X192718554Y-111049529D01*
X192710496Y-111027007D01*
X192704684Y-111003803D01*
X192701174Y-110980142D01*
X192700000Y-110956250D01*
X192700000Y-110043750D01*
X192701174Y-110019858D01*
X192704684Y-109996197D01*
X192710496Y-109972993D01*
X192718554Y-109950471D01*
X192728782Y-109928847D01*
X192741079Y-109908330D01*
X192755329Y-109889117D01*
X192771393Y-109871393D01*
X192789117Y-109855329D01*
X192808330Y-109841079D01*
X192828847Y-109828782D01*
X192850471Y-109818554D01*
X192872993Y-109810496D01*
X192896197Y-109804684D01*
X192919858Y-109801174D01*
X192943750Y-109800000D01*
X193431250Y-109800000D01*
X193455142Y-109801174D01*
X193455142Y-109801174D01*
G37*
D12*
X193187500Y-110500000D03*
D11*
G36*
X186705142Y-116301174D02*
G01*
X186728803Y-116304684D01*
X186752007Y-116310496D01*
X186774529Y-116318554D01*
X186796153Y-116328782D01*
X186816670Y-116341079D01*
X186835883Y-116355329D01*
X186853607Y-116371393D01*
X186869671Y-116389117D01*
X186883921Y-116408330D01*
X186896218Y-116428847D01*
X186906446Y-116450471D01*
X186914504Y-116472993D01*
X186920316Y-116496197D01*
X186923826Y-116519858D01*
X186925000Y-116543750D01*
X186925000Y-117456250D01*
X186923826Y-117480142D01*
X186920316Y-117503803D01*
X186914504Y-117527007D01*
X186906446Y-117549529D01*
X186896218Y-117571153D01*
X186883921Y-117591670D01*
X186869671Y-117610883D01*
X186853607Y-117628607D01*
X186835883Y-117644671D01*
X186816670Y-117658921D01*
X186796153Y-117671218D01*
X186774529Y-117681446D01*
X186752007Y-117689504D01*
X186728803Y-117695316D01*
X186705142Y-117698826D01*
X186681250Y-117700000D01*
X186193750Y-117700000D01*
X186169858Y-117698826D01*
X186146197Y-117695316D01*
X186122993Y-117689504D01*
X186100471Y-117681446D01*
X186078847Y-117671218D01*
X186058330Y-117658921D01*
X186039117Y-117644671D01*
X186021393Y-117628607D01*
X186005329Y-117610883D01*
X185991079Y-117591670D01*
X185978782Y-117571153D01*
X185968554Y-117549529D01*
X185960496Y-117527007D01*
X185954684Y-117503803D01*
X185951174Y-117480142D01*
X185950000Y-117456250D01*
X185950000Y-116543750D01*
X185951174Y-116519858D01*
X185954684Y-116496197D01*
X185960496Y-116472993D01*
X185968554Y-116450471D01*
X185978782Y-116428847D01*
X185991079Y-116408330D01*
X186005329Y-116389117D01*
X186021393Y-116371393D01*
X186039117Y-116355329D01*
X186058330Y-116341079D01*
X186078847Y-116328782D01*
X186100471Y-116318554D01*
X186122993Y-116310496D01*
X186146197Y-116304684D01*
X186169858Y-116301174D01*
X186193750Y-116300000D01*
X186681250Y-116300000D01*
X186705142Y-116301174D01*
X186705142Y-116301174D01*
G37*
D12*
X186437500Y-117000000D03*
D11*
G36*
X184830142Y-116301174D02*
G01*
X184853803Y-116304684D01*
X184877007Y-116310496D01*
X184899529Y-116318554D01*
X184921153Y-116328782D01*
X184941670Y-116341079D01*
X184960883Y-116355329D01*
X184978607Y-116371393D01*
X184994671Y-116389117D01*
X185008921Y-116408330D01*
X185021218Y-116428847D01*
X185031446Y-116450471D01*
X185039504Y-116472993D01*
X185045316Y-116496197D01*
X185048826Y-116519858D01*
X185050000Y-116543750D01*
X185050000Y-117456250D01*
X185048826Y-117480142D01*
X185045316Y-117503803D01*
X185039504Y-117527007D01*
X185031446Y-117549529D01*
X185021218Y-117571153D01*
X185008921Y-117591670D01*
X184994671Y-117610883D01*
X184978607Y-117628607D01*
X184960883Y-117644671D01*
X184941670Y-117658921D01*
X184921153Y-117671218D01*
X184899529Y-117681446D01*
X184877007Y-117689504D01*
X184853803Y-117695316D01*
X184830142Y-117698826D01*
X184806250Y-117700000D01*
X184318750Y-117700000D01*
X184294858Y-117698826D01*
X184271197Y-117695316D01*
X184247993Y-117689504D01*
X184225471Y-117681446D01*
X184203847Y-117671218D01*
X184183330Y-117658921D01*
X184164117Y-117644671D01*
X184146393Y-117628607D01*
X184130329Y-117610883D01*
X184116079Y-117591670D01*
X184103782Y-117571153D01*
X184093554Y-117549529D01*
X184085496Y-117527007D01*
X184079684Y-117503803D01*
X184076174Y-117480142D01*
X184075000Y-117456250D01*
X184075000Y-116543750D01*
X184076174Y-116519858D01*
X184079684Y-116496197D01*
X184085496Y-116472993D01*
X184093554Y-116450471D01*
X184103782Y-116428847D01*
X184116079Y-116408330D01*
X184130329Y-116389117D01*
X184146393Y-116371393D01*
X184164117Y-116355329D01*
X184183330Y-116341079D01*
X184203847Y-116328782D01*
X184225471Y-116318554D01*
X184247993Y-116310496D01*
X184271197Y-116304684D01*
X184294858Y-116301174D01*
X184318750Y-116300000D01*
X184806250Y-116300000D01*
X184830142Y-116301174D01*
X184830142Y-116301174D01*
G37*
D12*
X184562500Y-117000000D03*
D11*
G36*
X189230142Y-114826174D02*
G01*
X189253803Y-114829684D01*
X189277007Y-114835496D01*
X189299529Y-114843554D01*
X189321153Y-114853782D01*
X189341670Y-114866079D01*
X189360883Y-114880329D01*
X189378607Y-114896393D01*
X189394671Y-114914117D01*
X189408921Y-114933330D01*
X189421218Y-114953847D01*
X189431446Y-114975471D01*
X189439504Y-114997993D01*
X189445316Y-115021197D01*
X189448826Y-115044858D01*
X189450000Y-115068750D01*
X189450000Y-115556250D01*
X189448826Y-115580142D01*
X189445316Y-115603803D01*
X189439504Y-115627007D01*
X189431446Y-115649529D01*
X189421218Y-115671153D01*
X189408921Y-115691670D01*
X189394671Y-115710883D01*
X189378607Y-115728607D01*
X189360883Y-115744671D01*
X189341670Y-115758921D01*
X189321153Y-115771218D01*
X189299529Y-115781446D01*
X189277007Y-115789504D01*
X189253803Y-115795316D01*
X189230142Y-115798826D01*
X189206250Y-115800000D01*
X188293750Y-115800000D01*
X188269858Y-115798826D01*
X188246197Y-115795316D01*
X188222993Y-115789504D01*
X188200471Y-115781446D01*
X188178847Y-115771218D01*
X188158330Y-115758921D01*
X188139117Y-115744671D01*
X188121393Y-115728607D01*
X188105329Y-115710883D01*
X188091079Y-115691670D01*
X188078782Y-115671153D01*
X188068554Y-115649529D01*
X188060496Y-115627007D01*
X188054684Y-115603803D01*
X188051174Y-115580142D01*
X188050000Y-115556250D01*
X188050000Y-115068750D01*
X188051174Y-115044858D01*
X188054684Y-115021197D01*
X188060496Y-114997993D01*
X188068554Y-114975471D01*
X188078782Y-114953847D01*
X188091079Y-114933330D01*
X188105329Y-114914117D01*
X188121393Y-114896393D01*
X188139117Y-114880329D01*
X188158330Y-114866079D01*
X188178847Y-114853782D01*
X188200471Y-114843554D01*
X188222993Y-114835496D01*
X188246197Y-114829684D01*
X188269858Y-114826174D01*
X188293750Y-114825000D01*
X189206250Y-114825000D01*
X189230142Y-114826174D01*
X189230142Y-114826174D01*
G37*
D12*
X188750000Y-115312500D03*
D11*
G36*
X189230142Y-116701174D02*
G01*
X189253803Y-116704684D01*
X189277007Y-116710496D01*
X189299529Y-116718554D01*
X189321153Y-116728782D01*
X189341670Y-116741079D01*
X189360883Y-116755329D01*
X189378607Y-116771393D01*
X189394671Y-116789117D01*
X189408921Y-116808330D01*
X189421218Y-116828847D01*
X189431446Y-116850471D01*
X189439504Y-116872993D01*
X189445316Y-116896197D01*
X189448826Y-116919858D01*
X189450000Y-116943750D01*
X189450000Y-117431250D01*
X189448826Y-117455142D01*
X189445316Y-117478803D01*
X189439504Y-117502007D01*
X189431446Y-117524529D01*
X189421218Y-117546153D01*
X189408921Y-117566670D01*
X189394671Y-117585883D01*
X189378607Y-117603607D01*
X189360883Y-117619671D01*
X189341670Y-117633921D01*
X189321153Y-117646218D01*
X189299529Y-117656446D01*
X189277007Y-117664504D01*
X189253803Y-117670316D01*
X189230142Y-117673826D01*
X189206250Y-117675000D01*
X188293750Y-117675000D01*
X188269858Y-117673826D01*
X188246197Y-117670316D01*
X188222993Y-117664504D01*
X188200471Y-117656446D01*
X188178847Y-117646218D01*
X188158330Y-117633921D01*
X188139117Y-117619671D01*
X188121393Y-117603607D01*
X188105329Y-117585883D01*
X188091079Y-117566670D01*
X188078782Y-117546153D01*
X188068554Y-117524529D01*
X188060496Y-117502007D01*
X188054684Y-117478803D01*
X188051174Y-117455142D01*
X188050000Y-117431250D01*
X188050000Y-116943750D01*
X188051174Y-116919858D01*
X188054684Y-116896197D01*
X188060496Y-116872993D01*
X188068554Y-116850471D01*
X188078782Y-116828847D01*
X188091079Y-116808330D01*
X188105329Y-116789117D01*
X188121393Y-116771393D01*
X188139117Y-116755329D01*
X188158330Y-116741079D01*
X188178847Y-116728782D01*
X188200471Y-116718554D01*
X188222993Y-116710496D01*
X188246197Y-116704684D01*
X188269858Y-116701174D01*
X188293750Y-116700000D01*
X189206250Y-116700000D01*
X189230142Y-116701174D01*
X189230142Y-116701174D01*
G37*
D12*
X188750000Y-117187500D03*
D18*
X201000000Y-122450000D03*
X201000000Y-112550000D03*
D19*
X174775000Y-118500000D03*
X174775000Y-117500000D03*
X174775000Y-116500000D03*
D20*
X170900000Y-115200000D03*
X170900000Y-119800000D03*
D21*
X192250000Y-123750000D03*
X192250000Y-119750000D03*
D11*
G36*
X178824504Y-120951204D02*
G01*
X178848773Y-120954804D01*
X178872571Y-120960765D01*
X178895671Y-120969030D01*
X178917849Y-120979520D01*
X178938893Y-120992133D01*
X178958598Y-121006747D01*
X178976777Y-121023223D01*
X178993253Y-121041402D01*
X179007867Y-121061107D01*
X179020480Y-121082151D01*
X179030970Y-121104329D01*
X179039235Y-121127429D01*
X179045196Y-121151227D01*
X179048796Y-121175496D01*
X179050000Y-121200000D01*
X179050000Y-122300000D01*
X179048796Y-122324504D01*
X179045196Y-122348773D01*
X179039235Y-122372571D01*
X179030970Y-122395671D01*
X179020480Y-122417849D01*
X179007867Y-122438893D01*
X178993253Y-122458598D01*
X178976777Y-122476777D01*
X178958598Y-122493253D01*
X178938893Y-122507867D01*
X178917849Y-122520480D01*
X178895671Y-122530970D01*
X178872571Y-122539235D01*
X178848773Y-122545196D01*
X178824504Y-122548796D01*
X178800000Y-122550000D01*
X175800000Y-122550000D01*
X175775496Y-122548796D01*
X175751227Y-122545196D01*
X175727429Y-122539235D01*
X175704329Y-122530970D01*
X175682151Y-122520480D01*
X175661107Y-122507867D01*
X175641402Y-122493253D01*
X175623223Y-122476777D01*
X175606747Y-122458598D01*
X175592133Y-122438893D01*
X175579520Y-122417849D01*
X175569030Y-122395671D01*
X175560765Y-122372571D01*
X175554804Y-122348773D01*
X175551204Y-122324504D01*
X175550000Y-122300000D01*
X175550000Y-121200000D01*
X175551204Y-121175496D01*
X175554804Y-121151227D01*
X175560765Y-121127429D01*
X175569030Y-121104329D01*
X175579520Y-121082151D01*
X175592133Y-121061107D01*
X175606747Y-121041402D01*
X175623223Y-121023223D01*
X175641402Y-121006747D01*
X175661107Y-120992133D01*
X175682151Y-120979520D01*
X175704329Y-120969030D01*
X175727429Y-120960765D01*
X175751227Y-120954804D01*
X175775496Y-120951204D01*
X175800000Y-120950000D01*
X178800000Y-120950000D01*
X178824504Y-120951204D01*
X178824504Y-120951204D01*
G37*
D22*
X177300000Y-121750000D03*
D11*
G36*
X184224504Y-120951204D02*
G01*
X184248773Y-120954804D01*
X184272571Y-120960765D01*
X184295671Y-120969030D01*
X184317849Y-120979520D01*
X184338893Y-120992133D01*
X184358598Y-121006747D01*
X184376777Y-121023223D01*
X184393253Y-121041402D01*
X184407867Y-121061107D01*
X184420480Y-121082151D01*
X184430970Y-121104329D01*
X184439235Y-121127429D01*
X184445196Y-121151227D01*
X184448796Y-121175496D01*
X184450000Y-121200000D01*
X184450000Y-122300000D01*
X184448796Y-122324504D01*
X184445196Y-122348773D01*
X184439235Y-122372571D01*
X184430970Y-122395671D01*
X184420480Y-122417849D01*
X184407867Y-122438893D01*
X184393253Y-122458598D01*
X184376777Y-122476777D01*
X184358598Y-122493253D01*
X184338893Y-122507867D01*
X184317849Y-122520480D01*
X184295671Y-122530970D01*
X184272571Y-122539235D01*
X184248773Y-122545196D01*
X184224504Y-122548796D01*
X184200000Y-122550000D01*
X181200000Y-122550000D01*
X181175496Y-122548796D01*
X181151227Y-122545196D01*
X181127429Y-122539235D01*
X181104329Y-122530970D01*
X181082151Y-122520480D01*
X181061107Y-122507867D01*
X181041402Y-122493253D01*
X181023223Y-122476777D01*
X181006747Y-122458598D01*
X180992133Y-122438893D01*
X180979520Y-122417849D01*
X180969030Y-122395671D01*
X180960765Y-122372571D01*
X180954804Y-122348773D01*
X180951204Y-122324504D01*
X180950000Y-122300000D01*
X180950000Y-121200000D01*
X180951204Y-121175496D01*
X180954804Y-121151227D01*
X180960765Y-121127429D01*
X180969030Y-121104329D01*
X180979520Y-121082151D01*
X180992133Y-121061107D01*
X181006747Y-121041402D01*
X181023223Y-121023223D01*
X181041402Y-121006747D01*
X181061107Y-120992133D01*
X181082151Y-120979520D01*
X181104329Y-120969030D01*
X181127429Y-120960765D01*
X181151227Y-120954804D01*
X181175496Y-120951204D01*
X181200000Y-120950000D01*
X184200000Y-120950000D01*
X184224504Y-120951204D01*
X184224504Y-120951204D01*
G37*
D22*
X182700000Y-121750000D03*
D11*
G36*
X189649504Y-119726204D02*
G01*
X189673773Y-119729804D01*
X189697571Y-119735765D01*
X189720671Y-119744030D01*
X189742849Y-119754520D01*
X189763893Y-119767133D01*
X189783598Y-119781747D01*
X189801777Y-119798223D01*
X189818253Y-119816402D01*
X189832867Y-119836107D01*
X189845480Y-119857151D01*
X189855970Y-119879329D01*
X189864235Y-119902429D01*
X189870196Y-119926227D01*
X189873796Y-119950496D01*
X189875000Y-119975000D01*
X189875000Y-120725000D01*
X189873796Y-120749504D01*
X189870196Y-120773773D01*
X189864235Y-120797571D01*
X189855970Y-120820671D01*
X189845480Y-120842849D01*
X189832867Y-120863893D01*
X189818253Y-120883598D01*
X189801777Y-120901777D01*
X189783598Y-120918253D01*
X189763893Y-120932867D01*
X189742849Y-120945480D01*
X189720671Y-120955970D01*
X189697571Y-120964235D01*
X189673773Y-120970196D01*
X189649504Y-120973796D01*
X189625000Y-120975000D01*
X188375000Y-120975000D01*
X188350496Y-120973796D01*
X188326227Y-120970196D01*
X188302429Y-120964235D01*
X188279329Y-120955970D01*
X188257151Y-120945480D01*
X188236107Y-120932867D01*
X188216402Y-120918253D01*
X188198223Y-120901777D01*
X188181747Y-120883598D01*
X188167133Y-120863893D01*
X188154520Y-120842849D01*
X188144030Y-120820671D01*
X188135765Y-120797571D01*
X188129804Y-120773773D01*
X188126204Y-120749504D01*
X188125000Y-120725000D01*
X188125000Y-119975000D01*
X188126204Y-119950496D01*
X188129804Y-119926227D01*
X188135765Y-119902429D01*
X188144030Y-119879329D01*
X188154520Y-119857151D01*
X188167133Y-119836107D01*
X188181747Y-119816402D01*
X188198223Y-119798223D01*
X188216402Y-119781747D01*
X188236107Y-119767133D01*
X188257151Y-119754520D01*
X188279329Y-119744030D01*
X188302429Y-119735765D01*
X188326227Y-119729804D01*
X188350496Y-119726204D01*
X188375000Y-119725000D01*
X189625000Y-119725000D01*
X189649504Y-119726204D01*
X189649504Y-119726204D01*
G37*
D23*
X189000000Y-120350000D03*
D11*
G36*
X189649504Y-122526204D02*
G01*
X189673773Y-122529804D01*
X189697571Y-122535765D01*
X189720671Y-122544030D01*
X189742849Y-122554520D01*
X189763893Y-122567133D01*
X189783598Y-122581747D01*
X189801777Y-122598223D01*
X189818253Y-122616402D01*
X189832867Y-122636107D01*
X189845480Y-122657151D01*
X189855970Y-122679329D01*
X189864235Y-122702429D01*
X189870196Y-122726227D01*
X189873796Y-122750496D01*
X189875000Y-122775000D01*
X189875000Y-123525000D01*
X189873796Y-123549504D01*
X189870196Y-123573773D01*
X189864235Y-123597571D01*
X189855970Y-123620671D01*
X189845480Y-123642849D01*
X189832867Y-123663893D01*
X189818253Y-123683598D01*
X189801777Y-123701777D01*
X189783598Y-123718253D01*
X189763893Y-123732867D01*
X189742849Y-123745480D01*
X189720671Y-123755970D01*
X189697571Y-123764235D01*
X189673773Y-123770196D01*
X189649504Y-123773796D01*
X189625000Y-123775000D01*
X188375000Y-123775000D01*
X188350496Y-123773796D01*
X188326227Y-123770196D01*
X188302429Y-123764235D01*
X188279329Y-123755970D01*
X188257151Y-123745480D01*
X188236107Y-123732867D01*
X188216402Y-123718253D01*
X188198223Y-123701777D01*
X188181747Y-123683598D01*
X188167133Y-123663893D01*
X188154520Y-123642849D01*
X188144030Y-123620671D01*
X188135765Y-123597571D01*
X188129804Y-123573773D01*
X188126204Y-123549504D01*
X188125000Y-123525000D01*
X188125000Y-122775000D01*
X188126204Y-122750496D01*
X188129804Y-122726227D01*
X188135765Y-122702429D01*
X188144030Y-122679329D01*
X188154520Y-122657151D01*
X188167133Y-122636107D01*
X188181747Y-122616402D01*
X188198223Y-122598223D01*
X188216402Y-122581747D01*
X188236107Y-122567133D01*
X188257151Y-122554520D01*
X188279329Y-122544030D01*
X188302429Y-122535765D01*
X188326227Y-122529804D01*
X188350496Y-122526204D01*
X188375000Y-122525000D01*
X189625000Y-122525000D01*
X189649504Y-122526204D01*
X189649504Y-122526204D01*
G37*
D23*
X189000000Y-123150000D03*
D11*
G36*
X189649504Y-109476204D02*
G01*
X189673773Y-109479804D01*
X189697571Y-109485765D01*
X189720671Y-109494030D01*
X189742849Y-109504520D01*
X189763893Y-109517133D01*
X189783598Y-109531747D01*
X189801777Y-109548223D01*
X189818253Y-109566402D01*
X189832867Y-109586107D01*
X189845480Y-109607151D01*
X189855970Y-109629329D01*
X189864235Y-109652429D01*
X189870196Y-109676227D01*
X189873796Y-109700496D01*
X189875000Y-109725000D01*
X189875000Y-110475000D01*
X189873796Y-110499504D01*
X189870196Y-110523773D01*
X189864235Y-110547571D01*
X189855970Y-110570671D01*
X189845480Y-110592849D01*
X189832867Y-110613893D01*
X189818253Y-110633598D01*
X189801777Y-110651777D01*
X189783598Y-110668253D01*
X189763893Y-110682867D01*
X189742849Y-110695480D01*
X189720671Y-110705970D01*
X189697571Y-110714235D01*
X189673773Y-110720196D01*
X189649504Y-110723796D01*
X189625000Y-110725000D01*
X188375000Y-110725000D01*
X188350496Y-110723796D01*
X188326227Y-110720196D01*
X188302429Y-110714235D01*
X188279329Y-110705970D01*
X188257151Y-110695480D01*
X188236107Y-110682867D01*
X188216402Y-110668253D01*
X188198223Y-110651777D01*
X188181747Y-110633598D01*
X188167133Y-110613893D01*
X188154520Y-110592849D01*
X188144030Y-110570671D01*
X188135765Y-110547571D01*
X188129804Y-110523773D01*
X188126204Y-110499504D01*
X188125000Y-110475000D01*
X188125000Y-109725000D01*
X188126204Y-109700496D01*
X188129804Y-109676227D01*
X188135765Y-109652429D01*
X188144030Y-109629329D01*
X188154520Y-109607151D01*
X188167133Y-109586107D01*
X188181747Y-109566402D01*
X188198223Y-109548223D01*
X188216402Y-109531747D01*
X188236107Y-109517133D01*
X188257151Y-109504520D01*
X188279329Y-109494030D01*
X188302429Y-109485765D01*
X188326227Y-109479804D01*
X188350496Y-109476204D01*
X188375000Y-109475000D01*
X189625000Y-109475000D01*
X189649504Y-109476204D01*
X189649504Y-109476204D01*
G37*
D23*
X189000000Y-110100000D03*
D11*
G36*
X189649504Y-112276204D02*
G01*
X189673773Y-112279804D01*
X189697571Y-112285765D01*
X189720671Y-112294030D01*
X189742849Y-112304520D01*
X189763893Y-112317133D01*
X189783598Y-112331747D01*
X189801777Y-112348223D01*
X189818253Y-112366402D01*
X189832867Y-112386107D01*
X189845480Y-112407151D01*
X189855970Y-112429329D01*
X189864235Y-112452429D01*
X189870196Y-112476227D01*
X189873796Y-112500496D01*
X189875000Y-112525000D01*
X189875000Y-113275000D01*
X189873796Y-113299504D01*
X189870196Y-113323773D01*
X189864235Y-113347571D01*
X189855970Y-113370671D01*
X189845480Y-113392849D01*
X189832867Y-113413893D01*
X189818253Y-113433598D01*
X189801777Y-113451777D01*
X189783598Y-113468253D01*
X189763893Y-113482867D01*
X189742849Y-113495480D01*
X189720671Y-113505970D01*
X189697571Y-113514235D01*
X189673773Y-113520196D01*
X189649504Y-113523796D01*
X189625000Y-113525000D01*
X188375000Y-113525000D01*
X188350496Y-113523796D01*
X188326227Y-113520196D01*
X188302429Y-113514235D01*
X188279329Y-113505970D01*
X188257151Y-113495480D01*
X188236107Y-113482867D01*
X188216402Y-113468253D01*
X188198223Y-113451777D01*
X188181747Y-113433598D01*
X188167133Y-113413893D01*
X188154520Y-113392849D01*
X188144030Y-113370671D01*
X188135765Y-113347571D01*
X188129804Y-113323773D01*
X188126204Y-113299504D01*
X188125000Y-113275000D01*
X188125000Y-112525000D01*
X188126204Y-112500496D01*
X188129804Y-112476227D01*
X188135765Y-112452429D01*
X188144030Y-112429329D01*
X188154520Y-112407151D01*
X188167133Y-112386107D01*
X188181747Y-112366402D01*
X188198223Y-112348223D01*
X188216402Y-112331747D01*
X188236107Y-112317133D01*
X188257151Y-112304520D01*
X188279329Y-112294030D01*
X188302429Y-112285765D01*
X188326227Y-112279804D01*
X188350496Y-112276204D01*
X188375000Y-112275000D01*
X189625000Y-112275000D01*
X189649504Y-112276204D01*
X189649504Y-112276204D01*
G37*
D23*
X189000000Y-112900000D03*
D11*
G36*
X182730142Y-110326174D02*
G01*
X182753803Y-110329684D01*
X182777007Y-110335496D01*
X182799529Y-110343554D01*
X182821153Y-110353782D01*
X182841670Y-110366079D01*
X182860883Y-110380329D01*
X182878607Y-110396393D01*
X182894671Y-110414117D01*
X182908921Y-110433330D01*
X182921218Y-110453847D01*
X182931446Y-110475471D01*
X182939504Y-110497993D01*
X182945316Y-110521197D01*
X182948826Y-110544858D01*
X182950000Y-110568750D01*
X182950000Y-111056250D01*
X182948826Y-111080142D01*
X182945316Y-111103803D01*
X182939504Y-111127007D01*
X182931446Y-111149529D01*
X182921218Y-111171153D01*
X182908921Y-111191670D01*
X182894671Y-111210883D01*
X182878607Y-111228607D01*
X182860883Y-111244671D01*
X182841670Y-111258921D01*
X182821153Y-111271218D01*
X182799529Y-111281446D01*
X182777007Y-111289504D01*
X182753803Y-111295316D01*
X182730142Y-111298826D01*
X182706250Y-111300000D01*
X181793750Y-111300000D01*
X181769858Y-111298826D01*
X181746197Y-111295316D01*
X181722993Y-111289504D01*
X181700471Y-111281446D01*
X181678847Y-111271218D01*
X181658330Y-111258921D01*
X181639117Y-111244671D01*
X181621393Y-111228607D01*
X181605329Y-111210883D01*
X181591079Y-111191670D01*
X181578782Y-111171153D01*
X181568554Y-111149529D01*
X181560496Y-111127007D01*
X181554684Y-111103803D01*
X181551174Y-111080142D01*
X181550000Y-111056250D01*
X181550000Y-110568750D01*
X181551174Y-110544858D01*
X181554684Y-110521197D01*
X181560496Y-110497993D01*
X181568554Y-110475471D01*
X181578782Y-110453847D01*
X181591079Y-110433330D01*
X181605329Y-110414117D01*
X181621393Y-110396393D01*
X181639117Y-110380329D01*
X181658330Y-110366079D01*
X181678847Y-110353782D01*
X181700471Y-110343554D01*
X181722993Y-110335496D01*
X181746197Y-110329684D01*
X181769858Y-110326174D01*
X181793750Y-110325000D01*
X182706250Y-110325000D01*
X182730142Y-110326174D01*
X182730142Y-110326174D01*
G37*
D12*
X182250000Y-110812500D03*
D11*
G36*
X182730142Y-112201174D02*
G01*
X182753803Y-112204684D01*
X182777007Y-112210496D01*
X182799529Y-112218554D01*
X182821153Y-112228782D01*
X182841670Y-112241079D01*
X182860883Y-112255329D01*
X182878607Y-112271393D01*
X182894671Y-112289117D01*
X182908921Y-112308330D01*
X182921218Y-112328847D01*
X182931446Y-112350471D01*
X182939504Y-112372993D01*
X182945316Y-112396197D01*
X182948826Y-112419858D01*
X182950000Y-112443750D01*
X182950000Y-112931250D01*
X182948826Y-112955142D01*
X182945316Y-112978803D01*
X182939504Y-113002007D01*
X182931446Y-113024529D01*
X182921218Y-113046153D01*
X182908921Y-113066670D01*
X182894671Y-113085883D01*
X182878607Y-113103607D01*
X182860883Y-113119671D01*
X182841670Y-113133921D01*
X182821153Y-113146218D01*
X182799529Y-113156446D01*
X182777007Y-113164504D01*
X182753803Y-113170316D01*
X182730142Y-113173826D01*
X182706250Y-113175000D01*
X181793750Y-113175000D01*
X181769858Y-113173826D01*
X181746197Y-113170316D01*
X181722993Y-113164504D01*
X181700471Y-113156446D01*
X181678847Y-113146218D01*
X181658330Y-113133921D01*
X181639117Y-113119671D01*
X181621393Y-113103607D01*
X181605329Y-113085883D01*
X181591079Y-113066670D01*
X181578782Y-113046153D01*
X181568554Y-113024529D01*
X181560496Y-113002007D01*
X181554684Y-112978803D01*
X181551174Y-112955142D01*
X181550000Y-112931250D01*
X181550000Y-112443750D01*
X181551174Y-112419858D01*
X181554684Y-112396197D01*
X181560496Y-112372993D01*
X181568554Y-112350471D01*
X181578782Y-112328847D01*
X181591079Y-112308330D01*
X181605329Y-112289117D01*
X181621393Y-112271393D01*
X181639117Y-112255329D01*
X181658330Y-112241079D01*
X181678847Y-112228782D01*
X181700471Y-112218554D01*
X181722993Y-112210496D01*
X181746197Y-112204684D01*
X181769858Y-112201174D01*
X181793750Y-112200000D01*
X182706250Y-112200000D01*
X182730142Y-112201174D01*
X182730142Y-112201174D01*
G37*
D12*
X182250000Y-112687500D03*
D11*
G36*
X186705142Y-110301174D02*
G01*
X186728803Y-110304684D01*
X186752007Y-110310496D01*
X186774529Y-110318554D01*
X186796153Y-110328782D01*
X186816670Y-110341079D01*
X186835883Y-110355329D01*
X186853607Y-110371393D01*
X186869671Y-110389117D01*
X186883921Y-110408330D01*
X186896218Y-110428847D01*
X186906446Y-110450471D01*
X186914504Y-110472993D01*
X186920316Y-110496197D01*
X186923826Y-110519858D01*
X186925000Y-110543750D01*
X186925000Y-111456250D01*
X186923826Y-111480142D01*
X186920316Y-111503803D01*
X186914504Y-111527007D01*
X186906446Y-111549529D01*
X186896218Y-111571153D01*
X186883921Y-111591670D01*
X186869671Y-111610883D01*
X186853607Y-111628607D01*
X186835883Y-111644671D01*
X186816670Y-111658921D01*
X186796153Y-111671218D01*
X186774529Y-111681446D01*
X186752007Y-111689504D01*
X186728803Y-111695316D01*
X186705142Y-111698826D01*
X186681250Y-111700000D01*
X186193750Y-111700000D01*
X186169858Y-111698826D01*
X186146197Y-111695316D01*
X186122993Y-111689504D01*
X186100471Y-111681446D01*
X186078847Y-111671218D01*
X186058330Y-111658921D01*
X186039117Y-111644671D01*
X186021393Y-111628607D01*
X186005329Y-111610883D01*
X185991079Y-111591670D01*
X185978782Y-111571153D01*
X185968554Y-111549529D01*
X185960496Y-111527007D01*
X185954684Y-111503803D01*
X185951174Y-111480142D01*
X185950000Y-111456250D01*
X185950000Y-110543750D01*
X185951174Y-110519858D01*
X185954684Y-110496197D01*
X185960496Y-110472993D01*
X185968554Y-110450471D01*
X185978782Y-110428847D01*
X185991079Y-110408330D01*
X186005329Y-110389117D01*
X186021393Y-110371393D01*
X186039117Y-110355329D01*
X186058330Y-110341079D01*
X186078847Y-110328782D01*
X186100471Y-110318554D01*
X186122993Y-110310496D01*
X186146197Y-110304684D01*
X186169858Y-110301174D01*
X186193750Y-110300000D01*
X186681250Y-110300000D01*
X186705142Y-110301174D01*
X186705142Y-110301174D01*
G37*
D12*
X186437500Y-111000000D03*
D11*
G36*
X184830142Y-110301174D02*
G01*
X184853803Y-110304684D01*
X184877007Y-110310496D01*
X184899529Y-110318554D01*
X184921153Y-110328782D01*
X184941670Y-110341079D01*
X184960883Y-110355329D01*
X184978607Y-110371393D01*
X184994671Y-110389117D01*
X185008921Y-110408330D01*
X185021218Y-110428847D01*
X185031446Y-110450471D01*
X185039504Y-110472993D01*
X185045316Y-110496197D01*
X185048826Y-110519858D01*
X185050000Y-110543750D01*
X185050000Y-111456250D01*
X185048826Y-111480142D01*
X185045316Y-111503803D01*
X185039504Y-111527007D01*
X185031446Y-111549529D01*
X185021218Y-111571153D01*
X185008921Y-111591670D01*
X184994671Y-111610883D01*
X184978607Y-111628607D01*
X184960883Y-111644671D01*
X184941670Y-111658921D01*
X184921153Y-111671218D01*
X184899529Y-111681446D01*
X184877007Y-111689504D01*
X184853803Y-111695316D01*
X184830142Y-111698826D01*
X184806250Y-111700000D01*
X184318750Y-111700000D01*
X184294858Y-111698826D01*
X184271197Y-111695316D01*
X184247993Y-111689504D01*
X184225471Y-111681446D01*
X184203847Y-111671218D01*
X184183330Y-111658921D01*
X184164117Y-111644671D01*
X184146393Y-111628607D01*
X184130329Y-111610883D01*
X184116079Y-111591670D01*
X184103782Y-111571153D01*
X184093554Y-111549529D01*
X184085496Y-111527007D01*
X184079684Y-111503803D01*
X184076174Y-111480142D01*
X184075000Y-111456250D01*
X184075000Y-110543750D01*
X184076174Y-110519858D01*
X184079684Y-110496197D01*
X184085496Y-110472993D01*
X184093554Y-110450471D01*
X184103782Y-110428847D01*
X184116079Y-110408330D01*
X184130329Y-110389117D01*
X184146393Y-110371393D01*
X184164117Y-110355329D01*
X184183330Y-110341079D01*
X184203847Y-110328782D01*
X184225471Y-110318554D01*
X184247993Y-110310496D01*
X184271197Y-110304684D01*
X184294858Y-110301174D01*
X184318750Y-110300000D01*
X184806250Y-110300000D01*
X184830142Y-110301174D01*
X184830142Y-110301174D01*
G37*
D12*
X184562500Y-111000000D03*
D24*
X190119000Y-111506000D03*
X178943000Y-114046000D03*
X187750000Y-118750000D03*
X178908500Y-119091500D03*
X184658000Y-119761000D03*
X177546000Y-109982000D03*
X174752000Y-115316000D03*
X196500000Y-110500000D03*
X182753000Y-123571000D03*
X177546000Y-111379000D03*
X186309000Y-125095000D03*
X194056000Y-118110000D03*
X186309000Y-118745000D03*
X194818000Y-112395000D03*
X190246000Y-118237000D03*
D25*
X190900000Y-116000000D02*
X190054000Y-116000000D01*
X188866500Y-117187500D02*
X188750000Y-117187500D01*
X190054000Y-116000000D02*
X188866500Y-117187500D01*
X188750000Y-120100000D02*
X189000000Y-120350000D01*
X191312500Y-112699500D02*
X190119000Y-111506000D01*
X191312500Y-112750000D02*
X191312500Y-112699500D01*
X189357000Y-111506000D02*
X190119000Y-111506000D01*
X189000000Y-110100000D02*
X189000000Y-111149000D01*
X189000000Y-111149000D02*
X189357000Y-111506000D01*
X187454000Y-111000000D02*
X186437500Y-111000000D01*
X187960000Y-111506000D02*
X187454000Y-111000000D01*
X189000000Y-111149000D02*
X188643000Y-111506000D01*
X188643000Y-111506000D02*
X187960000Y-111506000D01*
X182250000Y-110812500D02*
X180652500Y-110812500D01*
X179950000Y-111515000D02*
X179950000Y-112750000D01*
X180652500Y-110812500D02*
X179950000Y-111515000D01*
X184354000Y-114046000D02*
X184400000Y-114000000D01*
X179950000Y-112750000D02*
X179950000Y-113674000D01*
X179578000Y-114046000D02*
X179451000Y-114046000D01*
X179950000Y-113674000D02*
X179578000Y-114046000D01*
X178943000Y-114046000D02*
X179451000Y-114046000D01*
X180322000Y-114046000D02*
X179950000Y-113674000D01*
X181102000Y-114046000D02*
X180322000Y-114046000D01*
X181102000Y-114046000D02*
X184354000Y-114046000D01*
X188792000Y-120142000D02*
X189000000Y-120350000D01*
X177300000Y-121750000D02*
X177300000Y-120700000D01*
X180000000Y-118000000D02*
X180000000Y-117187500D01*
X188250000Y-118750000D02*
X188750000Y-119250000D01*
X187750000Y-118750000D02*
X188250000Y-118750000D01*
X188750000Y-119250000D02*
X188750000Y-120100000D01*
X188750000Y-118250000D02*
X188250000Y-118750000D01*
X188750000Y-117187500D02*
X188750000Y-118250000D01*
X177300000Y-120700000D02*
X178908500Y-119091500D01*
X178908500Y-119091500D02*
X180000000Y-118000000D01*
X181761000Y-119761000D02*
X180000000Y-118000000D01*
X184658000Y-119761000D02*
X181761000Y-119761000D01*
X177300000Y-121750000D02*
X174836000Y-121750000D01*
X174836000Y-121750000D02*
X174244000Y-121158000D01*
X174244000Y-121158000D02*
X174244000Y-120650000D01*
X174775000Y-120119000D02*
X174775000Y-118500000D01*
X174244000Y-120650000D02*
X174775000Y-120119000D01*
X173364000Y-118500000D02*
X172847000Y-117983000D01*
X174775000Y-118500000D02*
X173364000Y-118500000D01*
X172847000Y-117983000D02*
X172847000Y-114681000D01*
X172847000Y-114681000D02*
X174434500Y-113093500D01*
X174620000Y-110812500D02*
X175750000Y-110812500D01*
X174434500Y-113093500D02*
X174434500Y-110998000D01*
X174434500Y-110998000D02*
X174620000Y-110812500D01*
X182612500Y-113050000D02*
X182250000Y-112687500D01*
X184400000Y-113050000D02*
X182612500Y-113050000D01*
X182250000Y-112687500D02*
X182562500Y-112687500D01*
X185186000Y-113050000D02*
X184400000Y-113050000D01*
X185483500Y-113347500D02*
X185186000Y-113050000D01*
X185483500Y-116016500D02*
X185483500Y-113347500D01*
X184562500Y-117000000D02*
X184562500Y-116937500D01*
X184562500Y-116937500D02*
X185483500Y-116016500D01*
X184562500Y-111000000D02*
X184562500Y-111601500D01*
X184162500Y-112001500D02*
X183248500Y-112001500D01*
X184562500Y-111601500D02*
X184162500Y-112001500D01*
X182562500Y-112687500D02*
X183248500Y-112001500D01*
X182437500Y-117000000D02*
X182250000Y-117187500D01*
X184562500Y-117000000D02*
X182437500Y-117000000D01*
X184562500Y-111000000D02*
X184533000Y-111000000D01*
X184562500Y-111000000D02*
X184562500Y-110775500D01*
X184562500Y-110775500D02*
X183388000Y-109601000D01*
X183388000Y-109601000D02*
X180721000Y-109601000D01*
X180721000Y-109601000D02*
X177927000Y-109601000D01*
X177927000Y-109601000D02*
X177546000Y-109982000D01*
X174775000Y-115339000D02*
X174752000Y-115316000D01*
X174775000Y-116500000D02*
X174775000Y-115339000D01*
X188850000Y-113050000D02*
X189000000Y-112900000D01*
X186600000Y-113050000D02*
X188850000Y-113050000D01*
X193100000Y-115050000D02*
X193100000Y-114344000D01*
X193100000Y-114344000D02*
X192786000Y-114030000D01*
X190130000Y-114030000D02*
X189000000Y-112900000D01*
X192786000Y-114030000D02*
X190130000Y-114030000D01*
X193414000Y-114030000D02*
X193100000Y-114344000D01*
X195596000Y-114030000D02*
X193414000Y-114030000D01*
X201000000Y-112550000D02*
X197076000Y-112550000D01*
X197076000Y-112550000D02*
X195596000Y-114030000D01*
X193187500Y-110500000D02*
X194320000Y-110500000D01*
X194320000Y-110500000D02*
X194701000Y-110500000D01*
X194701000Y-110500000D02*
X195316000Y-110500000D01*
X195316000Y-110500000D02*
X196500000Y-110500000D01*
X189600000Y-123750000D02*
X189000000Y-123150000D01*
X192250000Y-123750000D02*
X189600000Y-123750000D01*
X186250000Y-120400000D02*
X189000000Y-123150000D01*
X186250000Y-120100000D02*
X186250000Y-120400000D01*
X184600000Y-121750000D02*
X186250000Y-120100000D01*
X182700000Y-121750000D02*
X184600000Y-121750000D01*
X182753000Y-121803000D02*
X182700000Y-121750000D01*
X182753000Y-123571000D02*
X182753000Y-121803000D01*
X192250000Y-119750000D02*
X194172000Y-119750000D01*
X196872000Y-122450000D02*
X194172000Y-119750000D01*
X201000000Y-122450000D02*
X196872000Y-122450000D01*
X190900000Y-115050000D02*
X191520000Y-115050000D01*
X194183000Y-115935000D02*
X194183000Y-115951000D01*
X191520000Y-115050000D02*
X192405000Y-115935000D01*
X194183000Y-115951000D02*
X195072000Y-116840000D01*
X195072000Y-118850000D02*
X194172000Y-119750000D01*
X195072000Y-116840000D02*
X195072000Y-118850000D01*
X192405000Y-115935000D02*
X194183000Y-115935000D01*
X178175000Y-110750000D02*
X177546000Y-111379000D01*
X179000000Y-110750000D02*
X178175000Y-110750000D01*
D26*
X186250000Y-123400000D02*
X186250000Y-125036000D01*
X186250000Y-125036000D02*
X186309000Y-125095000D01*
X187437500Y-114000000D02*
X188750000Y-115312500D01*
X186600000Y-114000000D02*
X187437500Y-114000000D01*
X186600000Y-116837500D02*
X186437500Y-117000000D01*
X186600000Y-114950000D02*
X186600000Y-116837500D01*
X193100000Y-116950000D02*
X193100000Y-117154000D01*
X193100000Y-117154000D02*
X194056000Y-118110000D01*
X186437500Y-117000000D02*
X186437500Y-118616500D01*
X186437500Y-118616500D02*
X186309000Y-118745000D01*
X191312500Y-110500000D02*
X191312500Y-110651500D01*
X193187500Y-112526500D02*
X193187500Y-112750000D01*
X191312500Y-110651500D02*
X193187500Y-112526500D01*
X193187500Y-112750000D02*
X194463000Y-112750000D01*
X194463000Y-112750000D02*
X194818000Y-112395000D01*
X190900000Y-116950000D02*
X190900000Y-117583000D01*
X190900000Y-117583000D02*
X190246000Y-118237000D01*
X177437500Y-117500000D02*
X177750000Y-117187500D01*
X174775000Y-117500000D02*
X177437500Y-117500000D01*
X180000000Y-115312500D02*
X182250000Y-115312500D01*
X183167500Y-115312500D02*
X183530000Y-114950000D01*
X182250000Y-115312500D02*
X183167500Y-115312500D01*
X184400000Y-114950000D02*
X183530000Y-114950000D01*
X175750000Y-113312500D02*
X177750000Y-115312500D01*
X175750000Y-112687500D02*
X175750000Y-113312500D01*
X175812500Y-112750000D02*
X175750000Y-112687500D01*
X178050000Y-112750000D02*
X175812500Y-112750000D01*
G36*
X176511006Y-109692936D02*
G01*
X176450000Y-109686928D01*
X176035750Y-109690000D01*
X175877000Y-109848750D01*
X175877000Y-110685500D01*
X175897000Y-110685500D01*
X175897000Y-110939500D01*
X175877000Y-110939500D01*
X175877000Y-110959500D01*
X175623000Y-110959500D01*
X175623000Y-110939500D01*
X174573750Y-110939500D01*
X174415000Y-111098250D01*
X174411928Y-111300000D01*
X174424188Y-111424482D01*
X174460498Y-111544180D01*
X174519463Y-111654494D01*
X174598815Y-111751185D01*
X174682869Y-111820166D01*
X174675892Y-111825892D01*
X174567226Y-111958302D01*
X174486480Y-112109368D01*
X174436756Y-112273283D01*
X174419967Y-112443750D01*
X174419967Y-112931250D01*
X174436756Y-113101717D01*
X174486480Y-113265632D01*
X174567226Y-113416698D01*
X174675892Y-113549108D01*
X174808302Y-113657774D01*
X174959368Y-113738520D01*
X175123283Y-113788244D01*
X175168698Y-113792717D01*
X175182000Y-113808925D01*
X175214263Y-113848238D01*
X175243033Y-113871849D01*
X176421757Y-115050574D01*
X176419967Y-115068750D01*
X176419967Y-115556250D01*
X176436756Y-115726717D01*
X176486480Y-115890632D01*
X176567226Y-116041698D01*
X176675892Y-116174108D01*
X176768367Y-116250000D01*
X176675892Y-116325892D01*
X176567226Y-116458302D01*
X176486480Y-116609368D01*
X176445032Y-116746000D01*
X176180033Y-116746000D01*
X176180033Y-116200000D01*
X176167927Y-116077087D01*
X176132075Y-115958897D01*
X176073853Y-115849972D01*
X175995501Y-115754499D01*
X175900028Y-115676147D01*
X175791103Y-115617925D01*
X175784815Y-115616018D01*
X175823500Y-115421534D01*
X175823500Y-115210466D01*
X175782323Y-115003455D01*
X175701551Y-114808454D01*
X175584289Y-114632958D01*
X175435042Y-114483711D01*
X175259546Y-114366449D01*
X175064545Y-114285677D01*
X174857534Y-114244500D01*
X174646466Y-114244500D01*
X174439455Y-114285677D01*
X174244454Y-114366449D01*
X174068958Y-114483711D01*
X173919711Y-114632958D01*
X173802449Y-114808454D01*
X173721677Y-115003455D01*
X173680500Y-115210466D01*
X173680500Y-115421534D01*
X173721677Y-115628545D01*
X173724822Y-115636138D01*
X173649972Y-115676147D01*
X173554499Y-115754499D01*
X173476147Y-115849972D01*
X173417925Y-115958897D01*
X173382073Y-116077087D01*
X173369967Y-116200000D01*
X173369967Y-116800000D01*
X173382073Y-116922913D01*
X173405457Y-117000000D01*
X173382073Y-117077087D01*
X173369967Y-117200000D01*
X173369967Y-117800000D01*
X173382073Y-117922913D01*
X173401276Y-117986219D01*
X173374188Y-118075518D01*
X173361928Y-118200000D01*
X173365000Y-118214250D01*
X173523750Y-118373000D01*
X173741919Y-118373000D01*
X173758897Y-118382075D01*
X173877087Y-118417927D01*
X174000000Y-118430033D01*
X175550000Y-118430033D01*
X175672913Y-118417927D01*
X175791103Y-118382075D01*
X175808081Y-118373000D01*
X176026250Y-118373000D01*
X176145250Y-118254000D01*
X177010398Y-118254000D01*
X177123283Y-118288244D01*
X177293750Y-118305033D01*
X178206250Y-118305033D01*
X178376717Y-118288244D01*
X178540632Y-118238520D01*
X178691698Y-118157774D01*
X178801074Y-118068012D01*
X178848815Y-118126185D01*
X178945506Y-118205537D01*
X179055820Y-118264502D01*
X179175518Y-118300812D01*
X179300000Y-118313072D01*
X179714250Y-118310000D01*
X179873000Y-118151250D01*
X179873000Y-117314500D01*
X179853000Y-117314500D01*
X179853000Y-117060500D01*
X179873000Y-117060500D01*
X179873000Y-117040500D01*
X180127000Y-117040500D01*
X180127000Y-117060500D01*
X180147000Y-117060500D01*
X180147000Y-117314500D01*
X180127000Y-117314500D01*
X180127000Y-118151250D01*
X180285750Y-118310000D01*
X180700000Y-118313072D01*
X180824482Y-118300812D01*
X180944180Y-118264502D01*
X181054494Y-118205537D01*
X181151185Y-118126185D01*
X181198926Y-118068012D01*
X181308302Y-118157774D01*
X181459368Y-118238520D01*
X181623283Y-118288244D01*
X181793750Y-118305033D01*
X182706250Y-118305033D01*
X182876717Y-118288244D01*
X183040632Y-118238520D01*
X183191698Y-118157774D01*
X183324108Y-118049108D01*
X183432774Y-117916698D01*
X183485796Y-117817500D01*
X183525841Y-117817500D01*
X183592226Y-117941698D01*
X183700892Y-118074108D01*
X183833302Y-118182774D01*
X183984368Y-118263520D01*
X184148283Y-118313244D01*
X184318750Y-118330033D01*
X184806250Y-118330033D01*
X184976717Y-118313244D01*
X185140632Y-118263520D01*
X185291698Y-118182774D01*
X185424108Y-118074108D01*
X185500000Y-117981633D01*
X185525709Y-118012960D01*
X185476711Y-118061958D01*
X185359449Y-118237454D01*
X185278677Y-118432455D01*
X185237500Y-118639466D01*
X185237500Y-118850534D01*
X185278677Y-119057545D01*
X185305802Y-119123031D01*
X185299972Y-119126147D01*
X185204499Y-119204499D01*
X185126147Y-119299972D01*
X185067925Y-119408897D01*
X185032073Y-119527087D01*
X185019967Y-119650000D01*
X185019967Y-120173913D01*
X184709067Y-120484813D01*
X184688920Y-120468279D01*
X184536774Y-120386956D01*
X184371686Y-120336877D01*
X184200000Y-120319967D01*
X181200000Y-120319967D01*
X181028314Y-120336877D01*
X180863226Y-120386956D01*
X180711080Y-120468279D01*
X180577723Y-120577723D01*
X180468279Y-120711080D01*
X180386956Y-120863226D01*
X180336877Y-121028314D01*
X180319967Y-121200000D01*
X180319967Y-122300000D01*
X180336877Y-122471686D01*
X180386956Y-122636774D01*
X180468279Y-122788920D01*
X180577723Y-122922277D01*
X180711080Y-123031721D01*
X180863226Y-123113044D01*
X181028314Y-123163123D01*
X181200000Y-123180033D01*
X181755160Y-123180033D01*
X181722677Y-123258455D01*
X181681500Y-123465466D01*
X181681500Y-123676534D01*
X181722677Y-123883545D01*
X181803449Y-124078546D01*
X181920711Y-124254042D01*
X182069958Y-124403289D01*
X182245454Y-124520551D01*
X182440455Y-124601323D01*
X182647466Y-124642500D01*
X182858534Y-124642500D01*
X183065545Y-124601323D01*
X183260546Y-124520551D01*
X183436042Y-124403289D01*
X183585289Y-124254042D01*
X183702551Y-124078546D01*
X183783323Y-123883545D01*
X183824500Y-123676534D01*
X183824500Y-123465466D01*
X183783323Y-123258455D01*
X183750840Y-123180033D01*
X184200000Y-123180033D01*
X184371686Y-123163123D01*
X184536774Y-123113044D01*
X184688920Y-123031721D01*
X184822277Y-122922277D01*
X184931721Y-122788920D01*
X185013044Y-122636774D01*
X185063123Y-122471686D01*
X185067860Y-122423590D01*
X185180856Y-122330856D01*
X185206454Y-122299665D01*
X186100000Y-121406119D01*
X187049049Y-122355168D01*
X186972913Y-122332073D01*
X186850000Y-122319967D01*
X185650000Y-122319967D01*
X185527087Y-122332073D01*
X185408897Y-122367925D01*
X185299972Y-122426147D01*
X185204499Y-122504499D01*
X185126147Y-122599972D01*
X185067925Y-122708897D01*
X185032073Y-122827087D01*
X185019967Y-122950000D01*
X185019967Y-123850000D01*
X185032073Y-123972913D01*
X185067925Y-124091103D01*
X185126147Y-124200028D01*
X185204499Y-124295501D01*
X185299972Y-124373853D01*
X185408897Y-124432075D01*
X185454106Y-124445789D01*
X185359449Y-124587454D01*
X185278677Y-124782455D01*
X185237500Y-124989466D01*
X185237500Y-125200534D01*
X185261860Y-125323000D01*
X173974793Y-125323000D01*
X174106470Y-125125932D01*
X174285653Y-124693345D01*
X174377000Y-124234114D01*
X174377000Y-123765886D01*
X174285653Y-123306655D01*
X174106470Y-122874068D01*
X173889935Y-122550000D01*
X174911928Y-122550000D01*
X174924188Y-122674482D01*
X174960498Y-122794180D01*
X175019463Y-122904494D01*
X175098815Y-123001185D01*
X175195506Y-123080537D01*
X175305820Y-123139502D01*
X175425518Y-123175812D01*
X175550000Y-123188072D01*
X177014250Y-123185000D01*
X177173000Y-123026250D01*
X177173000Y-121877000D01*
X177427000Y-121877000D01*
X177427000Y-123026250D01*
X177585750Y-123185000D01*
X179050000Y-123188072D01*
X179174482Y-123175812D01*
X179294180Y-123139502D01*
X179404494Y-123080537D01*
X179501185Y-123001185D01*
X179580537Y-122904494D01*
X179639502Y-122794180D01*
X179675812Y-122674482D01*
X179688072Y-122550000D01*
X179685000Y-122035750D01*
X179526250Y-121877000D01*
X177427000Y-121877000D01*
X177173000Y-121877000D01*
X175073750Y-121877000D01*
X174915000Y-122035750D01*
X174911928Y-122550000D01*
X173889935Y-122550000D01*
X173846336Y-122484751D01*
X173515249Y-122153664D01*
X173125932Y-121893530D01*
X172693345Y-121714347D01*
X172234114Y-121623000D01*
X171765886Y-121623000D01*
X171306655Y-121714347D01*
X170874068Y-121893530D01*
X170677000Y-122025207D01*
X170677000Y-121030033D01*
X171800000Y-121030033D01*
X171922913Y-121017927D01*
X172041103Y-120982075D01*
X172101110Y-120950000D01*
X174911928Y-120950000D01*
X174915000Y-121464250D01*
X175073750Y-121623000D01*
X177173000Y-121623000D01*
X177173000Y-120473750D01*
X177427000Y-120473750D01*
X177427000Y-121623000D01*
X179526250Y-121623000D01*
X179685000Y-121464250D01*
X179688072Y-120950000D01*
X179675812Y-120825518D01*
X179639502Y-120705820D01*
X179580537Y-120595506D01*
X179501185Y-120498815D01*
X179404494Y-120419463D01*
X179294180Y-120360498D01*
X179174482Y-120324188D01*
X179050000Y-120311928D01*
X177585750Y-120315000D01*
X177427000Y-120473750D01*
X177173000Y-120473750D01*
X177014250Y-120315000D01*
X175550000Y-120311928D01*
X175425518Y-120324188D01*
X175305820Y-120360498D01*
X175195506Y-120419463D01*
X175098815Y-120498815D01*
X175019463Y-120595506D01*
X174960498Y-120705820D01*
X174924188Y-120825518D01*
X174911928Y-120950000D01*
X172101110Y-120950000D01*
X172150028Y-120923853D01*
X172245501Y-120845501D01*
X172323853Y-120750028D01*
X172382075Y-120641103D01*
X172417927Y-120522913D01*
X172430033Y-120400000D01*
X172430033Y-119200000D01*
X172417927Y-119077087D01*
X172382075Y-118958897D01*
X172323853Y-118849972D01*
X172282843Y-118800000D01*
X173361928Y-118800000D01*
X173374188Y-118924482D01*
X173410498Y-119044180D01*
X173469463Y-119154494D01*
X173548815Y-119251185D01*
X173645506Y-119330537D01*
X173755820Y-119389502D01*
X173875518Y-119425812D01*
X174000000Y-119438072D01*
X174489250Y-119435000D01*
X174648000Y-119276250D01*
X174648000Y-118627000D01*
X174902000Y-118627000D01*
X174902000Y-119276250D01*
X175060750Y-119435000D01*
X175550000Y-119438072D01*
X175674482Y-119425812D01*
X175794180Y-119389502D01*
X175904494Y-119330537D01*
X176001185Y-119251185D01*
X176080537Y-119154494D01*
X176139502Y-119044180D01*
X176175812Y-118924482D01*
X176188072Y-118800000D01*
X176185000Y-118785750D01*
X176026250Y-118627000D01*
X174902000Y-118627000D01*
X174648000Y-118627000D01*
X173523750Y-118627000D01*
X173365000Y-118785750D01*
X173361928Y-118800000D01*
X172282843Y-118800000D01*
X172245501Y-118754499D01*
X172150028Y-118676147D01*
X172041103Y-118617925D01*
X171922913Y-118582073D01*
X171800000Y-118569967D01*
X170677000Y-118569967D01*
X170677000Y-116430033D01*
X171800000Y-116430033D01*
X171922913Y-116417927D01*
X172041103Y-116382075D01*
X172150028Y-116323853D01*
X172245501Y-116245501D01*
X172323853Y-116150028D01*
X172382075Y-116041103D01*
X172417927Y-115922913D01*
X172430033Y-115800000D01*
X172430033Y-114600000D01*
X172417927Y-114477087D01*
X172382075Y-114358897D01*
X172323853Y-114249972D01*
X172245501Y-114154499D01*
X172150028Y-114076147D01*
X172041103Y-114017925D01*
X171922913Y-113982073D01*
X171800000Y-113969967D01*
X170677000Y-113969967D01*
X170677000Y-112974793D01*
X170874068Y-113106470D01*
X171306655Y-113285653D01*
X171765886Y-113377000D01*
X172234114Y-113377000D01*
X172693345Y-113285653D01*
X173125932Y-113106470D01*
X173515249Y-112846336D01*
X173846336Y-112515249D01*
X174106470Y-112125932D01*
X174285653Y-111693345D01*
X174377000Y-111234114D01*
X174377000Y-110765886D01*
X174289303Y-110325000D01*
X174411928Y-110325000D01*
X174415000Y-110526750D01*
X174573750Y-110685500D01*
X175623000Y-110685500D01*
X175623000Y-109848750D01*
X175464250Y-109690000D01*
X175050000Y-109686928D01*
X174925518Y-109699188D01*
X174805820Y-109735498D01*
X174695506Y-109794463D01*
X174598815Y-109873815D01*
X174519463Y-109970506D01*
X174460498Y-110080820D01*
X174424188Y-110200518D01*
X174411928Y-110325000D01*
X174289303Y-110325000D01*
X174285653Y-110306655D01*
X174106470Y-109874068D01*
X173974793Y-109677000D01*
X176514176Y-109677000D01*
X176511006Y-109692936D01*
X176511006Y-109692936D01*
G37*
X176511006Y-109692936D02*
X176450000Y-109686928D01*
X176035750Y-109690000D01*
X175877000Y-109848750D01*
X175877000Y-110685500D01*
X175897000Y-110685500D01*
X175897000Y-110939500D01*
X175877000Y-110939500D01*
X175877000Y-110959500D01*
X175623000Y-110959500D01*
X175623000Y-110939500D01*
X174573750Y-110939500D01*
X174415000Y-111098250D01*
X174411928Y-111300000D01*
X174424188Y-111424482D01*
X174460498Y-111544180D01*
X174519463Y-111654494D01*
X174598815Y-111751185D01*
X174682869Y-111820166D01*
X174675892Y-111825892D01*
X174567226Y-111958302D01*
X174486480Y-112109368D01*
X174436756Y-112273283D01*
X174419967Y-112443750D01*
X174419967Y-112931250D01*
X174436756Y-113101717D01*
X174486480Y-113265632D01*
X174567226Y-113416698D01*
X174675892Y-113549108D01*
X174808302Y-113657774D01*
X174959368Y-113738520D01*
X175123283Y-113788244D01*
X175168698Y-113792717D01*
X175182000Y-113808925D01*
X175214263Y-113848238D01*
X175243033Y-113871849D01*
X176421757Y-115050574D01*
X176419967Y-115068750D01*
X176419967Y-115556250D01*
X176436756Y-115726717D01*
X176486480Y-115890632D01*
X176567226Y-116041698D01*
X176675892Y-116174108D01*
X176768367Y-116250000D01*
X176675892Y-116325892D01*
X176567226Y-116458302D01*
X176486480Y-116609368D01*
X176445032Y-116746000D01*
X176180033Y-116746000D01*
X176180033Y-116200000D01*
X176167927Y-116077087D01*
X176132075Y-115958897D01*
X176073853Y-115849972D01*
X175995501Y-115754499D01*
X175900028Y-115676147D01*
X175791103Y-115617925D01*
X175784815Y-115616018D01*
X175823500Y-115421534D01*
X175823500Y-115210466D01*
X175782323Y-115003455D01*
X175701551Y-114808454D01*
X175584289Y-114632958D01*
X175435042Y-114483711D01*
X175259546Y-114366449D01*
X175064545Y-114285677D01*
X174857534Y-114244500D01*
X174646466Y-114244500D01*
X174439455Y-114285677D01*
X174244454Y-114366449D01*
X174068958Y-114483711D01*
X173919711Y-114632958D01*
X173802449Y-114808454D01*
X173721677Y-115003455D01*
X173680500Y-115210466D01*
X173680500Y-115421534D01*
X173721677Y-115628545D01*
X173724822Y-115636138D01*
X173649972Y-115676147D01*
X173554499Y-115754499D01*
X173476147Y-115849972D01*
X173417925Y-115958897D01*
X173382073Y-116077087D01*
X173369967Y-116200000D01*
X173369967Y-116800000D01*
X173382073Y-116922913D01*
X173405457Y-117000000D01*
X173382073Y-117077087D01*
X173369967Y-117200000D01*
X173369967Y-117800000D01*
X173382073Y-117922913D01*
X173401276Y-117986219D01*
X173374188Y-118075518D01*
X173361928Y-118200000D01*
X173365000Y-118214250D01*
X173523750Y-118373000D01*
X173741919Y-118373000D01*
X173758897Y-118382075D01*
X173877087Y-118417927D01*
X174000000Y-118430033D01*
X175550000Y-118430033D01*
X175672913Y-118417927D01*
X175791103Y-118382075D01*
X175808081Y-118373000D01*
X176026250Y-118373000D01*
X176145250Y-118254000D01*
X177010398Y-118254000D01*
X177123283Y-118288244D01*
X177293750Y-118305033D01*
X178206250Y-118305033D01*
X178376717Y-118288244D01*
X178540632Y-118238520D01*
X178691698Y-118157774D01*
X178801074Y-118068012D01*
X178848815Y-118126185D01*
X178945506Y-118205537D01*
X179055820Y-118264502D01*
X179175518Y-118300812D01*
X179300000Y-118313072D01*
X179714250Y-118310000D01*
X179873000Y-118151250D01*
X179873000Y-117314500D01*
X179853000Y-117314500D01*
X179853000Y-117060500D01*
X179873000Y-117060500D01*
X179873000Y-117040500D01*
X180127000Y-117040500D01*
X180127000Y-117060500D01*
X180147000Y-117060500D01*
X180147000Y-117314500D01*
X180127000Y-117314500D01*
X180127000Y-118151250D01*
X180285750Y-118310000D01*
X180700000Y-118313072D01*
X180824482Y-118300812D01*
X180944180Y-118264502D01*
X181054494Y-118205537D01*
X181151185Y-118126185D01*
X181198926Y-118068012D01*
X181308302Y-118157774D01*
X181459368Y-118238520D01*
X181623283Y-118288244D01*
X181793750Y-118305033D01*
X182706250Y-118305033D01*
X182876717Y-118288244D01*
X183040632Y-118238520D01*
X183191698Y-118157774D01*
X183324108Y-118049108D01*
X183432774Y-117916698D01*
X183485796Y-117817500D01*
X183525841Y-117817500D01*
X183592226Y-117941698D01*
X183700892Y-118074108D01*
X183833302Y-118182774D01*
X183984368Y-118263520D01*
X184148283Y-118313244D01*
X184318750Y-118330033D01*
X184806250Y-118330033D01*
X184976717Y-118313244D01*
X185140632Y-118263520D01*
X185291698Y-118182774D01*
X185424108Y-118074108D01*
X185500000Y-117981633D01*
X185525709Y-118012960D01*
X185476711Y-118061958D01*
X185359449Y-118237454D01*
X185278677Y-118432455D01*
X185237500Y-118639466D01*
X185237500Y-118850534D01*
X185278677Y-119057545D01*
X185305802Y-119123031D01*
X185299972Y-119126147D01*
X185204499Y-119204499D01*
X185126147Y-119299972D01*
X185067925Y-119408897D01*
X185032073Y-119527087D01*
X185019967Y-119650000D01*
X185019967Y-120173913D01*
X184709067Y-120484813D01*
X184688920Y-120468279D01*
X184536774Y-120386956D01*
X184371686Y-120336877D01*
X184200000Y-120319967D01*
X181200000Y-120319967D01*
X181028314Y-120336877D01*
X180863226Y-120386956D01*
X180711080Y-120468279D01*
X180577723Y-120577723D01*
X180468279Y-120711080D01*
X180386956Y-120863226D01*
X180336877Y-121028314D01*
X180319967Y-121200000D01*
X180319967Y-122300000D01*
X180336877Y-122471686D01*
X180386956Y-122636774D01*
X180468279Y-122788920D01*
X180577723Y-122922277D01*
X180711080Y-123031721D01*
X180863226Y-123113044D01*
X181028314Y-123163123D01*
X181200000Y-123180033D01*
X181755160Y-123180033D01*
X181722677Y-123258455D01*
X181681500Y-123465466D01*
X181681500Y-123676534D01*
X181722677Y-123883545D01*
X181803449Y-124078546D01*
X181920711Y-124254042D01*
X182069958Y-124403289D01*
X182245454Y-124520551D01*
X182440455Y-124601323D01*
X182647466Y-124642500D01*
X182858534Y-124642500D01*
X183065545Y-124601323D01*
X183260546Y-124520551D01*
X183436042Y-124403289D01*
X183585289Y-124254042D01*
X183702551Y-124078546D01*
X183783323Y-123883545D01*
X183824500Y-123676534D01*
X183824500Y-123465466D01*
X183783323Y-123258455D01*
X183750840Y-123180033D01*
X184200000Y-123180033D01*
X184371686Y-123163123D01*
X184536774Y-123113044D01*
X184688920Y-123031721D01*
X184822277Y-122922277D01*
X184931721Y-122788920D01*
X185013044Y-122636774D01*
X185063123Y-122471686D01*
X185067860Y-122423590D01*
X185180856Y-122330856D01*
X185206454Y-122299665D01*
X186100000Y-121406119D01*
X187049049Y-122355168D01*
X186972913Y-122332073D01*
X186850000Y-122319967D01*
X185650000Y-122319967D01*
X185527087Y-122332073D01*
X185408897Y-122367925D01*
X185299972Y-122426147D01*
X185204499Y-122504499D01*
X185126147Y-122599972D01*
X185067925Y-122708897D01*
X185032073Y-122827087D01*
X185019967Y-122950000D01*
X185019967Y-123850000D01*
X185032073Y-123972913D01*
X185067925Y-124091103D01*
X185126147Y-124200028D01*
X185204499Y-124295501D01*
X185299972Y-124373853D01*
X185408897Y-124432075D01*
X185454106Y-124445789D01*
X185359449Y-124587454D01*
X185278677Y-124782455D01*
X185237500Y-124989466D01*
X185237500Y-125200534D01*
X185261860Y-125323000D01*
X173974793Y-125323000D01*
X174106470Y-125125932D01*
X174285653Y-124693345D01*
X174377000Y-124234114D01*
X174377000Y-123765886D01*
X174285653Y-123306655D01*
X174106470Y-122874068D01*
X173889935Y-122550000D01*
X174911928Y-122550000D01*
X174924188Y-122674482D01*
X174960498Y-122794180D01*
X175019463Y-122904494D01*
X175098815Y-123001185D01*
X175195506Y-123080537D01*
X175305820Y-123139502D01*
X175425518Y-123175812D01*
X175550000Y-123188072D01*
X177014250Y-123185000D01*
X177173000Y-123026250D01*
X177173000Y-121877000D01*
X177427000Y-121877000D01*
X177427000Y-123026250D01*
X177585750Y-123185000D01*
X179050000Y-123188072D01*
X179174482Y-123175812D01*
X179294180Y-123139502D01*
X179404494Y-123080537D01*
X179501185Y-123001185D01*
X179580537Y-122904494D01*
X179639502Y-122794180D01*
X179675812Y-122674482D01*
X179688072Y-122550000D01*
X179685000Y-122035750D01*
X179526250Y-121877000D01*
X177427000Y-121877000D01*
X177173000Y-121877000D01*
X175073750Y-121877000D01*
X174915000Y-122035750D01*
X174911928Y-122550000D01*
X173889935Y-122550000D01*
X173846336Y-122484751D01*
X173515249Y-122153664D01*
X173125932Y-121893530D01*
X172693345Y-121714347D01*
X172234114Y-121623000D01*
X171765886Y-121623000D01*
X171306655Y-121714347D01*
X170874068Y-121893530D01*
X170677000Y-122025207D01*
X170677000Y-121030033D01*
X171800000Y-121030033D01*
X171922913Y-121017927D01*
X172041103Y-120982075D01*
X172101110Y-120950000D01*
X174911928Y-120950000D01*
X174915000Y-121464250D01*
X175073750Y-121623000D01*
X177173000Y-121623000D01*
X177173000Y-120473750D01*
X177427000Y-120473750D01*
X177427000Y-121623000D01*
X179526250Y-121623000D01*
X179685000Y-121464250D01*
X179688072Y-120950000D01*
X179675812Y-120825518D01*
X179639502Y-120705820D01*
X179580537Y-120595506D01*
X179501185Y-120498815D01*
X179404494Y-120419463D01*
X179294180Y-120360498D01*
X179174482Y-120324188D01*
X179050000Y-120311928D01*
X177585750Y-120315000D01*
X177427000Y-120473750D01*
X177173000Y-120473750D01*
X177014250Y-120315000D01*
X175550000Y-120311928D01*
X175425518Y-120324188D01*
X175305820Y-120360498D01*
X175195506Y-120419463D01*
X175098815Y-120498815D01*
X175019463Y-120595506D01*
X174960498Y-120705820D01*
X174924188Y-120825518D01*
X174911928Y-120950000D01*
X172101110Y-120950000D01*
X172150028Y-120923853D01*
X172245501Y-120845501D01*
X172323853Y-120750028D01*
X172382075Y-120641103D01*
X172417927Y-120522913D01*
X172430033Y-120400000D01*
X172430033Y-119200000D01*
X172417927Y-119077087D01*
X172382075Y-118958897D01*
X172323853Y-118849972D01*
X172282843Y-118800000D01*
X173361928Y-118800000D01*
X173374188Y-118924482D01*
X173410498Y-119044180D01*
X173469463Y-119154494D01*
X173548815Y-119251185D01*
X173645506Y-119330537D01*
X173755820Y-119389502D01*
X173875518Y-119425812D01*
X174000000Y-119438072D01*
X174489250Y-119435000D01*
X174648000Y-119276250D01*
X174648000Y-118627000D01*
X174902000Y-118627000D01*
X174902000Y-119276250D01*
X175060750Y-119435000D01*
X175550000Y-119438072D01*
X175674482Y-119425812D01*
X175794180Y-119389502D01*
X175904494Y-119330537D01*
X176001185Y-119251185D01*
X176080537Y-119154494D01*
X176139502Y-119044180D01*
X176175812Y-118924482D01*
X176188072Y-118800000D01*
X176185000Y-118785750D01*
X176026250Y-118627000D01*
X174902000Y-118627000D01*
X174648000Y-118627000D01*
X173523750Y-118627000D01*
X173365000Y-118785750D01*
X173361928Y-118800000D01*
X172282843Y-118800000D01*
X172245501Y-118754499D01*
X172150028Y-118676147D01*
X172041103Y-118617925D01*
X171922913Y-118582073D01*
X171800000Y-118569967D01*
X170677000Y-118569967D01*
X170677000Y-116430033D01*
X171800000Y-116430033D01*
X171922913Y-116417927D01*
X172041103Y-116382075D01*
X172150028Y-116323853D01*
X172245501Y-116245501D01*
X172323853Y-116150028D01*
X172382075Y-116041103D01*
X172417927Y-115922913D01*
X172430033Y-115800000D01*
X172430033Y-114600000D01*
X172417927Y-114477087D01*
X172382075Y-114358897D01*
X172323853Y-114249972D01*
X172245501Y-114154499D01*
X172150028Y-114076147D01*
X172041103Y-114017925D01*
X171922913Y-113982073D01*
X171800000Y-113969967D01*
X170677000Y-113969967D01*
X170677000Y-112974793D01*
X170874068Y-113106470D01*
X171306655Y-113285653D01*
X171765886Y-113377000D01*
X172234114Y-113377000D01*
X172693345Y-113285653D01*
X173125932Y-113106470D01*
X173515249Y-112846336D01*
X173846336Y-112515249D01*
X174106470Y-112125932D01*
X174285653Y-111693345D01*
X174377000Y-111234114D01*
X174377000Y-110765886D01*
X174289303Y-110325000D01*
X174411928Y-110325000D01*
X174415000Y-110526750D01*
X174573750Y-110685500D01*
X175623000Y-110685500D01*
X175623000Y-109848750D01*
X175464250Y-109690000D01*
X175050000Y-109686928D01*
X174925518Y-109699188D01*
X174805820Y-109735498D01*
X174695506Y-109794463D01*
X174598815Y-109873815D01*
X174519463Y-109970506D01*
X174460498Y-110080820D01*
X174424188Y-110200518D01*
X174411928Y-110325000D01*
X174289303Y-110325000D01*
X174285653Y-110306655D01*
X174106470Y-109874068D01*
X173974793Y-109677000D01*
X176514176Y-109677000D01*
X176511006Y-109692936D01*
G36*
X207893530Y-109874068D02*
G01*
X207714347Y-110306655D01*
X207623000Y-110765886D01*
X207623000Y-111234114D01*
X207714347Y-111693345D01*
X207893530Y-112125932D01*
X208153664Y-112515249D01*
X208484751Y-112846336D01*
X208874068Y-113106470D01*
X209306655Y-113285653D01*
X209765886Y-113377000D01*
X210234114Y-113377000D01*
X210693345Y-113285653D01*
X211125932Y-113106470D01*
X211323001Y-112974792D01*
X211323001Y-114738008D01*
X211295501Y-114704499D01*
X211200028Y-114626147D01*
X211091103Y-114567925D01*
X210972913Y-114532073D01*
X210850000Y-114519967D01*
X209150000Y-114519967D01*
X209027087Y-114532073D01*
X208908897Y-114567925D01*
X208799972Y-114626147D01*
X208704499Y-114704499D01*
X208626147Y-114799972D01*
X208567925Y-114908897D01*
X208532073Y-115027087D01*
X208519967Y-115150000D01*
X208519967Y-116850000D01*
X208532073Y-116972913D01*
X208567925Y-117091103D01*
X208626147Y-117200028D01*
X208704499Y-117295501D01*
X208799972Y-117373853D01*
X208908897Y-117432075D01*
X208991332Y-117457081D01*
X208950550Y-117490550D01*
X208765978Y-117715453D01*
X208628828Y-117972042D01*
X208544371Y-118250457D01*
X208515854Y-118540000D01*
X208544371Y-118829543D01*
X208628828Y-119107958D01*
X208765978Y-119364547D01*
X208950550Y-119589450D01*
X209175453Y-119774022D01*
X209432042Y-119911172D01*
X209710457Y-119995629D01*
X209927444Y-120017000D01*
X210072556Y-120017000D01*
X210289543Y-119995629D01*
X210567958Y-119911172D01*
X210824547Y-119774022D01*
X211049450Y-119589450D01*
X211234022Y-119364547D01*
X211323000Y-119198081D01*
X211323000Y-122025207D01*
X211125932Y-121893530D01*
X210693345Y-121714347D01*
X210234114Y-121623000D01*
X209765886Y-121623000D01*
X209306655Y-121714347D01*
X208874068Y-121893530D01*
X208484751Y-122153664D01*
X208153664Y-122484751D01*
X207893530Y-122874068D01*
X207714347Y-123306655D01*
X207623000Y-123765886D01*
X207623000Y-124234114D01*
X207714347Y-124693345D01*
X207893530Y-125125932D01*
X208025207Y-125323000D01*
X193688300Y-125323000D01*
X193732075Y-125241103D01*
X193767927Y-125122913D01*
X193780033Y-125000000D01*
X193780033Y-122500000D01*
X193767927Y-122377087D01*
X193732075Y-122258897D01*
X193673853Y-122149972D01*
X193595501Y-122054499D01*
X193500028Y-121976147D01*
X193391103Y-121917925D01*
X193272913Y-121882073D01*
X193150000Y-121869967D01*
X191350000Y-121869967D01*
X191227087Y-121882073D01*
X191108897Y-121917925D01*
X190999972Y-121976147D01*
X190904499Y-122054499D01*
X190826147Y-122149972D01*
X190767925Y-122258897D01*
X190732073Y-122377087D01*
X190719967Y-122500000D01*
X190719967Y-122932500D01*
X190505033Y-122932500D01*
X190505033Y-122775000D01*
X190488123Y-122603314D01*
X190438044Y-122438226D01*
X190356721Y-122286080D01*
X190247277Y-122152723D01*
X190113920Y-122043279D01*
X189961774Y-121961956D01*
X189796686Y-121911877D01*
X189625000Y-121894967D01*
X188901087Y-121894967D01*
X188616629Y-121610509D01*
X188714250Y-121610000D01*
X188873000Y-121451250D01*
X188873000Y-120477000D01*
X189127000Y-120477000D01*
X189127000Y-121451250D01*
X189285750Y-121610000D01*
X189875000Y-121613072D01*
X189999482Y-121600812D01*
X190119180Y-121564502D01*
X190229494Y-121505537D01*
X190326185Y-121426185D01*
X190405537Y-121329494D01*
X190464502Y-121219180D01*
X190500812Y-121099482D01*
X190513072Y-120975000D01*
X190510000Y-120635750D01*
X190351250Y-120477000D01*
X189127000Y-120477000D01*
X188873000Y-120477000D01*
X187648750Y-120477000D01*
X187565935Y-120559815D01*
X187480033Y-120473914D01*
X187480033Y-119725000D01*
X187486928Y-119725000D01*
X187490000Y-120064250D01*
X187648750Y-120223000D01*
X188873000Y-120223000D01*
X188873000Y-119248750D01*
X188714250Y-119090000D01*
X188125000Y-119086928D01*
X188000518Y-119099188D01*
X187880820Y-119135498D01*
X187770506Y-119194463D01*
X187673815Y-119273815D01*
X187594463Y-119370506D01*
X187535498Y-119480820D01*
X187499188Y-119600518D01*
X187486928Y-119725000D01*
X187480033Y-119725000D01*
X187480033Y-119650000D01*
X187467927Y-119527087D01*
X187432075Y-119408897D01*
X187373853Y-119299972D01*
X187295501Y-119204499D01*
X187282778Y-119194057D01*
X187339323Y-119057545D01*
X187380500Y-118850534D01*
X187380500Y-118639466D01*
X187339323Y-118432455D01*
X187258551Y-118237454D01*
X187202424Y-118153454D01*
X187299108Y-118074108D01*
X187407774Y-117941698D01*
X187445767Y-117870618D01*
X187460498Y-117919180D01*
X187519463Y-118029494D01*
X187598815Y-118126185D01*
X187695506Y-118205537D01*
X187805820Y-118264502D01*
X187925518Y-118300812D01*
X188050000Y-118313072D01*
X188464250Y-118310000D01*
X188623000Y-118151250D01*
X188623000Y-117314500D01*
X188603000Y-117314500D01*
X188603000Y-117060500D01*
X188623000Y-117060500D01*
X188623000Y-117040500D01*
X188877000Y-117040500D01*
X188877000Y-117060500D01*
X188897000Y-117060500D01*
X188897000Y-117314500D01*
X188877000Y-117314500D01*
X188877000Y-118151250D01*
X189035750Y-118310000D01*
X189174500Y-118311029D01*
X189174500Y-118342534D01*
X189215677Y-118549545D01*
X189296449Y-118744546D01*
X189413711Y-118920042D01*
X189562958Y-119069289D01*
X189591568Y-119088406D01*
X189285750Y-119090000D01*
X189127000Y-119248750D01*
X189127000Y-120223000D01*
X190351250Y-120223000D01*
X190510000Y-120064250D01*
X190513072Y-119725000D01*
X190500812Y-119600518D01*
X190464502Y-119480820D01*
X190405537Y-119370506D01*
X190354213Y-119307967D01*
X190558545Y-119267323D01*
X190719967Y-119200460D01*
X190719967Y-121000000D01*
X190732073Y-121122913D01*
X190767925Y-121241103D01*
X190826147Y-121350028D01*
X190904499Y-121445501D01*
X190999972Y-121523853D01*
X191108897Y-121582075D01*
X191227087Y-121617927D01*
X191350000Y-121630033D01*
X193150000Y-121630033D01*
X193272913Y-121617927D01*
X193391103Y-121582075D01*
X193500028Y-121523853D01*
X193595501Y-121445501D01*
X193673853Y-121350028D01*
X193732075Y-121241103D01*
X193767927Y-121122913D01*
X193780033Y-121000000D01*
X193780033Y-120567500D01*
X193833381Y-120567500D01*
X196265546Y-122999665D01*
X196291144Y-123030856D01*
X196415624Y-123133015D01*
X196557643Y-123208925D01*
X196711742Y-123255671D01*
X196831844Y-123267500D01*
X196831852Y-123267500D01*
X196872000Y-123271454D01*
X196912148Y-123267500D01*
X197669967Y-123267500D01*
X197669967Y-123900000D01*
X197682073Y-124022913D01*
X197717925Y-124141103D01*
X197776147Y-124250028D01*
X197854499Y-124345501D01*
X197949972Y-124423853D01*
X198058897Y-124482075D01*
X198177087Y-124517927D01*
X198300000Y-124530033D01*
X203700000Y-124530033D01*
X203822913Y-124517927D01*
X203941103Y-124482075D01*
X204050028Y-124423853D01*
X204145501Y-124345501D01*
X204223853Y-124250028D01*
X204282075Y-124141103D01*
X204317927Y-124022913D01*
X204330033Y-123900000D01*
X204330033Y-121000000D01*
X204317927Y-120877087D01*
X204282075Y-120758897D01*
X204223853Y-120649972D01*
X204145501Y-120554499D01*
X204050028Y-120476147D01*
X203941103Y-120417925D01*
X203822913Y-120382073D01*
X203700000Y-120369967D01*
X198300000Y-120369967D01*
X198177087Y-120382073D01*
X198058897Y-120417925D01*
X197949972Y-120476147D01*
X197854499Y-120554499D01*
X197776147Y-120649972D01*
X197717925Y-120758897D01*
X197682073Y-120877087D01*
X197669967Y-121000000D01*
X197669967Y-121632500D01*
X197210619Y-121632500D01*
X195328119Y-119750000D01*
X195621670Y-119456450D01*
X195652856Y-119430856D01*
X195678450Y-119399670D01*
X195678454Y-119399666D01*
X195755014Y-119306377D01*
X195758438Y-119299972D01*
X195830925Y-119164357D01*
X195877671Y-119010258D01*
X195889500Y-118890156D01*
X195889500Y-118890147D01*
X195893454Y-118850001D01*
X195889500Y-118809855D01*
X195889500Y-116880148D01*
X195893454Y-116840000D01*
X195889500Y-116799852D01*
X195889500Y-116799844D01*
X195877671Y-116679742D01*
X195830925Y-116525643D01*
X195755015Y-116383624D01*
X195711709Y-116330856D01*
X195678454Y-116290334D01*
X195678450Y-116290330D01*
X195652856Y-116259144D01*
X195621671Y-116233551D01*
X194862682Y-115474563D01*
X194763856Y-115354144D01*
X194639376Y-115251985D01*
X194497357Y-115176075D01*
X194343258Y-115129329D01*
X194260033Y-115121132D01*
X194260033Y-114847500D01*
X195555852Y-114847500D01*
X195596000Y-114851454D01*
X195636148Y-114847500D01*
X195636156Y-114847500D01*
X195756258Y-114835671D01*
X195910357Y-114788925D01*
X196052376Y-114713015D01*
X196176856Y-114610856D01*
X196202454Y-114579665D01*
X197414620Y-113367500D01*
X197669967Y-113367500D01*
X197669967Y-114000000D01*
X197682073Y-114122913D01*
X197717925Y-114241103D01*
X197776147Y-114350028D01*
X197854499Y-114445501D01*
X197949972Y-114523853D01*
X198058897Y-114582075D01*
X198177087Y-114617927D01*
X198300000Y-114630033D01*
X203700000Y-114630033D01*
X203822913Y-114617927D01*
X203941103Y-114582075D01*
X204050028Y-114523853D01*
X204145501Y-114445501D01*
X204223853Y-114350028D01*
X204282075Y-114241103D01*
X204317927Y-114122913D01*
X204330033Y-114000000D01*
X204330033Y-111100000D01*
X204317927Y-110977087D01*
X204282075Y-110858897D01*
X204223853Y-110749972D01*
X204145501Y-110654499D01*
X204050028Y-110576147D01*
X203941103Y-110517925D01*
X203822913Y-110482073D01*
X203700000Y-110469967D01*
X198300000Y-110469967D01*
X198177087Y-110482073D01*
X198058897Y-110517925D01*
X197949972Y-110576147D01*
X197854499Y-110654499D01*
X197776147Y-110749972D01*
X197717925Y-110858897D01*
X197682073Y-110977087D01*
X197669967Y-111100000D01*
X197669967Y-111732500D01*
X197116147Y-111732500D01*
X197075999Y-111728546D01*
X197035851Y-111732500D01*
X197035844Y-111732500D01*
X196931277Y-111742799D01*
X196915741Y-111744329D01*
X196893141Y-111751185D01*
X196761643Y-111791075D01*
X196619624Y-111866985D01*
X196583613Y-111896539D01*
X196526334Y-111943546D01*
X196526330Y-111943550D01*
X196495144Y-111969144D01*
X196469550Y-112000330D01*
X195869674Y-112600206D01*
X195889500Y-112500534D01*
X195889500Y-112289466D01*
X195848323Y-112082455D01*
X195767551Y-111887454D01*
X195650289Y-111711958D01*
X195501042Y-111562711D01*
X195325546Y-111445449D01*
X195130545Y-111364677D01*
X194923534Y-111323500D01*
X194712466Y-111323500D01*
X194505455Y-111364677D01*
X194310454Y-111445449D01*
X194134958Y-111562711D01*
X194034097Y-111663572D01*
X193987096Y-111625000D01*
X194049108Y-111574108D01*
X194157774Y-111441698D01*
X194224159Y-111317500D01*
X195802169Y-111317500D01*
X195816958Y-111332289D01*
X195992454Y-111449551D01*
X196187455Y-111530323D01*
X196394466Y-111571500D01*
X196605534Y-111571500D01*
X196812545Y-111530323D01*
X197007546Y-111449551D01*
X197183042Y-111332289D01*
X197332289Y-111183042D01*
X197449551Y-111007546D01*
X197530323Y-110812545D01*
X197571500Y-110605534D01*
X197571500Y-110394466D01*
X197530323Y-110187455D01*
X197449551Y-109992454D01*
X197332289Y-109816958D01*
X197192331Y-109677000D01*
X208025207Y-109677000D01*
X207893530Y-109874068D01*
X207893530Y-109874068D01*
G37*
X207893530Y-109874068D02*
X207714347Y-110306655D01*
X207623000Y-110765886D01*
X207623000Y-111234114D01*
X207714347Y-111693345D01*
X207893530Y-112125932D01*
X208153664Y-112515249D01*
X208484751Y-112846336D01*
X208874068Y-113106470D01*
X209306655Y-113285653D01*
X209765886Y-113377000D01*
X210234114Y-113377000D01*
X210693345Y-113285653D01*
X211125932Y-113106470D01*
X211323001Y-112974792D01*
X211323001Y-114738008D01*
X211295501Y-114704499D01*
X211200028Y-114626147D01*
X211091103Y-114567925D01*
X210972913Y-114532073D01*
X210850000Y-114519967D01*
X209150000Y-114519967D01*
X209027087Y-114532073D01*
X208908897Y-114567925D01*
X208799972Y-114626147D01*
X208704499Y-114704499D01*
X208626147Y-114799972D01*
X208567925Y-114908897D01*
X208532073Y-115027087D01*
X208519967Y-115150000D01*
X208519967Y-116850000D01*
X208532073Y-116972913D01*
X208567925Y-117091103D01*
X208626147Y-117200028D01*
X208704499Y-117295501D01*
X208799972Y-117373853D01*
X208908897Y-117432075D01*
X208991332Y-117457081D01*
X208950550Y-117490550D01*
X208765978Y-117715453D01*
X208628828Y-117972042D01*
X208544371Y-118250457D01*
X208515854Y-118540000D01*
X208544371Y-118829543D01*
X208628828Y-119107958D01*
X208765978Y-119364547D01*
X208950550Y-119589450D01*
X209175453Y-119774022D01*
X209432042Y-119911172D01*
X209710457Y-119995629D01*
X209927444Y-120017000D01*
X210072556Y-120017000D01*
X210289543Y-119995629D01*
X210567958Y-119911172D01*
X210824547Y-119774022D01*
X211049450Y-119589450D01*
X211234022Y-119364547D01*
X211323000Y-119198081D01*
X211323000Y-122025207D01*
X211125932Y-121893530D01*
X210693345Y-121714347D01*
X210234114Y-121623000D01*
X209765886Y-121623000D01*
X209306655Y-121714347D01*
X208874068Y-121893530D01*
X208484751Y-122153664D01*
X208153664Y-122484751D01*
X207893530Y-122874068D01*
X207714347Y-123306655D01*
X207623000Y-123765886D01*
X207623000Y-124234114D01*
X207714347Y-124693345D01*
X207893530Y-125125932D01*
X208025207Y-125323000D01*
X193688300Y-125323000D01*
X193732075Y-125241103D01*
X193767927Y-125122913D01*
X193780033Y-125000000D01*
X193780033Y-122500000D01*
X193767927Y-122377087D01*
X193732075Y-122258897D01*
X193673853Y-122149972D01*
X193595501Y-122054499D01*
X193500028Y-121976147D01*
X193391103Y-121917925D01*
X193272913Y-121882073D01*
X193150000Y-121869967D01*
X191350000Y-121869967D01*
X191227087Y-121882073D01*
X191108897Y-121917925D01*
X190999972Y-121976147D01*
X190904499Y-122054499D01*
X190826147Y-122149972D01*
X190767925Y-122258897D01*
X190732073Y-122377087D01*
X190719967Y-122500000D01*
X190719967Y-122932500D01*
X190505033Y-122932500D01*
X190505033Y-122775000D01*
X190488123Y-122603314D01*
X190438044Y-122438226D01*
X190356721Y-122286080D01*
X190247277Y-122152723D01*
X190113920Y-122043279D01*
X189961774Y-121961956D01*
X189796686Y-121911877D01*
X189625000Y-121894967D01*
X188901087Y-121894967D01*
X188616629Y-121610509D01*
X188714250Y-121610000D01*
X188873000Y-121451250D01*
X188873000Y-120477000D01*
X189127000Y-120477000D01*
X189127000Y-121451250D01*
X189285750Y-121610000D01*
X189875000Y-121613072D01*
X189999482Y-121600812D01*
X190119180Y-121564502D01*
X190229494Y-121505537D01*
X190326185Y-121426185D01*
X190405537Y-121329494D01*
X190464502Y-121219180D01*
X190500812Y-121099482D01*
X190513072Y-120975000D01*
X190510000Y-120635750D01*
X190351250Y-120477000D01*
X189127000Y-120477000D01*
X188873000Y-120477000D01*
X187648750Y-120477000D01*
X187565935Y-120559815D01*
X187480033Y-120473914D01*
X187480033Y-119725000D01*
X187486928Y-119725000D01*
X187490000Y-120064250D01*
X187648750Y-120223000D01*
X188873000Y-120223000D01*
X188873000Y-119248750D01*
X188714250Y-119090000D01*
X188125000Y-119086928D01*
X188000518Y-119099188D01*
X187880820Y-119135498D01*
X187770506Y-119194463D01*
X187673815Y-119273815D01*
X187594463Y-119370506D01*
X187535498Y-119480820D01*
X187499188Y-119600518D01*
X187486928Y-119725000D01*
X187480033Y-119725000D01*
X187480033Y-119650000D01*
X187467927Y-119527087D01*
X187432075Y-119408897D01*
X187373853Y-119299972D01*
X187295501Y-119204499D01*
X187282778Y-119194057D01*
X187339323Y-119057545D01*
X187380500Y-118850534D01*
X187380500Y-118639466D01*
X187339323Y-118432455D01*
X187258551Y-118237454D01*
X187202424Y-118153454D01*
X187299108Y-118074108D01*
X187407774Y-117941698D01*
X187445767Y-117870618D01*
X187460498Y-117919180D01*
X187519463Y-118029494D01*
X187598815Y-118126185D01*
X187695506Y-118205537D01*
X187805820Y-118264502D01*
X187925518Y-118300812D01*
X188050000Y-118313072D01*
X188464250Y-118310000D01*
X188623000Y-118151250D01*
X188623000Y-117314500D01*
X188603000Y-117314500D01*
X188603000Y-117060500D01*
X188623000Y-117060500D01*
X188623000Y-117040500D01*
X188877000Y-117040500D01*
X188877000Y-117060500D01*
X188897000Y-117060500D01*
X188897000Y-117314500D01*
X188877000Y-117314500D01*
X188877000Y-118151250D01*
X189035750Y-118310000D01*
X189174500Y-118311029D01*
X189174500Y-118342534D01*
X189215677Y-118549545D01*
X189296449Y-118744546D01*
X189413711Y-118920042D01*
X189562958Y-119069289D01*
X189591568Y-119088406D01*
X189285750Y-119090000D01*
X189127000Y-119248750D01*
X189127000Y-120223000D01*
X190351250Y-120223000D01*
X190510000Y-120064250D01*
X190513072Y-119725000D01*
X190500812Y-119600518D01*
X190464502Y-119480820D01*
X190405537Y-119370506D01*
X190354213Y-119307967D01*
X190558545Y-119267323D01*
X190719967Y-119200460D01*
X190719967Y-121000000D01*
X190732073Y-121122913D01*
X190767925Y-121241103D01*
X190826147Y-121350028D01*
X190904499Y-121445501D01*
X190999972Y-121523853D01*
X191108897Y-121582075D01*
X191227087Y-121617927D01*
X191350000Y-121630033D01*
X193150000Y-121630033D01*
X193272913Y-121617927D01*
X193391103Y-121582075D01*
X193500028Y-121523853D01*
X193595501Y-121445501D01*
X193673853Y-121350028D01*
X193732075Y-121241103D01*
X193767927Y-121122913D01*
X193780033Y-121000000D01*
X193780033Y-120567500D01*
X193833381Y-120567500D01*
X196265546Y-122999665D01*
X196291144Y-123030856D01*
X196415624Y-123133015D01*
X196557643Y-123208925D01*
X196711742Y-123255671D01*
X196831844Y-123267500D01*
X196831852Y-123267500D01*
X196872000Y-123271454D01*
X196912148Y-123267500D01*
X197669967Y-123267500D01*
X197669967Y-123900000D01*
X197682073Y-124022913D01*
X197717925Y-124141103D01*
X197776147Y-124250028D01*
X197854499Y-124345501D01*
X197949972Y-124423853D01*
X198058897Y-124482075D01*
X198177087Y-124517927D01*
X198300000Y-124530033D01*
X203700000Y-124530033D01*
X203822913Y-124517927D01*
X203941103Y-124482075D01*
X204050028Y-124423853D01*
X204145501Y-124345501D01*
X204223853Y-124250028D01*
X204282075Y-124141103D01*
X204317927Y-124022913D01*
X204330033Y-123900000D01*
X204330033Y-121000000D01*
X204317927Y-120877087D01*
X204282075Y-120758897D01*
X204223853Y-120649972D01*
X204145501Y-120554499D01*
X204050028Y-120476147D01*
X203941103Y-120417925D01*
X203822913Y-120382073D01*
X203700000Y-120369967D01*
X198300000Y-120369967D01*
X198177087Y-120382073D01*
X198058897Y-120417925D01*
X197949972Y-120476147D01*
X197854499Y-120554499D01*
X197776147Y-120649972D01*
X197717925Y-120758897D01*
X197682073Y-120877087D01*
X197669967Y-121000000D01*
X197669967Y-121632500D01*
X197210619Y-121632500D01*
X195328119Y-119750000D01*
X195621670Y-119456450D01*
X195652856Y-119430856D01*
X195678450Y-119399670D01*
X195678454Y-119399666D01*
X195755014Y-119306377D01*
X195758438Y-119299972D01*
X195830925Y-119164357D01*
X195877671Y-119010258D01*
X195889500Y-118890156D01*
X195889500Y-118890147D01*
X195893454Y-118850001D01*
X195889500Y-118809855D01*
X195889500Y-116880148D01*
X195893454Y-116840000D01*
X195889500Y-116799852D01*
X195889500Y-116799844D01*
X195877671Y-116679742D01*
X195830925Y-116525643D01*
X195755015Y-116383624D01*
X195711709Y-116330856D01*
X195678454Y-116290334D01*
X195678450Y-116290330D01*
X195652856Y-116259144D01*
X195621671Y-116233551D01*
X194862682Y-115474563D01*
X194763856Y-115354144D01*
X194639376Y-115251985D01*
X194497357Y-115176075D01*
X194343258Y-115129329D01*
X194260033Y-115121132D01*
X194260033Y-114847500D01*
X195555852Y-114847500D01*
X195596000Y-114851454D01*
X195636148Y-114847500D01*
X195636156Y-114847500D01*
X195756258Y-114835671D01*
X195910357Y-114788925D01*
X196052376Y-114713015D01*
X196176856Y-114610856D01*
X196202454Y-114579665D01*
X197414620Y-113367500D01*
X197669967Y-113367500D01*
X197669967Y-114000000D01*
X197682073Y-114122913D01*
X197717925Y-114241103D01*
X197776147Y-114350028D01*
X197854499Y-114445501D01*
X197949972Y-114523853D01*
X198058897Y-114582075D01*
X198177087Y-114617927D01*
X198300000Y-114630033D01*
X203700000Y-114630033D01*
X203822913Y-114617927D01*
X203941103Y-114582075D01*
X204050028Y-114523853D01*
X204145501Y-114445501D01*
X204223853Y-114350028D01*
X204282075Y-114241103D01*
X204317927Y-114122913D01*
X204330033Y-114000000D01*
X204330033Y-111100000D01*
X204317927Y-110977087D01*
X204282075Y-110858897D01*
X204223853Y-110749972D01*
X204145501Y-110654499D01*
X204050028Y-110576147D01*
X203941103Y-110517925D01*
X203822913Y-110482073D01*
X203700000Y-110469967D01*
X198300000Y-110469967D01*
X198177087Y-110482073D01*
X198058897Y-110517925D01*
X197949972Y-110576147D01*
X197854499Y-110654499D01*
X197776147Y-110749972D01*
X197717925Y-110858897D01*
X197682073Y-110977087D01*
X197669967Y-111100000D01*
X197669967Y-111732500D01*
X197116147Y-111732500D01*
X197075999Y-111728546D01*
X197035851Y-111732500D01*
X197035844Y-111732500D01*
X196931277Y-111742799D01*
X196915741Y-111744329D01*
X196893141Y-111751185D01*
X196761643Y-111791075D01*
X196619624Y-111866985D01*
X196583613Y-111896539D01*
X196526334Y-111943546D01*
X196526330Y-111943550D01*
X196495144Y-111969144D01*
X196469550Y-112000330D01*
X195869674Y-112600206D01*
X195889500Y-112500534D01*
X195889500Y-112289466D01*
X195848323Y-112082455D01*
X195767551Y-111887454D01*
X195650289Y-111711958D01*
X195501042Y-111562711D01*
X195325546Y-111445449D01*
X195130545Y-111364677D01*
X194923534Y-111323500D01*
X194712466Y-111323500D01*
X194505455Y-111364677D01*
X194310454Y-111445449D01*
X194134958Y-111562711D01*
X194034097Y-111663572D01*
X193987096Y-111625000D01*
X194049108Y-111574108D01*
X194157774Y-111441698D01*
X194224159Y-111317500D01*
X195802169Y-111317500D01*
X195816958Y-111332289D01*
X195992454Y-111449551D01*
X196187455Y-111530323D01*
X196394466Y-111571500D01*
X196605534Y-111571500D01*
X196812545Y-111530323D01*
X197007546Y-111449551D01*
X197183042Y-111332289D01*
X197332289Y-111183042D01*
X197449551Y-111007546D01*
X197530323Y-110812545D01*
X197571500Y-110605534D01*
X197571500Y-110394466D01*
X197530323Y-110187455D01*
X197449551Y-109992454D01*
X197332289Y-109816958D01*
X197192331Y-109677000D01*
X208025207Y-109677000D01*
X207893530Y-109874068D01*
G36*
X189830195Y-116190555D02*
G01*
X189817131Y-116179834D01*
X189824108Y-116174108D01*
X189862767Y-116127002D01*
X189893748Y-116127002D01*
X189830195Y-116190555D01*
X189830195Y-116190555D01*
G37*
X189830195Y-116190555D02*
X189817131Y-116179834D01*
X189824108Y-116174108D01*
X189862767Y-116127002D01*
X189893748Y-116127002D01*
X189830195Y-116190555D01*
G36*
X180915000Y-110526750D02*
G01*
X181073750Y-110685500D01*
X182123000Y-110685500D01*
X182123000Y-110665500D01*
X182377000Y-110665500D01*
X182377000Y-110685500D01*
X182397000Y-110685500D01*
X182397000Y-110939500D01*
X182377000Y-110939500D01*
X182377000Y-110959500D01*
X182123000Y-110959500D01*
X182123000Y-110939500D01*
X181073750Y-110939500D01*
X180915000Y-111098250D01*
X180911928Y-111300000D01*
X180924188Y-111424482D01*
X180960498Y-111544180D01*
X181019463Y-111654494D01*
X181098815Y-111751185D01*
X181182869Y-111820166D01*
X181175892Y-111825892D01*
X181067226Y-111958302D01*
X180986480Y-112109368D01*
X180971113Y-112160026D01*
X180939502Y-112055820D01*
X180880537Y-111945506D01*
X180801185Y-111848815D01*
X180704494Y-111769463D01*
X180594180Y-111710498D01*
X180474482Y-111674188D01*
X180350000Y-111661928D01*
X180235750Y-111665000D01*
X180077000Y-111823750D01*
X180077000Y-112623000D01*
X180097000Y-112623000D01*
X180097000Y-112877000D01*
X180077000Y-112877000D01*
X180077000Y-113676250D01*
X180235750Y-113835000D01*
X180350000Y-113838072D01*
X180474482Y-113825812D01*
X180594180Y-113789502D01*
X180704494Y-113730537D01*
X180801185Y-113651185D01*
X180880537Y-113554494D01*
X180939502Y-113444180D01*
X180975812Y-113324482D01*
X180982802Y-113253508D01*
X180986480Y-113265632D01*
X181067226Y-113416698D01*
X181175892Y-113549108D01*
X181308302Y-113657774D01*
X181459368Y-113738520D01*
X181623283Y-113788244D01*
X181793750Y-113805033D01*
X182290862Y-113805033D01*
X182298143Y-113808925D01*
X182452242Y-113855671D01*
X182572344Y-113867500D01*
X182572353Y-113867500D01*
X182612499Y-113871454D01*
X182652645Y-113867500D01*
X183388250Y-113867500D01*
X183393750Y-113873000D01*
X183488470Y-113873000D01*
X183519972Y-113898853D01*
X183628897Y-113957075D01*
X183747087Y-113992927D01*
X183818900Y-114000000D01*
X183747087Y-114007073D01*
X183628897Y-114042925D01*
X183519972Y-114101147D01*
X183488470Y-114127000D01*
X183393750Y-114127000D01*
X183284077Y-114236673D01*
X183240061Y-114250025D01*
X183129631Y-114309051D01*
X183040632Y-114261480D01*
X182876717Y-114211756D01*
X182706250Y-114194967D01*
X181793750Y-114194967D01*
X181623283Y-114211756D01*
X181459368Y-114261480D01*
X181308302Y-114342226D01*
X181175892Y-114450892D01*
X181125000Y-114512904D01*
X181074108Y-114450892D01*
X180941698Y-114342226D01*
X180790632Y-114261480D01*
X180626717Y-114211756D01*
X180456250Y-114194967D01*
X179543750Y-114194967D01*
X179373283Y-114211756D01*
X179209368Y-114261480D01*
X179058302Y-114342226D01*
X178925892Y-114450892D01*
X178875000Y-114512904D01*
X178824108Y-114450892D01*
X178691698Y-114342226D01*
X178540632Y-114261480D01*
X178376717Y-114211756D01*
X178206250Y-114194967D01*
X177698784Y-114194967D01*
X177007816Y-113504000D01*
X177101544Y-113504000D01*
X177126147Y-113550028D01*
X177204499Y-113645501D01*
X177299972Y-113723853D01*
X177408897Y-113782075D01*
X177527087Y-113817927D01*
X177650000Y-113830033D01*
X178450000Y-113830033D01*
X178572913Y-113817927D01*
X178691103Y-113782075D01*
X178800028Y-113723853D01*
X178895501Y-113645501D01*
X178973853Y-113550028D01*
X178995464Y-113509596D01*
X179019463Y-113554494D01*
X179098815Y-113651185D01*
X179195506Y-113730537D01*
X179305820Y-113789502D01*
X179425518Y-113825812D01*
X179550000Y-113838072D01*
X179664250Y-113835000D01*
X179823000Y-113676250D01*
X179823000Y-112877000D01*
X179803000Y-112877000D01*
X179803000Y-112623000D01*
X179823000Y-112623000D01*
X179823000Y-111823750D01*
X179732482Y-111733232D01*
X179750028Y-111723853D01*
X179845501Y-111645501D01*
X179923853Y-111550028D01*
X179982075Y-111441103D01*
X180017927Y-111322913D01*
X180030033Y-111200000D01*
X180030033Y-110418500D01*
X180913352Y-110418500D01*
X180915000Y-110526750D01*
X180915000Y-110526750D01*
G37*
X180915000Y-110526750D02*
X181073750Y-110685500D01*
X182123000Y-110685500D01*
X182123000Y-110665500D01*
X182377000Y-110665500D01*
X182377000Y-110685500D01*
X182397000Y-110685500D01*
X182397000Y-110939500D01*
X182377000Y-110939500D01*
X182377000Y-110959500D01*
X182123000Y-110959500D01*
X182123000Y-110939500D01*
X181073750Y-110939500D01*
X180915000Y-111098250D01*
X180911928Y-111300000D01*
X180924188Y-111424482D01*
X180960498Y-111544180D01*
X181019463Y-111654494D01*
X181098815Y-111751185D01*
X181182869Y-111820166D01*
X181175892Y-111825892D01*
X181067226Y-111958302D01*
X180986480Y-112109368D01*
X180971113Y-112160026D01*
X180939502Y-112055820D01*
X180880537Y-111945506D01*
X180801185Y-111848815D01*
X180704494Y-111769463D01*
X180594180Y-111710498D01*
X180474482Y-111674188D01*
X180350000Y-111661928D01*
X180235750Y-111665000D01*
X180077000Y-111823750D01*
X180077000Y-112623000D01*
X180097000Y-112623000D01*
X180097000Y-112877000D01*
X180077000Y-112877000D01*
X180077000Y-113676250D01*
X180235750Y-113835000D01*
X180350000Y-113838072D01*
X180474482Y-113825812D01*
X180594180Y-113789502D01*
X180704494Y-113730537D01*
X180801185Y-113651185D01*
X180880537Y-113554494D01*
X180939502Y-113444180D01*
X180975812Y-113324482D01*
X180982802Y-113253508D01*
X180986480Y-113265632D01*
X181067226Y-113416698D01*
X181175892Y-113549108D01*
X181308302Y-113657774D01*
X181459368Y-113738520D01*
X181623283Y-113788244D01*
X181793750Y-113805033D01*
X182290862Y-113805033D01*
X182298143Y-113808925D01*
X182452242Y-113855671D01*
X182572344Y-113867500D01*
X182572353Y-113867500D01*
X182612499Y-113871454D01*
X182652645Y-113867500D01*
X183388250Y-113867500D01*
X183393750Y-113873000D01*
X183488470Y-113873000D01*
X183519972Y-113898853D01*
X183628897Y-113957075D01*
X183747087Y-113992927D01*
X183818900Y-114000000D01*
X183747087Y-114007073D01*
X183628897Y-114042925D01*
X183519972Y-114101147D01*
X183488470Y-114127000D01*
X183393750Y-114127000D01*
X183284077Y-114236673D01*
X183240061Y-114250025D01*
X183129631Y-114309051D01*
X183040632Y-114261480D01*
X182876717Y-114211756D01*
X182706250Y-114194967D01*
X181793750Y-114194967D01*
X181623283Y-114211756D01*
X181459368Y-114261480D01*
X181308302Y-114342226D01*
X181175892Y-114450892D01*
X181125000Y-114512904D01*
X181074108Y-114450892D01*
X180941698Y-114342226D01*
X180790632Y-114261480D01*
X180626717Y-114211756D01*
X180456250Y-114194967D01*
X179543750Y-114194967D01*
X179373283Y-114211756D01*
X179209368Y-114261480D01*
X179058302Y-114342226D01*
X178925892Y-114450892D01*
X178875000Y-114512904D01*
X178824108Y-114450892D01*
X178691698Y-114342226D01*
X178540632Y-114261480D01*
X178376717Y-114211756D01*
X178206250Y-114194967D01*
X177698784Y-114194967D01*
X177007816Y-113504000D01*
X177101544Y-113504000D01*
X177126147Y-113550028D01*
X177204499Y-113645501D01*
X177299972Y-113723853D01*
X177408897Y-113782075D01*
X177527087Y-113817927D01*
X177650000Y-113830033D01*
X178450000Y-113830033D01*
X178572913Y-113817927D01*
X178691103Y-113782075D01*
X178800028Y-113723853D01*
X178895501Y-113645501D01*
X178973853Y-113550028D01*
X178995464Y-113509596D01*
X179019463Y-113554494D01*
X179098815Y-113651185D01*
X179195506Y-113730537D01*
X179305820Y-113789502D01*
X179425518Y-113825812D01*
X179550000Y-113838072D01*
X179664250Y-113835000D01*
X179823000Y-113676250D01*
X179823000Y-112877000D01*
X179803000Y-112877000D01*
X179803000Y-112623000D01*
X179823000Y-112623000D01*
X179823000Y-111823750D01*
X179732482Y-111733232D01*
X179750028Y-111723853D01*
X179845501Y-111645501D01*
X179923853Y-111550028D01*
X179982075Y-111441103D01*
X180017927Y-111322913D01*
X180030033Y-111200000D01*
X180030033Y-110418500D01*
X180913352Y-110418500D01*
X180915000Y-110526750D01*
G36*
X191439500Y-112623000D02*
G01*
X191459500Y-112623000D01*
X191459500Y-112877000D01*
X191439500Y-112877000D01*
X191439500Y-112897000D01*
X191185500Y-112897000D01*
X191185500Y-112877000D01*
X191165500Y-112877000D01*
X191165500Y-112623000D01*
X191185500Y-112623000D01*
X191185500Y-112603000D01*
X191439500Y-112603000D01*
X191439500Y-112623000D01*
X191439500Y-112623000D01*
G37*
X191439500Y-112623000D02*
X191459500Y-112623000D01*
X191459500Y-112877000D01*
X191439500Y-112877000D01*
X191439500Y-112897000D01*
X191185500Y-112897000D01*
X191185500Y-112877000D01*
X191165500Y-112877000D01*
X191165500Y-112623000D01*
X191185500Y-112623000D01*
X191185500Y-112603000D01*
X191439500Y-112603000D01*
X191439500Y-112623000D01*
G36*
X189127000Y-109973000D02*
G01*
X189147000Y-109973000D01*
X189147000Y-110227000D01*
X189127000Y-110227000D01*
X189127000Y-111201250D01*
X189285750Y-111360000D01*
X189875000Y-111363072D01*
X189999482Y-111350812D01*
X190119180Y-111314502D01*
X190229494Y-111255537D01*
X190246580Y-111241515D01*
X190261480Y-111290632D01*
X190342226Y-111441698D01*
X190431988Y-111551074D01*
X190373815Y-111598815D01*
X190294463Y-111695506D01*
X190235498Y-111805820D01*
X190214310Y-111875667D01*
X190113920Y-111793279D01*
X189961774Y-111711956D01*
X189796686Y-111661877D01*
X189625000Y-111644967D01*
X188375000Y-111644967D01*
X188203314Y-111661877D01*
X188038226Y-111711956D01*
X187886080Y-111793279D01*
X187752723Y-111902723D01*
X187643279Y-112036080D01*
X187561956Y-112188226D01*
X187548526Y-112232500D01*
X187518232Y-112232500D01*
X187480028Y-112201147D01*
X187379347Y-112147332D01*
X187455537Y-112054494D01*
X187514502Y-111944180D01*
X187550812Y-111824482D01*
X187563072Y-111700000D01*
X187560000Y-111285750D01*
X187401252Y-111127002D01*
X187560000Y-111127002D01*
X187560000Y-111015019D01*
X187594463Y-111079494D01*
X187673815Y-111176185D01*
X187770506Y-111255537D01*
X187880820Y-111314502D01*
X188000518Y-111350812D01*
X188125000Y-111363072D01*
X188714250Y-111360000D01*
X188873000Y-111201250D01*
X188873000Y-110227000D01*
X188853000Y-110227000D01*
X188853000Y-109973000D01*
X188873000Y-109973000D01*
X188873000Y-109953000D01*
X189127000Y-109953000D01*
X189127000Y-109973000D01*
X189127000Y-109973000D01*
G37*
X189127000Y-109973000D02*
X189147000Y-109973000D01*
X189147000Y-110227000D01*
X189127000Y-110227000D01*
X189127000Y-111201250D01*
X189285750Y-111360000D01*
X189875000Y-111363072D01*
X189999482Y-111350812D01*
X190119180Y-111314502D01*
X190229494Y-111255537D01*
X190246580Y-111241515D01*
X190261480Y-111290632D01*
X190342226Y-111441698D01*
X190431988Y-111551074D01*
X190373815Y-111598815D01*
X190294463Y-111695506D01*
X190235498Y-111805820D01*
X190214310Y-111875667D01*
X190113920Y-111793279D01*
X189961774Y-111711956D01*
X189796686Y-111661877D01*
X189625000Y-111644967D01*
X188375000Y-111644967D01*
X188203314Y-111661877D01*
X188038226Y-111711956D01*
X187886080Y-111793279D01*
X187752723Y-111902723D01*
X187643279Y-112036080D01*
X187561956Y-112188226D01*
X187548526Y-112232500D01*
X187518232Y-112232500D01*
X187480028Y-112201147D01*
X187379347Y-112147332D01*
X187455537Y-112054494D01*
X187514502Y-111944180D01*
X187550812Y-111824482D01*
X187563072Y-111700000D01*
X187560000Y-111285750D01*
X187401252Y-111127002D01*
X187560000Y-111127002D01*
X187560000Y-111015019D01*
X187594463Y-111079494D01*
X187673815Y-111176185D01*
X187770506Y-111255537D01*
X187880820Y-111314502D01*
X188000518Y-111350812D01*
X188125000Y-111363072D01*
X188714250Y-111360000D01*
X188873000Y-111201250D01*
X188873000Y-110227000D01*
X188853000Y-110227000D01*
X188853000Y-109973000D01*
X188873000Y-109973000D01*
X188873000Y-109953000D01*
X189127000Y-109953000D01*
X189127000Y-109973000D01*
G36*
X186564500Y-110873000D02*
G01*
X186584500Y-110873000D01*
X186584500Y-111127000D01*
X186564500Y-111127000D01*
X186564500Y-111147000D01*
X186310500Y-111147000D01*
X186310500Y-111127000D01*
X186290500Y-111127000D01*
X186290500Y-110873000D01*
X186310500Y-110873000D01*
X186310500Y-110853000D01*
X186564500Y-110853000D01*
X186564500Y-110873000D01*
X186564500Y-110873000D01*
G37*
X186564500Y-110873000D02*
X186584500Y-110873000D01*
X186584500Y-111127000D01*
X186564500Y-111127000D01*
X186564500Y-111147000D01*
X186310500Y-111147000D01*
X186310500Y-111127000D01*
X186290500Y-111127000D01*
X186290500Y-110873000D01*
X186310500Y-110873000D01*
X186310500Y-110853000D01*
X186564500Y-110853000D01*
X186564500Y-110873000D01*
G36*
X187499188Y-110849482D02*
G01*
X187506322Y-110872998D01*
X187401252Y-110872998D01*
X187492516Y-110781734D01*
X187499188Y-110849482D01*
X187499188Y-110849482D01*
G37*
X187499188Y-110849482D02*
X187506322Y-110872998D01*
X187401252Y-110872998D01*
X187492516Y-110781734D01*
X187499188Y-110849482D01*
M02*
