G04 #@! TF.GenerationSoftware,KiCad,Pcbnew,(5.1.4)-1*
G04 #@! TF.CreationDate,2020-03-24T23:26:33+09:00*
G04 #@! TF.ProjectId,solenoid-driver,736f6c65-6e6f-4696-942d-647269766572,rev?*
G04 #@! TF.SameCoordinates,Original*
G04 #@! TF.FileFunction,Legend,Bot*
G04 #@! TF.FilePolarity,Positive*
%FSLAX46Y46*%
G04 Gerber Fmt 4.6, Leading zero omitted, Abs format (unit mm)*
G04 Created by KiCad (PCBNEW (5.1.4)-1) date 2020-03-24 23:26:33*
%MOMM*%
%LPD*%
G04 APERTURE LIST*
%ADD10C,0.200000*%
%ADD11C,3.500000*%
%ADD12O,1.700000X1.700000*%
%ADD13R,1.700000X1.700000*%
G04 APERTURE END LIST*
D10*
X199214285Y-113552380D02*
X199214285Y-114361904D01*
X199166666Y-114457142D01*
X199119047Y-114504761D01*
X199023809Y-114552380D01*
X198833333Y-114552380D01*
X198738095Y-114504761D01*
X198690476Y-114457142D01*
X198642857Y-114361904D01*
X198642857Y-113552380D01*
X198166666Y-113885714D02*
X198166666Y-114552380D01*
X198166666Y-113980952D02*
X198119047Y-113933333D01*
X198023809Y-113885714D01*
X197880952Y-113885714D01*
X197785714Y-113933333D01*
X197738095Y-114028571D01*
X197738095Y-114552380D01*
X197261904Y-114552380D02*
X197261904Y-113885714D01*
X197261904Y-113552380D02*
X197309523Y-113600000D01*
X197261904Y-113647619D01*
X197214285Y-113600000D01*
X197261904Y-113552380D01*
X197261904Y-113647619D01*
X196928571Y-113885714D02*
X196547619Y-113885714D01*
X196785714Y-114552380D02*
X196785714Y-113695238D01*
X196738095Y-113600000D01*
X196642857Y-113552380D01*
X196547619Y-113552380D01*
X196214285Y-114552380D02*
X196214285Y-113885714D01*
X196214285Y-113552380D02*
X196261904Y-113600000D01*
X196214285Y-113647619D01*
X196166666Y-113600000D01*
X196214285Y-113552380D01*
X196214285Y-113647619D01*
X195357142Y-114504761D02*
X195452380Y-114552380D01*
X195642857Y-114552380D01*
X195738095Y-114504761D01*
X195785714Y-114409523D01*
X195785714Y-114028571D01*
X195738095Y-113933333D01*
X195642857Y-113885714D01*
X195452380Y-113885714D01*
X195357142Y-113933333D01*
X195309523Y-114028571D01*
X195309523Y-114123809D01*
X195785714Y-114219047D01*
X194452380Y-114552380D02*
X194452380Y-113552380D01*
X194452380Y-114504761D02*
X194547619Y-114552380D01*
X194738095Y-114552380D01*
X194833333Y-114504761D01*
X194880952Y-114457142D01*
X194928571Y-114361904D01*
X194928571Y-114076190D01*
X194880952Y-113980952D01*
X194833333Y-113933333D01*
X194738095Y-113885714D01*
X194547619Y-113885714D01*
X194452380Y-113933333D01*
X193214285Y-114552380D02*
X193214285Y-113552380D01*
X192976190Y-113552380D01*
X192833333Y-113600000D01*
X192738095Y-113695238D01*
X192690476Y-113790476D01*
X192642857Y-113980952D01*
X192642857Y-114123809D01*
X192690476Y-114314285D01*
X192738095Y-114409523D01*
X192833333Y-114504761D01*
X192976190Y-114552380D01*
X193214285Y-114552380D01*
X191785714Y-114552380D02*
X191785714Y-114028571D01*
X191833333Y-113933333D01*
X191928571Y-113885714D01*
X192119047Y-113885714D01*
X192214285Y-113933333D01*
X191785714Y-114504761D02*
X191880952Y-114552380D01*
X192119047Y-114552380D01*
X192214285Y-114504761D01*
X192261904Y-114409523D01*
X192261904Y-114314285D01*
X192214285Y-114219047D01*
X192119047Y-114171428D01*
X191880952Y-114171428D01*
X191785714Y-114123809D01*
X190880952Y-113885714D02*
X190880952Y-114552380D01*
X191309523Y-113885714D02*
X191309523Y-114409523D01*
X191261904Y-114504761D01*
X191166666Y-114552380D01*
X191023809Y-114552380D01*
X190928571Y-114504761D01*
X190880952Y-114457142D01*
X189976190Y-113885714D02*
X189976190Y-114695238D01*
X190023809Y-114790476D01*
X190071428Y-114838095D01*
X190166666Y-114885714D01*
X190309523Y-114885714D01*
X190404761Y-114838095D01*
X189976190Y-114504761D02*
X190071428Y-114552380D01*
X190261904Y-114552380D01*
X190357142Y-114504761D01*
X190404761Y-114457142D01*
X190452380Y-114361904D01*
X190452380Y-114076190D01*
X190404761Y-113980952D01*
X190357142Y-113933333D01*
X190261904Y-113885714D01*
X190071428Y-113885714D01*
X189976190Y-113933333D01*
X189500000Y-114552380D02*
X189500000Y-113552380D01*
X189071428Y-114552380D02*
X189071428Y-114028571D01*
X189119047Y-113933333D01*
X189214285Y-113885714D01*
X189357142Y-113885714D01*
X189452380Y-113933333D01*
X189500000Y-113980952D01*
X188738095Y-113885714D02*
X188357142Y-113885714D01*
X188595238Y-113552380D02*
X188595238Y-114409523D01*
X188547619Y-114504761D01*
X188452380Y-114552380D01*
X188357142Y-114552380D01*
X187642857Y-114504761D02*
X187738095Y-114552380D01*
X187928571Y-114552380D01*
X188023809Y-114504761D01*
X188071428Y-114409523D01*
X188071428Y-114028571D01*
X188023809Y-113933333D01*
X187928571Y-113885714D01*
X187738095Y-113885714D01*
X187642857Y-113933333D01*
X187595238Y-114028571D01*
X187595238Y-114123809D01*
X188071428Y-114219047D01*
X187166666Y-114552380D02*
X187166666Y-113885714D01*
X187166666Y-114076190D02*
X187119047Y-113980952D01*
X187071428Y-113933333D01*
X186976190Y-113885714D01*
X186880952Y-113885714D01*
X186547619Y-114552380D02*
X186547619Y-113552380D01*
X186547619Y-113933333D02*
X186452380Y-113885714D01*
X186261904Y-113885714D01*
X186166666Y-113933333D01*
X186119047Y-113980952D01*
X186071428Y-114076190D01*
X186071428Y-114361904D01*
X186119047Y-114457142D01*
X186166666Y-114504761D01*
X186261904Y-114552380D01*
X186452380Y-114552380D01*
X186547619Y-114504761D01*
X185500000Y-114552380D02*
X185595238Y-114504761D01*
X185642857Y-114457142D01*
X185690476Y-114361904D01*
X185690476Y-114076190D01*
X185642857Y-113980952D01*
X185595238Y-113933333D01*
X185500000Y-113885714D01*
X185357142Y-113885714D01*
X185261904Y-113933333D01*
X185214285Y-113980952D01*
X185166666Y-114076190D01*
X185166666Y-114361904D01*
X185214285Y-114457142D01*
X185261904Y-114504761D01*
X185357142Y-114552380D01*
X185500000Y-114552380D01*
X184309523Y-114552380D02*
X184309523Y-114028571D01*
X184357142Y-113933333D01*
X184452380Y-113885714D01*
X184642857Y-113885714D01*
X184738095Y-113933333D01*
X184309523Y-114504761D02*
X184404761Y-114552380D01*
X184642857Y-114552380D01*
X184738095Y-114504761D01*
X184785714Y-114409523D01*
X184785714Y-114314285D01*
X184738095Y-114219047D01*
X184642857Y-114171428D01*
X184404761Y-114171428D01*
X184309523Y-114123809D01*
X183833333Y-114552380D02*
X183833333Y-113885714D01*
X183833333Y-114076190D02*
X183785714Y-113980952D01*
X183738095Y-113933333D01*
X183642857Y-113885714D01*
X183547619Y-113885714D01*
X182785714Y-114552380D02*
X182785714Y-113552380D01*
X182785714Y-114504761D02*
X182880952Y-114552380D01*
X183071428Y-114552380D01*
X183166666Y-114504761D01*
X183214285Y-114457142D01*
X183261904Y-114361904D01*
X183261904Y-114076190D01*
X183214285Y-113980952D01*
X183166666Y-113933333D01*
X183071428Y-113885714D01*
X182880952Y-113885714D01*
X182785714Y-113933333D01*
X202357142Y-116204761D02*
X202214285Y-116252380D01*
X201976190Y-116252380D01*
X201880952Y-116204761D01*
X201833333Y-116157142D01*
X201785714Y-116061904D01*
X201785714Y-115966666D01*
X201833333Y-115871428D01*
X201880952Y-115823809D01*
X201976190Y-115776190D01*
X202166666Y-115728571D01*
X202261904Y-115680952D01*
X202309523Y-115633333D01*
X202357142Y-115538095D01*
X202357142Y-115442857D01*
X202309523Y-115347619D01*
X202261904Y-115300000D01*
X202166666Y-115252380D01*
X201928571Y-115252380D01*
X201785714Y-115300000D01*
X201309523Y-116252380D02*
X201119047Y-116252380D01*
X201023809Y-116204761D01*
X200976190Y-116157142D01*
X200880952Y-116014285D01*
X200833333Y-115823809D01*
X200833333Y-115442857D01*
X200880952Y-115347619D01*
X200928571Y-115300000D01*
X201023809Y-115252380D01*
X201214285Y-115252380D01*
X201309523Y-115300000D01*
X201357142Y-115347619D01*
X201404761Y-115442857D01*
X201404761Y-115680952D01*
X201357142Y-115776190D01*
X201309523Y-115823809D01*
X201214285Y-115871428D01*
X201023809Y-115871428D01*
X200928571Y-115823809D01*
X200880952Y-115776190D01*
X200833333Y-115680952D01*
X199595238Y-116252380D02*
X199404761Y-116252380D01*
X199309523Y-116204761D01*
X199261904Y-116157142D01*
X199166666Y-116014285D01*
X199119047Y-115823809D01*
X199119047Y-115442857D01*
X199166666Y-115347619D01*
X199214285Y-115300000D01*
X199309523Y-115252380D01*
X199500000Y-115252380D01*
X199595238Y-115300000D01*
X199642857Y-115347619D01*
X199690476Y-115442857D01*
X199690476Y-115680952D01*
X199642857Y-115776190D01*
X199595238Y-115823809D01*
X199500000Y-115871428D01*
X199309523Y-115871428D01*
X199214285Y-115823809D01*
X199166666Y-115776190D01*
X199119047Y-115680952D01*
X198690476Y-115871428D02*
X197928571Y-115871428D01*
X197595238Y-115252380D02*
X197261904Y-116252380D01*
X196928571Y-115252380D01*
X196452380Y-116252380D02*
X196547619Y-116204761D01*
X196595238Y-116157142D01*
X196642857Y-116061904D01*
X196642857Y-115776190D01*
X196595238Y-115680952D01*
X196547619Y-115633333D01*
X196452380Y-115585714D01*
X196309523Y-115585714D01*
X196214285Y-115633333D01*
X196166666Y-115680952D01*
X196119047Y-115776190D01*
X196119047Y-116061904D01*
X196166666Y-116157142D01*
X196214285Y-116204761D01*
X196309523Y-116252380D01*
X196452380Y-116252380D01*
X195547619Y-116252380D02*
X195642857Y-116204761D01*
X195690476Y-116109523D01*
X195690476Y-115252380D01*
X195309523Y-115585714D02*
X194928571Y-115585714D01*
X195166666Y-115252380D02*
X195166666Y-116109523D01*
X195119047Y-116204761D01*
X195023809Y-116252380D01*
X194928571Y-116252380D01*
X193880952Y-116204761D02*
X193738095Y-116252380D01*
X193500000Y-116252380D01*
X193404761Y-116204761D01*
X193357142Y-116157142D01*
X193309523Y-116061904D01*
X193309523Y-115966666D01*
X193357142Y-115871428D01*
X193404761Y-115823809D01*
X193500000Y-115776190D01*
X193690476Y-115728571D01*
X193785714Y-115680952D01*
X193833333Y-115633333D01*
X193880952Y-115538095D01*
X193880952Y-115442857D01*
X193833333Y-115347619D01*
X193785714Y-115300000D01*
X193690476Y-115252380D01*
X193452380Y-115252380D01*
X193309523Y-115300000D01*
X192738095Y-116252380D02*
X192833333Y-116204761D01*
X192880952Y-116157142D01*
X192928571Y-116061904D01*
X192928571Y-115776190D01*
X192880952Y-115680952D01*
X192833333Y-115633333D01*
X192738095Y-115585714D01*
X192595238Y-115585714D01*
X192500000Y-115633333D01*
X192452380Y-115680952D01*
X192404761Y-115776190D01*
X192404761Y-116061904D01*
X192452380Y-116157142D01*
X192500000Y-116204761D01*
X192595238Y-116252380D01*
X192738095Y-116252380D01*
X191833333Y-116252380D02*
X191928571Y-116204761D01*
X191976190Y-116109523D01*
X191976190Y-115252380D01*
X191071428Y-116204761D02*
X191166666Y-116252380D01*
X191357142Y-116252380D01*
X191452380Y-116204761D01*
X191500000Y-116109523D01*
X191500000Y-115728571D01*
X191452380Y-115633333D01*
X191357142Y-115585714D01*
X191166666Y-115585714D01*
X191071428Y-115633333D01*
X191023809Y-115728571D01*
X191023809Y-115823809D01*
X191500000Y-115919047D01*
X190595238Y-115585714D02*
X190595238Y-116252380D01*
X190595238Y-115680952D02*
X190547619Y-115633333D01*
X190452380Y-115585714D01*
X190309523Y-115585714D01*
X190214285Y-115633333D01*
X190166666Y-115728571D01*
X190166666Y-116252380D01*
X189547619Y-116252380D02*
X189642857Y-116204761D01*
X189690476Y-116157142D01*
X189738095Y-116061904D01*
X189738095Y-115776190D01*
X189690476Y-115680952D01*
X189642857Y-115633333D01*
X189547619Y-115585714D01*
X189404761Y-115585714D01*
X189309523Y-115633333D01*
X189261904Y-115680952D01*
X189214285Y-115776190D01*
X189214285Y-116061904D01*
X189261904Y-116157142D01*
X189309523Y-116204761D01*
X189404761Y-116252380D01*
X189547619Y-116252380D01*
X188785714Y-116252380D02*
X188785714Y-115585714D01*
X188785714Y-115252380D02*
X188833333Y-115300000D01*
X188785714Y-115347619D01*
X188738095Y-115300000D01*
X188785714Y-115252380D01*
X188785714Y-115347619D01*
X187880952Y-116252380D02*
X187880952Y-115252380D01*
X187880952Y-116204761D02*
X187976190Y-116252380D01*
X188166666Y-116252380D01*
X188261904Y-116204761D01*
X188309523Y-116157142D01*
X188357142Y-116061904D01*
X188357142Y-115776190D01*
X188309523Y-115680952D01*
X188261904Y-115633333D01*
X188166666Y-115585714D01*
X187976190Y-115585714D01*
X187880952Y-115633333D01*
X186071428Y-116157142D02*
X186119047Y-116204761D01*
X186261904Y-116252380D01*
X186357142Y-116252380D01*
X186500000Y-116204761D01*
X186595238Y-116109523D01*
X186642857Y-116014285D01*
X186690476Y-115823809D01*
X186690476Y-115680952D01*
X186642857Y-115490476D01*
X186595238Y-115395238D01*
X186500000Y-115300000D01*
X186357142Y-115252380D01*
X186261904Y-115252380D01*
X186119047Y-115300000D01*
X186071428Y-115347619D01*
X185500000Y-116252380D02*
X185595238Y-116204761D01*
X185642857Y-116157142D01*
X185690476Y-116061904D01*
X185690476Y-115776190D01*
X185642857Y-115680952D01*
X185595238Y-115633333D01*
X185500000Y-115585714D01*
X185357142Y-115585714D01*
X185261904Y-115633333D01*
X185214285Y-115680952D01*
X185166666Y-115776190D01*
X185166666Y-116061904D01*
X185214285Y-116157142D01*
X185261904Y-116204761D01*
X185357142Y-116252380D01*
X185500000Y-116252380D01*
X184738095Y-115585714D02*
X184738095Y-116252380D01*
X184738095Y-115680952D02*
X184690476Y-115633333D01*
X184595238Y-115585714D01*
X184452380Y-115585714D01*
X184357142Y-115633333D01*
X184309523Y-115728571D01*
X184309523Y-116252380D01*
X183976190Y-115585714D02*
X183595238Y-115585714D01*
X183833333Y-115252380D02*
X183833333Y-116109523D01*
X183785714Y-116204761D01*
X183690476Y-116252380D01*
X183595238Y-116252380D01*
X183261904Y-116252380D02*
X183261904Y-115585714D01*
X183261904Y-115776190D02*
X183214285Y-115680952D01*
X183166666Y-115633333D01*
X183071428Y-115585714D01*
X182976190Y-115585714D01*
X182500000Y-116252380D02*
X182595238Y-116204761D01*
X182642857Y-116157142D01*
X182690476Y-116061904D01*
X182690476Y-115776190D01*
X182642857Y-115680952D01*
X182595238Y-115633333D01*
X182500000Y-115585714D01*
X182357142Y-115585714D01*
X182261904Y-115633333D01*
X182214285Y-115680952D01*
X182166666Y-115776190D01*
X182166666Y-116061904D01*
X182214285Y-116157142D01*
X182261904Y-116204761D01*
X182357142Y-116252380D01*
X182500000Y-116252380D01*
X181595238Y-116252380D02*
X181690476Y-116204761D01*
X181738095Y-116109523D01*
X181738095Y-115252380D01*
X181071428Y-116252380D02*
X181166666Y-116204761D01*
X181214285Y-116109523D01*
X181214285Y-115252380D01*
X180309523Y-116204761D02*
X180404761Y-116252380D01*
X180595238Y-116252380D01*
X180690476Y-116204761D01*
X180738095Y-116109523D01*
X180738095Y-115728571D01*
X180690476Y-115633333D01*
X180595238Y-115585714D01*
X180404761Y-115585714D01*
X180309523Y-115633333D01*
X180261904Y-115728571D01*
X180261904Y-115823809D01*
X180738095Y-115919047D01*
X179833333Y-116252380D02*
X179833333Y-115585714D01*
X179833333Y-115776190D02*
X179785714Y-115680952D01*
X179738095Y-115633333D01*
X179642857Y-115585714D01*
X179547619Y-115585714D01*
X207261904Y-116952380D02*
X207071428Y-116952380D01*
X206976190Y-117000000D01*
X206880952Y-117095238D01*
X206833333Y-117285714D01*
X206833333Y-117619047D01*
X206880952Y-117809523D01*
X206976190Y-117904761D01*
X207071428Y-117952380D01*
X207261904Y-117952380D01*
X207357142Y-117904761D01*
X207452380Y-117809523D01*
X207500000Y-117619047D01*
X207500000Y-117285714D01*
X207452380Y-117095238D01*
X207357142Y-117000000D01*
X207261904Y-116952380D01*
X206404761Y-117952380D02*
X206404761Y-117285714D01*
X206404761Y-117476190D02*
X206357142Y-117380952D01*
X206309523Y-117333333D01*
X206214285Y-117285714D01*
X206119047Y-117285714D01*
X205785714Y-117952380D02*
X205785714Y-117285714D01*
X205785714Y-116952380D02*
X205833333Y-117000000D01*
X205785714Y-117047619D01*
X205738095Y-117000000D01*
X205785714Y-116952380D01*
X205785714Y-117047619D01*
X204880952Y-117285714D02*
X204880952Y-118095238D01*
X204928571Y-118190476D01*
X204976190Y-118238095D01*
X205071428Y-118285714D01*
X205214285Y-118285714D01*
X205309523Y-118238095D01*
X204880952Y-117904761D02*
X204976190Y-117952380D01*
X205166666Y-117952380D01*
X205261904Y-117904761D01*
X205309523Y-117857142D01*
X205357142Y-117761904D01*
X205357142Y-117476190D01*
X205309523Y-117380952D01*
X205261904Y-117333333D01*
X205166666Y-117285714D01*
X204976190Y-117285714D01*
X204880952Y-117333333D01*
X204404761Y-117952380D02*
X204404761Y-117285714D01*
X204404761Y-116952380D02*
X204452380Y-117000000D01*
X204404761Y-117047619D01*
X204357142Y-117000000D01*
X204404761Y-116952380D01*
X204404761Y-117047619D01*
X203928571Y-117285714D02*
X203928571Y-117952380D01*
X203928571Y-117380952D02*
X203880952Y-117333333D01*
X203785714Y-117285714D01*
X203642857Y-117285714D01*
X203547619Y-117333333D01*
X203500000Y-117428571D01*
X203500000Y-117952380D01*
X202595238Y-117952380D02*
X202595238Y-117428571D01*
X202642857Y-117333333D01*
X202738095Y-117285714D01*
X202928571Y-117285714D01*
X203023809Y-117333333D01*
X202595238Y-117904761D02*
X202690476Y-117952380D01*
X202928571Y-117952380D01*
X203023809Y-117904761D01*
X203071428Y-117809523D01*
X203071428Y-117714285D01*
X203023809Y-117619047D01*
X202928571Y-117571428D01*
X202690476Y-117571428D01*
X202595238Y-117523809D01*
X201976190Y-117952380D02*
X202071428Y-117904761D01*
X202119047Y-117809523D01*
X202119047Y-116952380D01*
X200404761Y-117904761D02*
X200500000Y-117952380D01*
X200690476Y-117952380D01*
X200785714Y-117904761D01*
X200833333Y-117857142D01*
X200880952Y-117761904D01*
X200880952Y-117476190D01*
X200833333Y-117380952D01*
X200785714Y-117333333D01*
X200690476Y-117285714D01*
X200500000Y-117285714D01*
X200404761Y-117333333D01*
X199976190Y-117952380D02*
X199976190Y-117285714D01*
X199976190Y-116952380D02*
X200023809Y-117000000D01*
X199976190Y-117047619D01*
X199928571Y-117000000D01*
X199976190Y-116952380D01*
X199976190Y-117047619D01*
X199500000Y-117952380D02*
X199500000Y-117285714D01*
X199500000Y-117476190D02*
X199452380Y-117380952D01*
X199404761Y-117333333D01*
X199309523Y-117285714D01*
X199214285Y-117285714D01*
X198452380Y-117904761D02*
X198547619Y-117952380D01*
X198738095Y-117952380D01*
X198833333Y-117904761D01*
X198880952Y-117857142D01*
X198928571Y-117761904D01*
X198928571Y-117476190D01*
X198880952Y-117380952D01*
X198833333Y-117333333D01*
X198738095Y-117285714D01*
X198547619Y-117285714D01*
X198452380Y-117333333D01*
X197595238Y-117285714D02*
X197595238Y-117952380D01*
X198023809Y-117285714D02*
X198023809Y-117809523D01*
X197976190Y-117904761D01*
X197880952Y-117952380D01*
X197738095Y-117952380D01*
X197642857Y-117904761D01*
X197595238Y-117857142D01*
X197119047Y-117952380D02*
X197119047Y-117285714D01*
X197119047Y-116952380D02*
X197166666Y-117000000D01*
X197119047Y-117047619D01*
X197071428Y-117000000D01*
X197119047Y-116952380D01*
X197119047Y-117047619D01*
X196785714Y-117285714D02*
X196404761Y-117285714D01*
X196642857Y-116952380D02*
X196642857Y-117809523D01*
X196595238Y-117904761D01*
X196500000Y-117952380D01*
X196404761Y-117952380D01*
X195309523Y-117952380D02*
X195309523Y-116952380D01*
X195309523Y-117333333D02*
X195214285Y-117285714D01*
X195023809Y-117285714D01*
X194928571Y-117333333D01*
X194880952Y-117380952D01*
X194833333Y-117476190D01*
X194833333Y-117761904D01*
X194880952Y-117857142D01*
X194928571Y-117904761D01*
X195023809Y-117952380D01*
X195214285Y-117952380D01*
X195309523Y-117904761D01*
X194500000Y-117285714D02*
X194261904Y-117952380D01*
X194023809Y-117285714D02*
X194261904Y-117952380D01*
X194357142Y-118190476D01*
X194404761Y-118238095D01*
X194500000Y-118285714D01*
X192976190Y-117952380D02*
X192452380Y-117285714D01*
X192976190Y-117285714D02*
X192452380Y-117952380D01*
X192166666Y-117285714D02*
X191976190Y-117952380D01*
X191785714Y-117476190D01*
X191595238Y-117952380D01*
X191404761Y-117285714D01*
X191023809Y-117952380D02*
X191023809Y-116952380D01*
X190595238Y-117952380D02*
X190595238Y-117428571D01*
X190642857Y-117333333D01*
X190738095Y-117285714D01*
X190880952Y-117285714D01*
X190976190Y-117333333D01*
X191023809Y-117380952D01*
X189690476Y-117952380D02*
X189690476Y-117428571D01*
X189738095Y-117333333D01*
X189833333Y-117285714D01*
X190023809Y-117285714D01*
X190119047Y-117333333D01*
X189690476Y-117904761D02*
X189785714Y-117952380D01*
X190023809Y-117952380D01*
X190119047Y-117904761D01*
X190166666Y-117809523D01*
X190166666Y-117714285D01*
X190119047Y-117619047D01*
X190023809Y-117571428D01*
X189785714Y-117571428D01*
X189690476Y-117523809D01*
X189357142Y-117285714D02*
X188976190Y-117285714D01*
X189214285Y-116952380D02*
X189214285Y-117809523D01*
X189166666Y-117904761D01*
X189071428Y-117952380D01*
X188976190Y-117952380D01*
X188690476Y-117904761D02*
X188595238Y-117952380D01*
X188404761Y-117952380D01*
X188309523Y-117904761D01*
X188261904Y-117809523D01*
X188261904Y-117761904D01*
X188309523Y-117666666D01*
X188404761Y-117619047D01*
X188547619Y-117619047D01*
X188642857Y-117571428D01*
X188690476Y-117476190D01*
X188690476Y-117428571D01*
X188642857Y-117333333D01*
X188547619Y-117285714D01*
X188404761Y-117285714D01*
X188309523Y-117333333D01*
X187833333Y-117952380D02*
X187833333Y-117285714D01*
X187833333Y-116952380D02*
X187880952Y-117000000D01*
X187833333Y-117047619D01*
X187785714Y-117000000D01*
X187833333Y-116952380D01*
X187833333Y-117047619D01*
X187500000Y-117285714D02*
X187119047Y-117285714D01*
X187357142Y-116952380D02*
X187357142Y-117809523D01*
X187309523Y-117904761D01*
X187214285Y-117952380D01*
X187119047Y-117952380D01*
X186738095Y-117904761D02*
X186738095Y-117952380D01*
X186785714Y-118047619D01*
X186833333Y-118095238D01*
X185404761Y-117952380D02*
X185500000Y-117904761D01*
X185547619Y-117809523D01*
X185547619Y-116952380D01*
X185023809Y-117952380D02*
X185023809Y-117285714D01*
X185023809Y-116952380D02*
X185071428Y-117000000D01*
X185023809Y-117047619D01*
X184976190Y-117000000D01*
X185023809Y-116952380D01*
X185023809Y-117047619D01*
X184119047Y-117904761D02*
X184214285Y-117952380D01*
X184404761Y-117952380D01*
X184500000Y-117904761D01*
X184547619Y-117857142D01*
X184595238Y-117761904D01*
X184595238Y-117476190D01*
X184547619Y-117380952D01*
X184500000Y-117333333D01*
X184404761Y-117285714D01*
X184214285Y-117285714D01*
X184119047Y-117333333D01*
X183309523Y-117904761D02*
X183404761Y-117952380D01*
X183595238Y-117952380D01*
X183690476Y-117904761D01*
X183738095Y-117809523D01*
X183738095Y-117428571D01*
X183690476Y-117333333D01*
X183595238Y-117285714D01*
X183404761Y-117285714D01*
X183309523Y-117333333D01*
X183261904Y-117428571D01*
X183261904Y-117523809D01*
X183738095Y-117619047D01*
X182833333Y-117285714D02*
X182833333Y-117952380D01*
X182833333Y-117380952D02*
X182785714Y-117333333D01*
X182690476Y-117285714D01*
X182547619Y-117285714D01*
X182452380Y-117333333D01*
X182404761Y-117428571D01*
X182404761Y-117952380D01*
X181976190Y-117904761D02*
X181880952Y-117952380D01*
X181690476Y-117952380D01*
X181595238Y-117904761D01*
X181547619Y-117809523D01*
X181547619Y-117761904D01*
X181595238Y-117666666D01*
X181690476Y-117619047D01*
X181833333Y-117619047D01*
X181928571Y-117571428D01*
X181976190Y-117476190D01*
X181976190Y-117428571D01*
X181928571Y-117333333D01*
X181833333Y-117285714D01*
X181690476Y-117285714D01*
X181595238Y-117333333D01*
X180738095Y-117904761D02*
X180833333Y-117952380D01*
X181023809Y-117952380D01*
X181119047Y-117904761D01*
X181166666Y-117809523D01*
X181166666Y-117428571D01*
X181119047Y-117333333D01*
X181023809Y-117285714D01*
X180833333Y-117285714D01*
X180738095Y-117333333D01*
X180690476Y-117428571D01*
X180690476Y-117523809D01*
X181166666Y-117619047D01*
X179833333Y-117952380D02*
X179833333Y-116952380D01*
X179833333Y-117904761D02*
X179928571Y-117952380D01*
X180119047Y-117952380D01*
X180214285Y-117904761D01*
X180261904Y-117857142D01*
X180309523Y-117761904D01*
X180309523Y-117476190D01*
X180261904Y-117380952D01*
X180214285Y-117333333D01*
X180119047Y-117285714D01*
X179928571Y-117285714D01*
X179833333Y-117333333D01*
X178071428Y-117000000D02*
X178166666Y-116952380D01*
X178309523Y-116952380D01*
X178452380Y-117000000D01*
X178547619Y-117095238D01*
X178595238Y-117190476D01*
X178642857Y-117380952D01*
X178642857Y-117523809D01*
X178595238Y-117714285D01*
X178547619Y-117809523D01*
X178452380Y-117904761D01*
X178309523Y-117952380D01*
X178214285Y-117952380D01*
X178071428Y-117904761D01*
X178023809Y-117857142D01*
X178023809Y-117523809D01*
X178214285Y-117523809D01*
X177595238Y-117952380D02*
X177595238Y-116952380D01*
X177214285Y-116952380D01*
X177119047Y-117000000D01*
X177071428Y-117047619D01*
X177023809Y-117142857D01*
X177023809Y-117285714D01*
X177071428Y-117380952D01*
X177119047Y-117428571D01*
X177214285Y-117476190D01*
X177595238Y-117476190D01*
X176119047Y-117952380D02*
X176595238Y-117952380D01*
X176595238Y-116952380D01*
X175880952Y-117285714D02*
X175642857Y-117952380D01*
X175404761Y-117285714D01*
X175119047Y-116952380D02*
X174500000Y-116952380D01*
X174833333Y-117333333D01*
X174690476Y-117333333D01*
X174595238Y-117380952D01*
X174547619Y-117428571D01*
X174500000Y-117523809D01*
X174500000Y-117761904D01*
X174547619Y-117857142D01*
X174595238Y-117904761D01*
X174690476Y-117952380D01*
X174976190Y-117952380D01*
X175071428Y-117904761D01*
X175119047Y-117857142D01*
X199071428Y-121257142D02*
X199119047Y-121304761D01*
X199261904Y-121352380D01*
X199357142Y-121352380D01*
X199500000Y-121304761D01*
X199595238Y-121209523D01*
X199642857Y-121114285D01*
X199690476Y-120923809D01*
X199690476Y-120780952D01*
X199642857Y-120590476D01*
X199595238Y-120495238D01*
X199500000Y-120400000D01*
X199357142Y-120352380D01*
X199261904Y-120352380D01*
X199119047Y-120400000D01*
X199071428Y-120447619D01*
X198500000Y-121352380D02*
X198595238Y-121304761D01*
X198642857Y-121257142D01*
X198690476Y-121161904D01*
X198690476Y-120876190D01*
X198642857Y-120780952D01*
X198595238Y-120733333D01*
X198500000Y-120685714D01*
X198357142Y-120685714D01*
X198261904Y-120733333D01*
X198214285Y-120780952D01*
X198166666Y-120876190D01*
X198166666Y-121161904D01*
X198214285Y-121257142D01*
X198261904Y-121304761D01*
X198357142Y-121352380D01*
X198500000Y-121352380D01*
X197738095Y-120685714D02*
X197738095Y-121352380D01*
X197738095Y-120780952D02*
X197690476Y-120733333D01*
X197595238Y-120685714D01*
X197452380Y-120685714D01*
X197357142Y-120733333D01*
X197309523Y-120828571D01*
X197309523Y-121352380D01*
X196833333Y-120685714D02*
X196833333Y-121352380D01*
X196833333Y-120780952D02*
X196785714Y-120733333D01*
X196690476Y-120685714D01*
X196547619Y-120685714D01*
X196452380Y-120733333D01*
X196404761Y-120828571D01*
X196404761Y-121352380D01*
X195547619Y-121304761D02*
X195642857Y-121352380D01*
X195833333Y-121352380D01*
X195928571Y-121304761D01*
X195976190Y-121209523D01*
X195976190Y-120828571D01*
X195928571Y-120733333D01*
X195833333Y-120685714D01*
X195642857Y-120685714D01*
X195547619Y-120733333D01*
X195500000Y-120828571D01*
X195500000Y-120923809D01*
X195976190Y-121019047D01*
X194642857Y-121304761D02*
X194738095Y-121352380D01*
X194928571Y-121352380D01*
X195023809Y-121304761D01*
X195071428Y-121257142D01*
X195119047Y-121161904D01*
X195119047Y-120876190D01*
X195071428Y-120780952D01*
X195023809Y-120733333D01*
X194928571Y-120685714D01*
X194738095Y-120685714D01*
X194642857Y-120733333D01*
X194357142Y-120685714D02*
X193976190Y-120685714D01*
X194214285Y-120352380D02*
X194214285Y-121209523D01*
X194166666Y-121304761D01*
X194071428Y-121352380D01*
X193976190Y-121352380D01*
X192928571Y-121304761D02*
X192833333Y-121352380D01*
X192642857Y-121352380D01*
X192547619Y-121304761D01*
X192500000Y-121209523D01*
X192500000Y-121161904D01*
X192547619Y-121066666D01*
X192642857Y-121019047D01*
X192785714Y-121019047D01*
X192880952Y-120971428D01*
X192928571Y-120876190D01*
X192928571Y-120828571D01*
X192880952Y-120733333D01*
X192785714Y-120685714D01*
X192642857Y-120685714D01*
X192547619Y-120733333D01*
X191928571Y-121352380D02*
X192023809Y-121304761D01*
X192071428Y-121257142D01*
X192119047Y-121161904D01*
X192119047Y-120876190D01*
X192071428Y-120780952D01*
X192023809Y-120733333D01*
X191928571Y-120685714D01*
X191785714Y-120685714D01*
X191690476Y-120733333D01*
X191642857Y-120780952D01*
X191595238Y-120876190D01*
X191595238Y-121161904D01*
X191642857Y-121257142D01*
X191690476Y-121304761D01*
X191785714Y-121352380D01*
X191928571Y-121352380D01*
X191023809Y-121352380D02*
X191119047Y-121304761D01*
X191166666Y-121209523D01*
X191166666Y-120352380D01*
X190261904Y-121304761D02*
X190357142Y-121352380D01*
X190547619Y-121352380D01*
X190642857Y-121304761D01*
X190690476Y-121209523D01*
X190690476Y-120828571D01*
X190642857Y-120733333D01*
X190547619Y-120685714D01*
X190357142Y-120685714D01*
X190261904Y-120733333D01*
X190214285Y-120828571D01*
X190214285Y-120923809D01*
X190690476Y-121019047D01*
X189785714Y-120685714D02*
X189785714Y-121352380D01*
X189785714Y-120780952D02*
X189738095Y-120733333D01*
X189642857Y-120685714D01*
X189500000Y-120685714D01*
X189404761Y-120733333D01*
X189357142Y-120828571D01*
X189357142Y-121352380D01*
X188738095Y-121352380D02*
X188833333Y-121304761D01*
X188880952Y-121257142D01*
X188928571Y-121161904D01*
X188928571Y-120876190D01*
X188880952Y-120780952D01*
X188833333Y-120733333D01*
X188738095Y-120685714D01*
X188595238Y-120685714D01*
X188500000Y-120733333D01*
X188452380Y-120780952D01*
X188404761Y-120876190D01*
X188404761Y-121161904D01*
X188452380Y-121257142D01*
X188500000Y-121304761D01*
X188595238Y-121352380D01*
X188738095Y-121352380D01*
X187976190Y-121352380D02*
X187976190Y-120685714D01*
X187976190Y-120352380D02*
X188023809Y-120400000D01*
X187976190Y-120447619D01*
X187928571Y-120400000D01*
X187976190Y-120352380D01*
X187976190Y-120447619D01*
X187071428Y-121352380D02*
X187071428Y-120352380D01*
X187071428Y-121304761D02*
X187166666Y-121352380D01*
X187357142Y-121352380D01*
X187452380Y-121304761D01*
X187500000Y-121257142D01*
X187547619Y-121161904D01*
X187547619Y-120876190D01*
X187500000Y-120780952D01*
X187452380Y-120733333D01*
X187357142Y-120685714D01*
X187166666Y-120685714D01*
X187071428Y-120733333D01*
X185976190Y-120685714D02*
X185595238Y-120685714D01*
X185833333Y-120352380D02*
X185833333Y-121209523D01*
X185785714Y-121304761D01*
X185690476Y-121352380D01*
X185595238Y-121352380D01*
X185119047Y-121352380D02*
X185214285Y-121304761D01*
X185261904Y-121257142D01*
X185309523Y-121161904D01*
X185309523Y-120876190D01*
X185261904Y-120780952D01*
X185214285Y-120733333D01*
X185119047Y-120685714D01*
X184976190Y-120685714D01*
X184880952Y-120733333D01*
X184833333Y-120780952D01*
X184785714Y-120876190D01*
X184785714Y-121161904D01*
X184833333Y-121257142D01*
X184880952Y-121304761D01*
X184976190Y-121352380D01*
X185119047Y-121352380D01*
X183309523Y-120352380D02*
X183309523Y-121066666D01*
X183357142Y-121209523D01*
X183452380Y-121304761D01*
X183595238Y-121352380D01*
X183690476Y-121352380D01*
X182880952Y-120447619D02*
X182833333Y-120400000D01*
X182738095Y-120352380D01*
X182500000Y-120352380D01*
X182404761Y-120400000D01*
X182357142Y-120447619D01*
X182309523Y-120542857D01*
X182309523Y-120638095D01*
X182357142Y-120780952D01*
X182928571Y-121352380D01*
X182309523Y-121352380D01*
%LPC*%
D11*
X210000000Y-124000000D03*
X210000000Y-111000000D03*
X172000000Y-124000000D03*
X172000000Y-111000000D03*
D12*
X210000000Y-118540000D03*
D13*
X210000000Y-116000000D03*
M02*
