G04 #@! TF.GenerationSoftware,KiCad,Pcbnew,(5.1.4)-1*
G04 #@! TF.CreationDate,2020-03-24T23:26:33+09:00*
G04 #@! TF.ProjectId,solenoid-driver,736f6c65-6e6f-4696-942d-647269766572,rev?*
G04 #@! TF.SameCoordinates,Original*
G04 #@! TF.FileFunction,Paste,Top*
G04 #@! TF.FilePolarity,Positive*
%FSLAX46Y46*%
G04 Gerber Fmt 4.6, Leading zero omitted, Abs format (unit mm)*
G04 Created by KiCad (PCBNEW (5.1.4)-1) date 2020-03-24 23:26:33*
%MOMM*%
%LPD*%
G04 APERTURE LIST*
%ADD10R,1.200000X0.900000*%
%ADD11C,0.100000*%
%ADD12C,0.975000*%
%ADD13R,0.800000X0.900000*%
%ADD14R,1.060000X0.650000*%
%ADD15R,5.400000X2.900000*%
%ADD16R,1.550000X0.600000*%
%ADD17R,1.800000X1.200000*%
%ADD18R,1.800000X2.500000*%
%ADD19C,1.600000*%
%ADD20C,1.250000*%
G04 APERTURE END LIST*
D10*
X186250000Y-123400000D03*
X186250000Y-120100000D03*
D11*
G36*
X178230142Y-116701174D02*
G01*
X178253803Y-116704684D01*
X178277007Y-116710496D01*
X178299529Y-116718554D01*
X178321153Y-116728782D01*
X178341670Y-116741079D01*
X178360883Y-116755329D01*
X178378607Y-116771393D01*
X178394671Y-116789117D01*
X178408921Y-116808330D01*
X178421218Y-116828847D01*
X178431446Y-116850471D01*
X178439504Y-116872993D01*
X178445316Y-116896197D01*
X178448826Y-116919858D01*
X178450000Y-116943750D01*
X178450000Y-117431250D01*
X178448826Y-117455142D01*
X178445316Y-117478803D01*
X178439504Y-117502007D01*
X178431446Y-117524529D01*
X178421218Y-117546153D01*
X178408921Y-117566670D01*
X178394671Y-117585883D01*
X178378607Y-117603607D01*
X178360883Y-117619671D01*
X178341670Y-117633921D01*
X178321153Y-117646218D01*
X178299529Y-117656446D01*
X178277007Y-117664504D01*
X178253803Y-117670316D01*
X178230142Y-117673826D01*
X178206250Y-117675000D01*
X177293750Y-117675000D01*
X177269858Y-117673826D01*
X177246197Y-117670316D01*
X177222993Y-117664504D01*
X177200471Y-117656446D01*
X177178847Y-117646218D01*
X177158330Y-117633921D01*
X177139117Y-117619671D01*
X177121393Y-117603607D01*
X177105329Y-117585883D01*
X177091079Y-117566670D01*
X177078782Y-117546153D01*
X177068554Y-117524529D01*
X177060496Y-117502007D01*
X177054684Y-117478803D01*
X177051174Y-117455142D01*
X177050000Y-117431250D01*
X177050000Y-116943750D01*
X177051174Y-116919858D01*
X177054684Y-116896197D01*
X177060496Y-116872993D01*
X177068554Y-116850471D01*
X177078782Y-116828847D01*
X177091079Y-116808330D01*
X177105329Y-116789117D01*
X177121393Y-116771393D01*
X177139117Y-116755329D01*
X177158330Y-116741079D01*
X177178847Y-116728782D01*
X177200471Y-116718554D01*
X177222993Y-116710496D01*
X177246197Y-116704684D01*
X177269858Y-116701174D01*
X177293750Y-116700000D01*
X178206250Y-116700000D01*
X178230142Y-116701174D01*
X178230142Y-116701174D01*
G37*
D12*
X177750000Y-117187500D03*
D11*
G36*
X178230142Y-114826174D02*
G01*
X178253803Y-114829684D01*
X178277007Y-114835496D01*
X178299529Y-114843554D01*
X178321153Y-114853782D01*
X178341670Y-114866079D01*
X178360883Y-114880329D01*
X178378607Y-114896393D01*
X178394671Y-114914117D01*
X178408921Y-114933330D01*
X178421218Y-114953847D01*
X178431446Y-114975471D01*
X178439504Y-114997993D01*
X178445316Y-115021197D01*
X178448826Y-115044858D01*
X178450000Y-115068750D01*
X178450000Y-115556250D01*
X178448826Y-115580142D01*
X178445316Y-115603803D01*
X178439504Y-115627007D01*
X178431446Y-115649529D01*
X178421218Y-115671153D01*
X178408921Y-115691670D01*
X178394671Y-115710883D01*
X178378607Y-115728607D01*
X178360883Y-115744671D01*
X178341670Y-115758921D01*
X178321153Y-115771218D01*
X178299529Y-115781446D01*
X178277007Y-115789504D01*
X178253803Y-115795316D01*
X178230142Y-115798826D01*
X178206250Y-115800000D01*
X177293750Y-115800000D01*
X177269858Y-115798826D01*
X177246197Y-115795316D01*
X177222993Y-115789504D01*
X177200471Y-115781446D01*
X177178847Y-115771218D01*
X177158330Y-115758921D01*
X177139117Y-115744671D01*
X177121393Y-115728607D01*
X177105329Y-115710883D01*
X177091079Y-115691670D01*
X177078782Y-115671153D01*
X177068554Y-115649529D01*
X177060496Y-115627007D01*
X177054684Y-115603803D01*
X177051174Y-115580142D01*
X177050000Y-115556250D01*
X177050000Y-115068750D01*
X177051174Y-115044858D01*
X177054684Y-115021197D01*
X177060496Y-114997993D01*
X177068554Y-114975471D01*
X177078782Y-114953847D01*
X177091079Y-114933330D01*
X177105329Y-114914117D01*
X177121393Y-114896393D01*
X177139117Y-114880329D01*
X177158330Y-114866079D01*
X177178847Y-114853782D01*
X177200471Y-114843554D01*
X177222993Y-114835496D01*
X177246197Y-114829684D01*
X177269858Y-114826174D01*
X177293750Y-114825000D01*
X178206250Y-114825000D01*
X178230142Y-114826174D01*
X178230142Y-114826174D01*
G37*
D12*
X177750000Y-115312500D03*
D13*
X179000000Y-110750000D03*
X179950000Y-112750000D03*
X178050000Y-112750000D03*
D11*
G36*
X176230142Y-112201174D02*
G01*
X176253803Y-112204684D01*
X176277007Y-112210496D01*
X176299529Y-112218554D01*
X176321153Y-112228782D01*
X176341670Y-112241079D01*
X176360883Y-112255329D01*
X176378607Y-112271393D01*
X176394671Y-112289117D01*
X176408921Y-112308330D01*
X176421218Y-112328847D01*
X176431446Y-112350471D01*
X176439504Y-112372993D01*
X176445316Y-112396197D01*
X176448826Y-112419858D01*
X176450000Y-112443750D01*
X176450000Y-112931250D01*
X176448826Y-112955142D01*
X176445316Y-112978803D01*
X176439504Y-113002007D01*
X176431446Y-113024529D01*
X176421218Y-113046153D01*
X176408921Y-113066670D01*
X176394671Y-113085883D01*
X176378607Y-113103607D01*
X176360883Y-113119671D01*
X176341670Y-113133921D01*
X176321153Y-113146218D01*
X176299529Y-113156446D01*
X176277007Y-113164504D01*
X176253803Y-113170316D01*
X176230142Y-113173826D01*
X176206250Y-113175000D01*
X175293750Y-113175000D01*
X175269858Y-113173826D01*
X175246197Y-113170316D01*
X175222993Y-113164504D01*
X175200471Y-113156446D01*
X175178847Y-113146218D01*
X175158330Y-113133921D01*
X175139117Y-113119671D01*
X175121393Y-113103607D01*
X175105329Y-113085883D01*
X175091079Y-113066670D01*
X175078782Y-113046153D01*
X175068554Y-113024529D01*
X175060496Y-113002007D01*
X175054684Y-112978803D01*
X175051174Y-112955142D01*
X175050000Y-112931250D01*
X175050000Y-112443750D01*
X175051174Y-112419858D01*
X175054684Y-112396197D01*
X175060496Y-112372993D01*
X175068554Y-112350471D01*
X175078782Y-112328847D01*
X175091079Y-112308330D01*
X175105329Y-112289117D01*
X175121393Y-112271393D01*
X175139117Y-112255329D01*
X175158330Y-112241079D01*
X175178847Y-112228782D01*
X175200471Y-112218554D01*
X175222993Y-112210496D01*
X175246197Y-112204684D01*
X175269858Y-112201174D01*
X175293750Y-112200000D01*
X176206250Y-112200000D01*
X176230142Y-112201174D01*
X176230142Y-112201174D01*
G37*
D12*
X175750000Y-112687500D03*
D11*
G36*
X176230142Y-110326174D02*
G01*
X176253803Y-110329684D01*
X176277007Y-110335496D01*
X176299529Y-110343554D01*
X176321153Y-110353782D01*
X176341670Y-110366079D01*
X176360883Y-110380329D01*
X176378607Y-110396393D01*
X176394671Y-110414117D01*
X176408921Y-110433330D01*
X176421218Y-110453847D01*
X176431446Y-110475471D01*
X176439504Y-110497993D01*
X176445316Y-110521197D01*
X176448826Y-110544858D01*
X176450000Y-110568750D01*
X176450000Y-111056250D01*
X176448826Y-111080142D01*
X176445316Y-111103803D01*
X176439504Y-111127007D01*
X176431446Y-111149529D01*
X176421218Y-111171153D01*
X176408921Y-111191670D01*
X176394671Y-111210883D01*
X176378607Y-111228607D01*
X176360883Y-111244671D01*
X176341670Y-111258921D01*
X176321153Y-111271218D01*
X176299529Y-111281446D01*
X176277007Y-111289504D01*
X176253803Y-111295316D01*
X176230142Y-111298826D01*
X176206250Y-111300000D01*
X175293750Y-111300000D01*
X175269858Y-111298826D01*
X175246197Y-111295316D01*
X175222993Y-111289504D01*
X175200471Y-111281446D01*
X175178847Y-111271218D01*
X175158330Y-111258921D01*
X175139117Y-111244671D01*
X175121393Y-111228607D01*
X175105329Y-111210883D01*
X175091079Y-111191670D01*
X175078782Y-111171153D01*
X175068554Y-111149529D01*
X175060496Y-111127007D01*
X175054684Y-111103803D01*
X175051174Y-111080142D01*
X175050000Y-111056250D01*
X175050000Y-110568750D01*
X175051174Y-110544858D01*
X175054684Y-110521197D01*
X175060496Y-110497993D01*
X175068554Y-110475471D01*
X175078782Y-110453847D01*
X175091079Y-110433330D01*
X175105329Y-110414117D01*
X175121393Y-110396393D01*
X175139117Y-110380329D01*
X175158330Y-110366079D01*
X175178847Y-110353782D01*
X175200471Y-110343554D01*
X175222993Y-110335496D01*
X175246197Y-110329684D01*
X175269858Y-110326174D01*
X175293750Y-110325000D01*
X176206250Y-110325000D01*
X176230142Y-110326174D01*
X176230142Y-110326174D01*
G37*
D12*
X175750000Y-110812500D03*
D11*
G36*
X182730142Y-116701174D02*
G01*
X182753803Y-116704684D01*
X182777007Y-116710496D01*
X182799529Y-116718554D01*
X182821153Y-116728782D01*
X182841670Y-116741079D01*
X182860883Y-116755329D01*
X182878607Y-116771393D01*
X182894671Y-116789117D01*
X182908921Y-116808330D01*
X182921218Y-116828847D01*
X182931446Y-116850471D01*
X182939504Y-116872993D01*
X182945316Y-116896197D01*
X182948826Y-116919858D01*
X182950000Y-116943750D01*
X182950000Y-117431250D01*
X182948826Y-117455142D01*
X182945316Y-117478803D01*
X182939504Y-117502007D01*
X182931446Y-117524529D01*
X182921218Y-117546153D01*
X182908921Y-117566670D01*
X182894671Y-117585883D01*
X182878607Y-117603607D01*
X182860883Y-117619671D01*
X182841670Y-117633921D01*
X182821153Y-117646218D01*
X182799529Y-117656446D01*
X182777007Y-117664504D01*
X182753803Y-117670316D01*
X182730142Y-117673826D01*
X182706250Y-117675000D01*
X181793750Y-117675000D01*
X181769858Y-117673826D01*
X181746197Y-117670316D01*
X181722993Y-117664504D01*
X181700471Y-117656446D01*
X181678847Y-117646218D01*
X181658330Y-117633921D01*
X181639117Y-117619671D01*
X181621393Y-117603607D01*
X181605329Y-117585883D01*
X181591079Y-117566670D01*
X181578782Y-117546153D01*
X181568554Y-117524529D01*
X181560496Y-117502007D01*
X181554684Y-117478803D01*
X181551174Y-117455142D01*
X181550000Y-117431250D01*
X181550000Y-116943750D01*
X181551174Y-116919858D01*
X181554684Y-116896197D01*
X181560496Y-116872993D01*
X181568554Y-116850471D01*
X181578782Y-116828847D01*
X181591079Y-116808330D01*
X181605329Y-116789117D01*
X181621393Y-116771393D01*
X181639117Y-116755329D01*
X181658330Y-116741079D01*
X181678847Y-116728782D01*
X181700471Y-116718554D01*
X181722993Y-116710496D01*
X181746197Y-116704684D01*
X181769858Y-116701174D01*
X181793750Y-116700000D01*
X182706250Y-116700000D01*
X182730142Y-116701174D01*
X182730142Y-116701174D01*
G37*
D12*
X182250000Y-117187500D03*
D11*
G36*
X182730142Y-114826174D02*
G01*
X182753803Y-114829684D01*
X182777007Y-114835496D01*
X182799529Y-114843554D01*
X182821153Y-114853782D01*
X182841670Y-114866079D01*
X182860883Y-114880329D01*
X182878607Y-114896393D01*
X182894671Y-114914117D01*
X182908921Y-114933330D01*
X182921218Y-114953847D01*
X182931446Y-114975471D01*
X182939504Y-114997993D01*
X182945316Y-115021197D01*
X182948826Y-115044858D01*
X182950000Y-115068750D01*
X182950000Y-115556250D01*
X182948826Y-115580142D01*
X182945316Y-115603803D01*
X182939504Y-115627007D01*
X182931446Y-115649529D01*
X182921218Y-115671153D01*
X182908921Y-115691670D01*
X182894671Y-115710883D01*
X182878607Y-115728607D01*
X182860883Y-115744671D01*
X182841670Y-115758921D01*
X182821153Y-115771218D01*
X182799529Y-115781446D01*
X182777007Y-115789504D01*
X182753803Y-115795316D01*
X182730142Y-115798826D01*
X182706250Y-115800000D01*
X181793750Y-115800000D01*
X181769858Y-115798826D01*
X181746197Y-115795316D01*
X181722993Y-115789504D01*
X181700471Y-115781446D01*
X181678847Y-115771218D01*
X181658330Y-115758921D01*
X181639117Y-115744671D01*
X181621393Y-115728607D01*
X181605329Y-115710883D01*
X181591079Y-115691670D01*
X181578782Y-115671153D01*
X181568554Y-115649529D01*
X181560496Y-115627007D01*
X181554684Y-115603803D01*
X181551174Y-115580142D01*
X181550000Y-115556250D01*
X181550000Y-115068750D01*
X181551174Y-115044858D01*
X181554684Y-115021197D01*
X181560496Y-114997993D01*
X181568554Y-114975471D01*
X181578782Y-114953847D01*
X181591079Y-114933330D01*
X181605329Y-114914117D01*
X181621393Y-114896393D01*
X181639117Y-114880329D01*
X181658330Y-114866079D01*
X181678847Y-114853782D01*
X181700471Y-114843554D01*
X181722993Y-114835496D01*
X181746197Y-114829684D01*
X181769858Y-114826174D01*
X181793750Y-114825000D01*
X182706250Y-114825000D01*
X182730142Y-114826174D01*
X182730142Y-114826174D01*
G37*
D12*
X182250000Y-115312500D03*
D11*
G36*
X180480142Y-116701174D02*
G01*
X180503803Y-116704684D01*
X180527007Y-116710496D01*
X180549529Y-116718554D01*
X180571153Y-116728782D01*
X180591670Y-116741079D01*
X180610883Y-116755329D01*
X180628607Y-116771393D01*
X180644671Y-116789117D01*
X180658921Y-116808330D01*
X180671218Y-116828847D01*
X180681446Y-116850471D01*
X180689504Y-116872993D01*
X180695316Y-116896197D01*
X180698826Y-116919858D01*
X180700000Y-116943750D01*
X180700000Y-117431250D01*
X180698826Y-117455142D01*
X180695316Y-117478803D01*
X180689504Y-117502007D01*
X180681446Y-117524529D01*
X180671218Y-117546153D01*
X180658921Y-117566670D01*
X180644671Y-117585883D01*
X180628607Y-117603607D01*
X180610883Y-117619671D01*
X180591670Y-117633921D01*
X180571153Y-117646218D01*
X180549529Y-117656446D01*
X180527007Y-117664504D01*
X180503803Y-117670316D01*
X180480142Y-117673826D01*
X180456250Y-117675000D01*
X179543750Y-117675000D01*
X179519858Y-117673826D01*
X179496197Y-117670316D01*
X179472993Y-117664504D01*
X179450471Y-117656446D01*
X179428847Y-117646218D01*
X179408330Y-117633921D01*
X179389117Y-117619671D01*
X179371393Y-117603607D01*
X179355329Y-117585883D01*
X179341079Y-117566670D01*
X179328782Y-117546153D01*
X179318554Y-117524529D01*
X179310496Y-117502007D01*
X179304684Y-117478803D01*
X179301174Y-117455142D01*
X179300000Y-117431250D01*
X179300000Y-116943750D01*
X179301174Y-116919858D01*
X179304684Y-116896197D01*
X179310496Y-116872993D01*
X179318554Y-116850471D01*
X179328782Y-116828847D01*
X179341079Y-116808330D01*
X179355329Y-116789117D01*
X179371393Y-116771393D01*
X179389117Y-116755329D01*
X179408330Y-116741079D01*
X179428847Y-116728782D01*
X179450471Y-116718554D01*
X179472993Y-116710496D01*
X179496197Y-116704684D01*
X179519858Y-116701174D01*
X179543750Y-116700000D01*
X180456250Y-116700000D01*
X180480142Y-116701174D01*
X180480142Y-116701174D01*
G37*
D12*
X180000000Y-117187500D03*
D11*
G36*
X180480142Y-114826174D02*
G01*
X180503803Y-114829684D01*
X180527007Y-114835496D01*
X180549529Y-114843554D01*
X180571153Y-114853782D01*
X180591670Y-114866079D01*
X180610883Y-114880329D01*
X180628607Y-114896393D01*
X180644671Y-114914117D01*
X180658921Y-114933330D01*
X180671218Y-114953847D01*
X180681446Y-114975471D01*
X180689504Y-114997993D01*
X180695316Y-115021197D01*
X180698826Y-115044858D01*
X180700000Y-115068750D01*
X180700000Y-115556250D01*
X180698826Y-115580142D01*
X180695316Y-115603803D01*
X180689504Y-115627007D01*
X180681446Y-115649529D01*
X180671218Y-115671153D01*
X180658921Y-115691670D01*
X180644671Y-115710883D01*
X180628607Y-115728607D01*
X180610883Y-115744671D01*
X180591670Y-115758921D01*
X180571153Y-115771218D01*
X180549529Y-115781446D01*
X180527007Y-115789504D01*
X180503803Y-115795316D01*
X180480142Y-115798826D01*
X180456250Y-115800000D01*
X179543750Y-115800000D01*
X179519858Y-115798826D01*
X179496197Y-115795316D01*
X179472993Y-115789504D01*
X179450471Y-115781446D01*
X179428847Y-115771218D01*
X179408330Y-115758921D01*
X179389117Y-115744671D01*
X179371393Y-115728607D01*
X179355329Y-115710883D01*
X179341079Y-115691670D01*
X179328782Y-115671153D01*
X179318554Y-115649529D01*
X179310496Y-115627007D01*
X179304684Y-115603803D01*
X179301174Y-115580142D01*
X179300000Y-115556250D01*
X179300000Y-115068750D01*
X179301174Y-115044858D01*
X179304684Y-115021197D01*
X179310496Y-114997993D01*
X179318554Y-114975471D01*
X179328782Y-114953847D01*
X179341079Y-114933330D01*
X179355329Y-114914117D01*
X179371393Y-114896393D01*
X179389117Y-114880329D01*
X179408330Y-114866079D01*
X179428847Y-114853782D01*
X179450471Y-114843554D01*
X179472993Y-114835496D01*
X179496197Y-114829684D01*
X179519858Y-114826174D01*
X179543750Y-114825000D01*
X180456250Y-114825000D01*
X180480142Y-114826174D01*
X180480142Y-114826174D01*
G37*
D12*
X180000000Y-115312500D03*
D14*
X193100000Y-115050000D03*
X193100000Y-116950000D03*
X190900000Y-116950000D03*
X190900000Y-116000000D03*
X190900000Y-115050000D03*
X184400000Y-113050000D03*
X184400000Y-114000000D03*
X184400000Y-114950000D03*
X186600000Y-114950000D03*
X186600000Y-113050000D03*
X186600000Y-114000000D03*
D11*
G36*
X191580142Y-112051174D02*
G01*
X191603803Y-112054684D01*
X191627007Y-112060496D01*
X191649529Y-112068554D01*
X191671153Y-112078782D01*
X191691670Y-112091079D01*
X191710883Y-112105329D01*
X191728607Y-112121393D01*
X191744671Y-112139117D01*
X191758921Y-112158330D01*
X191771218Y-112178847D01*
X191781446Y-112200471D01*
X191789504Y-112222993D01*
X191795316Y-112246197D01*
X191798826Y-112269858D01*
X191800000Y-112293750D01*
X191800000Y-113206250D01*
X191798826Y-113230142D01*
X191795316Y-113253803D01*
X191789504Y-113277007D01*
X191781446Y-113299529D01*
X191771218Y-113321153D01*
X191758921Y-113341670D01*
X191744671Y-113360883D01*
X191728607Y-113378607D01*
X191710883Y-113394671D01*
X191691670Y-113408921D01*
X191671153Y-113421218D01*
X191649529Y-113431446D01*
X191627007Y-113439504D01*
X191603803Y-113445316D01*
X191580142Y-113448826D01*
X191556250Y-113450000D01*
X191068750Y-113450000D01*
X191044858Y-113448826D01*
X191021197Y-113445316D01*
X190997993Y-113439504D01*
X190975471Y-113431446D01*
X190953847Y-113421218D01*
X190933330Y-113408921D01*
X190914117Y-113394671D01*
X190896393Y-113378607D01*
X190880329Y-113360883D01*
X190866079Y-113341670D01*
X190853782Y-113321153D01*
X190843554Y-113299529D01*
X190835496Y-113277007D01*
X190829684Y-113253803D01*
X190826174Y-113230142D01*
X190825000Y-113206250D01*
X190825000Y-112293750D01*
X190826174Y-112269858D01*
X190829684Y-112246197D01*
X190835496Y-112222993D01*
X190843554Y-112200471D01*
X190853782Y-112178847D01*
X190866079Y-112158330D01*
X190880329Y-112139117D01*
X190896393Y-112121393D01*
X190914117Y-112105329D01*
X190933330Y-112091079D01*
X190953847Y-112078782D01*
X190975471Y-112068554D01*
X190997993Y-112060496D01*
X191021197Y-112054684D01*
X191044858Y-112051174D01*
X191068750Y-112050000D01*
X191556250Y-112050000D01*
X191580142Y-112051174D01*
X191580142Y-112051174D01*
G37*
D12*
X191312500Y-112750000D03*
D11*
G36*
X193455142Y-112051174D02*
G01*
X193478803Y-112054684D01*
X193502007Y-112060496D01*
X193524529Y-112068554D01*
X193546153Y-112078782D01*
X193566670Y-112091079D01*
X193585883Y-112105329D01*
X193603607Y-112121393D01*
X193619671Y-112139117D01*
X193633921Y-112158330D01*
X193646218Y-112178847D01*
X193656446Y-112200471D01*
X193664504Y-112222993D01*
X193670316Y-112246197D01*
X193673826Y-112269858D01*
X193675000Y-112293750D01*
X193675000Y-113206250D01*
X193673826Y-113230142D01*
X193670316Y-113253803D01*
X193664504Y-113277007D01*
X193656446Y-113299529D01*
X193646218Y-113321153D01*
X193633921Y-113341670D01*
X193619671Y-113360883D01*
X193603607Y-113378607D01*
X193585883Y-113394671D01*
X193566670Y-113408921D01*
X193546153Y-113421218D01*
X193524529Y-113431446D01*
X193502007Y-113439504D01*
X193478803Y-113445316D01*
X193455142Y-113448826D01*
X193431250Y-113450000D01*
X192943750Y-113450000D01*
X192919858Y-113448826D01*
X192896197Y-113445316D01*
X192872993Y-113439504D01*
X192850471Y-113431446D01*
X192828847Y-113421218D01*
X192808330Y-113408921D01*
X192789117Y-113394671D01*
X192771393Y-113378607D01*
X192755329Y-113360883D01*
X192741079Y-113341670D01*
X192728782Y-113321153D01*
X192718554Y-113299529D01*
X192710496Y-113277007D01*
X192704684Y-113253803D01*
X192701174Y-113230142D01*
X192700000Y-113206250D01*
X192700000Y-112293750D01*
X192701174Y-112269858D01*
X192704684Y-112246197D01*
X192710496Y-112222993D01*
X192718554Y-112200471D01*
X192728782Y-112178847D01*
X192741079Y-112158330D01*
X192755329Y-112139117D01*
X192771393Y-112121393D01*
X192789117Y-112105329D01*
X192808330Y-112091079D01*
X192828847Y-112078782D01*
X192850471Y-112068554D01*
X192872993Y-112060496D01*
X192896197Y-112054684D01*
X192919858Y-112051174D01*
X192943750Y-112050000D01*
X193431250Y-112050000D01*
X193455142Y-112051174D01*
X193455142Y-112051174D01*
G37*
D12*
X193187500Y-112750000D03*
D11*
G36*
X191580142Y-109801174D02*
G01*
X191603803Y-109804684D01*
X191627007Y-109810496D01*
X191649529Y-109818554D01*
X191671153Y-109828782D01*
X191691670Y-109841079D01*
X191710883Y-109855329D01*
X191728607Y-109871393D01*
X191744671Y-109889117D01*
X191758921Y-109908330D01*
X191771218Y-109928847D01*
X191781446Y-109950471D01*
X191789504Y-109972993D01*
X191795316Y-109996197D01*
X191798826Y-110019858D01*
X191800000Y-110043750D01*
X191800000Y-110956250D01*
X191798826Y-110980142D01*
X191795316Y-111003803D01*
X191789504Y-111027007D01*
X191781446Y-111049529D01*
X191771218Y-111071153D01*
X191758921Y-111091670D01*
X191744671Y-111110883D01*
X191728607Y-111128607D01*
X191710883Y-111144671D01*
X191691670Y-111158921D01*
X191671153Y-111171218D01*
X191649529Y-111181446D01*
X191627007Y-111189504D01*
X191603803Y-111195316D01*
X191580142Y-111198826D01*
X191556250Y-111200000D01*
X191068750Y-111200000D01*
X191044858Y-111198826D01*
X191021197Y-111195316D01*
X190997993Y-111189504D01*
X190975471Y-111181446D01*
X190953847Y-111171218D01*
X190933330Y-111158921D01*
X190914117Y-111144671D01*
X190896393Y-111128607D01*
X190880329Y-111110883D01*
X190866079Y-111091670D01*
X190853782Y-111071153D01*
X190843554Y-111049529D01*
X190835496Y-111027007D01*
X190829684Y-111003803D01*
X190826174Y-110980142D01*
X190825000Y-110956250D01*
X190825000Y-110043750D01*
X190826174Y-110019858D01*
X190829684Y-109996197D01*
X190835496Y-109972993D01*
X190843554Y-109950471D01*
X190853782Y-109928847D01*
X190866079Y-109908330D01*
X190880329Y-109889117D01*
X190896393Y-109871393D01*
X190914117Y-109855329D01*
X190933330Y-109841079D01*
X190953847Y-109828782D01*
X190975471Y-109818554D01*
X190997993Y-109810496D01*
X191021197Y-109804684D01*
X191044858Y-109801174D01*
X191068750Y-109800000D01*
X191556250Y-109800000D01*
X191580142Y-109801174D01*
X191580142Y-109801174D01*
G37*
D12*
X191312500Y-110500000D03*
D11*
G36*
X193455142Y-109801174D02*
G01*
X193478803Y-109804684D01*
X193502007Y-109810496D01*
X193524529Y-109818554D01*
X193546153Y-109828782D01*
X193566670Y-109841079D01*
X193585883Y-109855329D01*
X193603607Y-109871393D01*
X193619671Y-109889117D01*
X193633921Y-109908330D01*
X193646218Y-109928847D01*
X193656446Y-109950471D01*
X193664504Y-109972993D01*
X193670316Y-109996197D01*
X193673826Y-110019858D01*
X193675000Y-110043750D01*
X193675000Y-110956250D01*
X193673826Y-110980142D01*
X193670316Y-111003803D01*
X193664504Y-111027007D01*
X193656446Y-111049529D01*
X193646218Y-111071153D01*
X193633921Y-111091670D01*
X193619671Y-111110883D01*
X193603607Y-111128607D01*
X193585883Y-111144671D01*
X193566670Y-111158921D01*
X193546153Y-111171218D01*
X193524529Y-111181446D01*
X193502007Y-111189504D01*
X193478803Y-111195316D01*
X193455142Y-111198826D01*
X193431250Y-111200000D01*
X192943750Y-111200000D01*
X192919858Y-111198826D01*
X192896197Y-111195316D01*
X192872993Y-111189504D01*
X192850471Y-111181446D01*
X192828847Y-111171218D01*
X192808330Y-111158921D01*
X192789117Y-111144671D01*
X192771393Y-111128607D01*
X192755329Y-111110883D01*
X192741079Y-111091670D01*
X192728782Y-111071153D01*
X192718554Y-111049529D01*
X192710496Y-111027007D01*
X192704684Y-111003803D01*
X192701174Y-110980142D01*
X192700000Y-110956250D01*
X192700000Y-110043750D01*
X192701174Y-110019858D01*
X192704684Y-109996197D01*
X192710496Y-109972993D01*
X192718554Y-109950471D01*
X192728782Y-109928847D01*
X192741079Y-109908330D01*
X192755329Y-109889117D01*
X192771393Y-109871393D01*
X192789117Y-109855329D01*
X192808330Y-109841079D01*
X192828847Y-109828782D01*
X192850471Y-109818554D01*
X192872993Y-109810496D01*
X192896197Y-109804684D01*
X192919858Y-109801174D01*
X192943750Y-109800000D01*
X193431250Y-109800000D01*
X193455142Y-109801174D01*
X193455142Y-109801174D01*
G37*
D12*
X193187500Y-110500000D03*
D11*
G36*
X186705142Y-116301174D02*
G01*
X186728803Y-116304684D01*
X186752007Y-116310496D01*
X186774529Y-116318554D01*
X186796153Y-116328782D01*
X186816670Y-116341079D01*
X186835883Y-116355329D01*
X186853607Y-116371393D01*
X186869671Y-116389117D01*
X186883921Y-116408330D01*
X186896218Y-116428847D01*
X186906446Y-116450471D01*
X186914504Y-116472993D01*
X186920316Y-116496197D01*
X186923826Y-116519858D01*
X186925000Y-116543750D01*
X186925000Y-117456250D01*
X186923826Y-117480142D01*
X186920316Y-117503803D01*
X186914504Y-117527007D01*
X186906446Y-117549529D01*
X186896218Y-117571153D01*
X186883921Y-117591670D01*
X186869671Y-117610883D01*
X186853607Y-117628607D01*
X186835883Y-117644671D01*
X186816670Y-117658921D01*
X186796153Y-117671218D01*
X186774529Y-117681446D01*
X186752007Y-117689504D01*
X186728803Y-117695316D01*
X186705142Y-117698826D01*
X186681250Y-117700000D01*
X186193750Y-117700000D01*
X186169858Y-117698826D01*
X186146197Y-117695316D01*
X186122993Y-117689504D01*
X186100471Y-117681446D01*
X186078847Y-117671218D01*
X186058330Y-117658921D01*
X186039117Y-117644671D01*
X186021393Y-117628607D01*
X186005329Y-117610883D01*
X185991079Y-117591670D01*
X185978782Y-117571153D01*
X185968554Y-117549529D01*
X185960496Y-117527007D01*
X185954684Y-117503803D01*
X185951174Y-117480142D01*
X185950000Y-117456250D01*
X185950000Y-116543750D01*
X185951174Y-116519858D01*
X185954684Y-116496197D01*
X185960496Y-116472993D01*
X185968554Y-116450471D01*
X185978782Y-116428847D01*
X185991079Y-116408330D01*
X186005329Y-116389117D01*
X186021393Y-116371393D01*
X186039117Y-116355329D01*
X186058330Y-116341079D01*
X186078847Y-116328782D01*
X186100471Y-116318554D01*
X186122993Y-116310496D01*
X186146197Y-116304684D01*
X186169858Y-116301174D01*
X186193750Y-116300000D01*
X186681250Y-116300000D01*
X186705142Y-116301174D01*
X186705142Y-116301174D01*
G37*
D12*
X186437500Y-117000000D03*
D11*
G36*
X184830142Y-116301174D02*
G01*
X184853803Y-116304684D01*
X184877007Y-116310496D01*
X184899529Y-116318554D01*
X184921153Y-116328782D01*
X184941670Y-116341079D01*
X184960883Y-116355329D01*
X184978607Y-116371393D01*
X184994671Y-116389117D01*
X185008921Y-116408330D01*
X185021218Y-116428847D01*
X185031446Y-116450471D01*
X185039504Y-116472993D01*
X185045316Y-116496197D01*
X185048826Y-116519858D01*
X185050000Y-116543750D01*
X185050000Y-117456250D01*
X185048826Y-117480142D01*
X185045316Y-117503803D01*
X185039504Y-117527007D01*
X185031446Y-117549529D01*
X185021218Y-117571153D01*
X185008921Y-117591670D01*
X184994671Y-117610883D01*
X184978607Y-117628607D01*
X184960883Y-117644671D01*
X184941670Y-117658921D01*
X184921153Y-117671218D01*
X184899529Y-117681446D01*
X184877007Y-117689504D01*
X184853803Y-117695316D01*
X184830142Y-117698826D01*
X184806250Y-117700000D01*
X184318750Y-117700000D01*
X184294858Y-117698826D01*
X184271197Y-117695316D01*
X184247993Y-117689504D01*
X184225471Y-117681446D01*
X184203847Y-117671218D01*
X184183330Y-117658921D01*
X184164117Y-117644671D01*
X184146393Y-117628607D01*
X184130329Y-117610883D01*
X184116079Y-117591670D01*
X184103782Y-117571153D01*
X184093554Y-117549529D01*
X184085496Y-117527007D01*
X184079684Y-117503803D01*
X184076174Y-117480142D01*
X184075000Y-117456250D01*
X184075000Y-116543750D01*
X184076174Y-116519858D01*
X184079684Y-116496197D01*
X184085496Y-116472993D01*
X184093554Y-116450471D01*
X184103782Y-116428847D01*
X184116079Y-116408330D01*
X184130329Y-116389117D01*
X184146393Y-116371393D01*
X184164117Y-116355329D01*
X184183330Y-116341079D01*
X184203847Y-116328782D01*
X184225471Y-116318554D01*
X184247993Y-116310496D01*
X184271197Y-116304684D01*
X184294858Y-116301174D01*
X184318750Y-116300000D01*
X184806250Y-116300000D01*
X184830142Y-116301174D01*
X184830142Y-116301174D01*
G37*
D12*
X184562500Y-117000000D03*
D11*
G36*
X189230142Y-114826174D02*
G01*
X189253803Y-114829684D01*
X189277007Y-114835496D01*
X189299529Y-114843554D01*
X189321153Y-114853782D01*
X189341670Y-114866079D01*
X189360883Y-114880329D01*
X189378607Y-114896393D01*
X189394671Y-114914117D01*
X189408921Y-114933330D01*
X189421218Y-114953847D01*
X189431446Y-114975471D01*
X189439504Y-114997993D01*
X189445316Y-115021197D01*
X189448826Y-115044858D01*
X189450000Y-115068750D01*
X189450000Y-115556250D01*
X189448826Y-115580142D01*
X189445316Y-115603803D01*
X189439504Y-115627007D01*
X189431446Y-115649529D01*
X189421218Y-115671153D01*
X189408921Y-115691670D01*
X189394671Y-115710883D01*
X189378607Y-115728607D01*
X189360883Y-115744671D01*
X189341670Y-115758921D01*
X189321153Y-115771218D01*
X189299529Y-115781446D01*
X189277007Y-115789504D01*
X189253803Y-115795316D01*
X189230142Y-115798826D01*
X189206250Y-115800000D01*
X188293750Y-115800000D01*
X188269858Y-115798826D01*
X188246197Y-115795316D01*
X188222993Y-115789504D01*
X188200471Y-115781446D01*
X188178847Y-115771218D01*
X188158330Y-115758921D01*
X188139117Y-115744671D01*
X188121393Y-115728607D01*
X188105329Y-115710883D01*
X188091079Y-115691670D01*
X188078782Y-115671153D01*
X188068554Y-115649529D01*
X188060496Y-115627007D01*
X188054684Y-115603803D01*
X188051174Y-115580142D01*
X188050000Y-115556250D01*
X188050000Y-115068750D01*
X188051174Y-115044858D01*
X188054684Y-115021197D01*
X188060496Y-114997993D01*
X188068554Y-114975471D01*
X188078782Y-114953847D01*
X188091079Y-114933330D01*
X188105329Y-114914117D01*
X188121393Y-114896393D01*
X188139117Y-114880329D01*
X188158330Y-114866079D01*
X188178847Y-114853782D01*
X188200471Y-114843554D01*
X188222993Y-114835496D01*
X188246197Y-114829684D01*
X188269858Y-114826174D01*
X188293750Y-114825000D01*
X189206250Y-114825000D01*
X189230142Y-114826174D01*
X189230142Y-114826174D01*
G37*
D12*
X188750000Y-115312500D03*
D11*
G36*
X189230142Y-116701174D02*
G01*
X189253803Y-116704684D01*
X189277007Y-116710496D01*
X189299529Y-116718554D01*
X189321153Y-116728782D01*
X189341670Y-116741079D01*
X189360883Y-116755329D01*
X189378607Y-116771393D01*
X189394671Y-116789117D01*
X189408921Y-116808330D01*
X189421218Y-116828847D01*
X189431446Y-116850471D01*
X189439504Y-116872993D01*
X189445316Y-116896197D01*
X189448826Y-116919858D01*
X189450000Y-116943750D01*
X189450000Y-117431250D01*
X189448826Y-117455142D01*
X189445316Y-117478803D01*
X189439504Y-117502007D01*
X189431446Y-117524529D01*
X189421218Y-117546153D01*
X189408921Y-117566670D01*
X189394671Y-117585883D01*
X189378607Y-117603607D01*
X189360883Y-117619671D01*
X189341670Y-117633921D01*
X189321153Y-117646218D01*
X189299529Y-117656446D01*
X189277007Y-117664504D01*
X189253803Y-117670316D01*
X189230142Y-117673826D01*
X189206250Y-117675000D01*
X188293750Y-117675000D01*
X188269858Y-117673826D01*
X188246197Y-117670316D01*
X188222993Y-117664504D01*
X188200471Y-117656446D01*
X188178847Y-117646218D01*
X188158330Y-117633921D01*
X188139117Y-117619671D01*
X188121393Y-117603607D01*
X188105329Y-117585883D01*
X188091079Y-117566670D01*
X188078782Y-117546153D01*
X188068554Y-117524529D01*
X188060496Y-117502007D01*
X188054684Y-117478803D01*
X188051174Y-117455142D01*
X188050000Y-117431250D01*
X188050000Y-116943750D01*
X188051174Y-116919858D01*
X188054684Y-116896197D01*
X188060496Y-116872993D01*
X188068554Y-116850471D01*
X188078782Y-116828847D01*
X188091079Y-116808330D01*
X188105329Y-116789117D01*
X188121393Y-116771393D01*
X188139117Y-116755329D01*
X188158330Y-116741079D01*
X188178847Y-116728782D01*
X188200471Y-116718554D01*
X188222993Y-116710496D01*
X188246197Y-116704684D01*
X188269858Y-116701174D01*
X188293750Y-116700000D01*
X189206250Y-116700000D01*
X189230142Y-116701174D01*
X189230142Y-116701174D01*
G37*
D12*
X188750000Y-117187500D03*
D15*
X201000000Y-122450000D03*
X201000000Y-112550000D03*
D16*
X174775000Y-118500000D03*
X174775000Y-117500000D03*
X174775000Y-116500000D03*
D17*
X170900000Y-115200000D03*
X170900000Y-119800000D03*
D18*
X192250000Y-123750000D03*
X192250000Y-119750000D03*
D11*
G36*
X178824504Y-120951204D02*
G01*
X178848773Y-120954804D01*
X178872571Y-120960765D01*
X178895671Y-120969030D01*
X178917849Y-120979520D01*
X178938893Y-120992133D01*
X178958598Y-121006747D01*
X178976777Y-121023223D01*
X178993253Y-121041402D01*
X179007867Y-121061107D01*
X179020480Y-121082151D01*
X179030970Y-121104329D01*
X179039235Y-121127429D01*
X179045196Y-121151227D01*
X179048796Y-121175496D01*
X179050000Y-121200000D01*
X179050000Y-122300000D01*
X179048796Y-122324504D01*
X179045196Y-122348773D01*
X179039235Y-122372571D01*
X179030970Y-122395671D01*
X179020480Y-122417849D01*
X179007867Y-122438893D01*
X178993253Y-122458598D01*
X178976777Y-122476777D01*
X178958598Y-122493253D01*
X178938893Y-122507867D01*
X178917849Y-122520480D01*
X178895671Y-122530970D01*
X178872571Y-122539235D01*
X178848773Y-122545196D01*
X178824504Y-122548796D01*
X178800000Y-122550000D01*
X175800000Y-122550000D01*
X175775496Y-122548796D01*
X175751227Y-122545196D01*
X175727429Y-122539235D01*
X175704329Y-122530970D01*
X175682151Y-122520480D01*
X175661107Y-122507867D01*
X175641402Y-122493253D01*
X175623223Y-122476777D01*
X175606747Y-122458598D01*
X175592133Y-122438893D01*
X175579520Y-122417849D01*
X175569030Y-122395671D01*
X175560765Y-122372571D01*
X175554804Y-122348773D01*
X175551204Y-122324504D01*
X175550000Y-122300000D01*
X175550000Y-121200000D01*
X175551204Y-121175496D01*
X175554804Y-121151227D01*
X175560765Y-121127429D01*
X175569030Y-121104329D01*
X175579520Y-121082151D01*
X175592133Y-121061107D01*
X175606747Y-121041402D01*
X175623223Y-121023223D01*
X175641402Y-121006747D01*
X175661107Y-120992133D01*
X175682151Y-120979520D01*
X175704329Y-120969030D01*
X175727429Y-120960765D01*
X175751227Y-120954804D01*
X175775496Y-120951204D01*
X175800000Y-120950000D01*
X178800000Y-120950000D01*
X178824504Y-120951204D01*
X178824504Y-120951204D01*
G37*
D19*
X177300000Y-121750000D03*
D11*
G36*
X184224504Y-120951204D02*
G01*
X184248773Y-120954804D01*
X184272571Y-120960765D01*
X184295671Y-120969030D01*
X184317849Y-120979520D01*
X184338893Y-120992133D01*
X184358598Y-121006747D01*
X184376777Y-121023223D01*
X184393253Y-121041402D01*
X184407867Y-121061107D01*
X184420480Y-121082151D01*
X184430970Y-121104329D01*
X184439235Y-121127429D01*
X184445196Y-121151227D01*
X184448796Y-121175496D01*
X184450000Y-121200000D01*
X184450000Y-122300000D01*
X184448796Y-122324504D01*
X184445196Y-122348773D01*
X184439235Y-122372571D01*
X184430970Y-122395671D01*
X184420480Y-122417849D01*
X184407867Y-122438893D01*
X184393253Y-122458598D01*
X184376777Y-122476777D01*
X184358598Y-122493253D01*
X184338893Y-122507867D01*
X184317849Y-122520480D01*
X184295671Y-122530970D01*
X184272571Y-122539235D01*
X184248773Y-122545196D01*
X184224504Y-122548796D01*
X184200000Y-122550000D01*
X181200000Y-122550000D01*
X181175496Y-122548796D01*
X181151227Y-122545196D01*
X181127429Y-122539235D01*
X181104329Y-122530970D01*
X181082151Y-122520480D01*
X181061107Y-122507867D01*
X181041402Y-122493253D01*
X181023223Y-122476777D01*
X181006747Y-122458598D01*
X180992133Y-122438893D01*
X180979520Y-122417849D01*
X180969030Y-122395671D01*
X180960765Y-122372571D01*
X180954804Y-122348773D01*
X180951204Y-122324504D01*
X180950000Y-122300000D01*
X180950000Y-121200000D01*
X180951204Y-121175496D01*
X180954804Y-121151227D01*
X180960765Y-121127429D01*
X180969030Y-121104329D01*
X180979520Y-121082151D01*
X180992133Y-121061107D01*
X181006747Y-121041402D01*
X181023223Y-121023223D01*
X181041402Y-121006747D01*
X181061107Y-120992133D01*
X181082151Y-120979520D01*
X181104329Y-120969030D01*
X181127429Y-120960765D01*
X181151227Y-120954804D01*
X181175496Y-120951204D01*
X181200000Y-120950000D01*
X184200000Y-120950000D01*
X184224504Y-120951204D01*
X184224504Y-120951204D01*
G37*
D19*
X182700000Y-121750000D03*
D11*
G36*
X189649504Y-119726204D02*
G01*
X189673773Y-119729804D01*
X189697571Y-119735765D01*
X189720671Y-119744030D01*
X189742849Y-119754520D01*
X189763893Y-119767133D01*
X189783598Y-119781747D01*
X189801777Y-119798223D01*
X189818253Y-119816402D01*
X189832867Y-119836107D01*
X189845480Y-119857151D01*
X189855970Y-119879329D01*
X189864235Y-119902429D01*
X189870196Y-119926227D01*
X189873796Y-119950496D01*
X189875000Y-119975000D01*
X189875000Y-120725000D01*
X189873796Y-120749504D01*
X189870196Y-120773773D01*
X189864235Y-120797571D01*
X189855970Y-120820671D01*
X189845480Y-120842849D01*
X189832867Y-120863893D01*
X189818253Y-120883598D01*
X189801777Y-120901777D01*
X189783598Y-120918253D01*
X189763893Y-120932867D01*
X189742849Y-120945480D01*
X189720671Y-120955970D01*
X189697571Y-120964235D01*
X189673773Y-120970196D01*
X189649504Y-120973796D01*
X189625000Y-120975000D01*
X188375000Y-120975000D01*
X188350496Y-120973796D01*
X188326227Y-120970196D01*
X188302429Y-120964235D01*
X188279329Y-120955970D01*
X188257151Y-120945480D01*
X188236107Y-120932867D01*
X188216402Y-120918253D01*
X188198223Y-120901777D01*
X188181747Y-120883598D01*
X188167133Y-120863893D01*
X188154520Y-120842849D01*
X188144030Y-120820671D01*
X188135765Y-120797571D01*
X188129804Y-120773773D01*
X188126204Y-120749504D01*
X188125000Y-120725000D01*
X188125000Y-119975000D01*
X188126204Y-119950496D01*
X188129804Y-119926227D01*
X188135765Y-119902429D01*
X188144030Y-119879329D01*
X188154520Y-119857151D01*
X188167133Y-119836107D01*
X188181747Y-119816402D01*
X188198223Y-119798223D01*
X188216402Y-119781747D01*
X188236107Y-119767133D01*
X188257151Y-119754520D01*
X188279329Y-119744030D01*
X188302429Y-119735765D01*
X188326227Y-119729804D01*
X188350496Y-119726204D01*
X188375000Y-119725000D01*
X189625000Y-119725000D01*
X189649504Y-119726204D01*
X189649504Y-119726204D01*
G37*
D20*
X189000000Y-120350000D03*
D11*
G36*
X189649504Y-122526204D02*
G01*
X189673773Y-122529804D01*
X189697571Y-122535765D01*
X189720671Y-122544030D01*
X189742849Y-122554520D01*
X189763893Y-122567133D01*
X189783598Y-122581747D01*
X189801777Y-122598223D01*
X189818253Y-122616402D01*
X189832867Y-122636107D01*
X189845480Y-122657151D01*
X189855970Y-122679329D01*
X189864235Y-122702429D01*
X189870196Y-122726227D01*
X189873796Y-122750496D01*
X189875000Y-122775000D01*
X189875000Y-123525000D01*
X189873796Y-123549504D01*
X189870196Y-123573773D01*
X189864235Y-123597571D01*
X189855970Y-123620671D01*
X189845480Y-123642849D01*
X189832867Y-123663893D01*
X189818253Y-123683598D01*
X189801777Y-123701777D01*
X189783598Y-123718253D01*
X189763893Y-123732867D01*
X189742849Y-123745480D01*
X189720671Y-123755970D01*
X189697571Y-123764235D01*
X189673773Y-123770196D01*
X189649504Y-123773796D01*
X189625000Y-123775000D01*
X188375000Y-123775000D01*
X188350496Y-123773796D01*
X188326227Y-123770196D01*
X188302429Y-123764235D01*
X188279329Y-123755970D01*
X188257151Y-123745480D01*
X188236107Y-123732867D01*
X188216402Y-123718253D01*
X188198223Y-123701777D01*
X188181747Y-123683598D01*
X188167133Y-123663893D01*
X188154520Y-123642849D01*
X188144030Y-123620671D01*
X188135765Y-123597571D01*
X188129804Y-123573773D01*
X188126204Y-123549504D01*
X188125000Y-123525000D01*
X188125000Y-122775000D01*
X188126204Y-122750496D01*
X188129804Y-122726227D01*
X188135765Y-122702429D01*
X188144030Y-122679329D01*
X188154520Y-122657151D01*
X188167133Y-122636107D01*
X188181747Y-122616402D01*
X188198223Y-122598223D01*
X188216402Y-122581747D01*
X188236107Y-122567133D01*
X188257151Y-122554520D01*
X188279329Y-122544030D01*
X188302429Y-122535765D01*
X188326227Y-122529804D01*
X188350496Y-122526204D01*
X188375000Y-122525000D01*
X189625000Y-122525000D01*
X189649504Y-122526204D01*
X189649504Y-122526204D01*
G37*
D20*
X189000000Y-123150000D03*
D11*
G36*
X189649504Y-109476204D02*
G01*
X189673773Y-109479804D01*
X189697571Y-109485765D01*
X189720671Y-109494030D01*
X189742849Y-109504520D01*
X189763893Y-109517133D01*
X189783598Y-109531747D01*
X189801777Y-109548223D01*
X189818253Y-109566402D01*
X189832867Y-109586107D01*
X189845480Y-109607151D01*
X189855970Y-109629329D01*
X189864235Y-109652429D01*
X189870196Y-109676227D01*
X189873796Y-109700496D01*
X189875000Y-109725000D01*
X189875000Y-110475000D01*
X189873796Y-110499504D01*
X189870196Y-110523773D01*
X189864235Y-110547571D01*
X189855970Y-110570671D01*
X189845480Y-110592849D01*
X189832867Y-110613893D01*
X189818253Y-110633598D01*
X189801777Y-110651777D01*
X189783598Y-110668253D01*
X189763893Y-110682867D01*
X189742849Y-110695480D01*
X189720671Y-110705970D01*
X189697571Y-110714235D01*
X189673773Y-110720196D01*
X189649504Y-110723796D01*
X189625000Y-110725000D01*
X188375000Y-110725000D01*
X188350496Y-110723796D01*
X188326227Y-110720196D01*
X188302429Y-110714235D01*
X188279329Y-110705970D01*
X188257151Y-110695480D01*
X188236107Y-110682867D01*
X188216402Y-110668253D01*
X188198223Y-110651777D01*
X188181747Y-110633598D01*
X188167133Y-110613893D01*
X188154520Y-110592849D01*
X188144030Y-110570671D01*
X188135765Y-110547571D01*
X188129804Y-110523773D01*
X188126204Y-110499504D01*
X188125000Y-110475000D01*
X188125000Y-109725000D01*
X188126204Y-109700496D01*
X188129804Y-109676227D01*
X188135765Y-109652429D01*
X188144030Y-109629329D01*
X188154520Y-109607151D01*
X188167133Y-109586107D01*
X188181747Y-109566402D01*
X188198223Y-109548223D01*
X188216402Y-109531747D01*
X188236107Y-109517133D01*
X188257151Y-109504520D01*
X188279329Y-109494030D01*
X188302429Y-109485765D01*
X188326227Y-109479804D01*
X188350496Y-109476204D01*
X188375000Y-109475000D01*
X189625000Y-109475000D01*
X189649504Y-109476204D01*
X189649504Y-109476204D01*
G37*
D20*
X189000000Y-110100000D03*
D11*
G36*
X189649504Y-112276204D02*
G01*
X189673773Y-112279804D01*
X189697571Y-112285765D01*
X189720671Y-112294030D01*
X189742849Y-112304520D01*
X189763893Y-112317133D01*
X189783598Y-112331747D01*
X189801777Y-112348223D01*
X189818253Y-112366402D01*
X189832867Y-112386107D01*
X189845480Y-112407151D01*
X189855970Y-112429329D01*
X189864235Y-112452429D01*
X189870196Y-112476227D01*
X189873796Y-112500496D01*
X189875000Y-112525000D01*
X189875000Y-113275000D01*
X189873796Y-113299504D01*
X189870196Y-113323773D01*
X189864235Y-113347571D01*
X189855970Y-113370671D01*
X189845480Y-113392849D01*
X189832867Y-113413893D01*
X189818253Y-113433598D01*
X189801777Y-113451777D01*
X189783598Y-113468253D01*
X189763893Y-113482867D01*
X189742849Y-113495480D01*
X189720671Y-113505970D01*
X189697571Y-113514235D01*
X189673773Y-113520196D01*
X189649504Y-113523796D01*
X189625000Y-113525000D01*
X188375000Y-113525000D01*
X188350496Y-113523796D01*
X188326227Y-113520196D01*
X188302429Y-113514235D01*
X188279329Y-113505970D01*
X188257151Y-113495480D01*
X188236107Y-113482867D01*
X188216402Y-113468253D01*
X188198223Y-113451777D01*
X188181747Y-113433598D01*
X188167133Y-113413893D01*
X188154520Y-113392849D01*
X188144030Y-113370671D01*
X188135765Y-113347571D01*
X188129804Y-113323773D01*
X188126204Y-113299504D01*
X188125000Y-113275000D01*
X188125000Y-112525000D01*
X188126204Y-112500496D01*
X188129804Y-112476227D01*
X188135765Y-112452429D01*
X188144030Y-112429329D01*
X188154520Y-112407151D01*
X188167133Y-112386107D01*
X188181747Y-112366402D01*
X188198223Y-112348223D01*
X188216402Y-112331747D01*
X188236107Y-112317133D01*
X188257151Y-112304520D01*
X188279329Y-112294030D01*
X188302429Y-112285765D01*
X188326227Y-112279804D01*
X188350496Y-112276204D01*
X188375000Y-112275000D01*
X189625000Y-112275000D01*
X189649504Y-112276204D01*
X189649504Y-112276204D01*
G37*
D20*
X189000000Y-112900000D03*
D11*
G36*
X182730142Y-110326174D02*
G01*
X182753803Y-110329684D01*
X182777007Y-110335496D01*
X182799529Y-110343554D01*
X182821153Y-110353782D01*
X182841670Y-110366079D01*
X182860883Y-110380329D01*
X182878607Y-110396393D01*
X182894671Y-110414117D01*
X182908921Y-110433330D01*
X182921218Y-110453847D01*
X182931446Y-110475471D01*
X182939504Y-110497993D01*
X182945316Y-110521197D01*
X182948826Y-110544858D01*
X182950000Y-110568750D01*
X182950000Y-111056250D01*
X182948826Y-111080142D01*
X182945316Y-111103803D01*
X182939504Y-111127007D01*
X182931446Y-111149529D01*
X182921218Y-111171153D01*
X182908921Y-111191670D01*
X182894671Y-111210883D01*
X182878607Y-111228607D01*
X182860883Y-111244671D01*
X182841670Y-111258921D01*
X182821153Y-111271218D01*
X182799529Y-111281446D01*
X182777007Y-111289504D01*
X182753803Y-111295316D01*
X182730142Y-111298826D01*
X182706250Y-111300000D01*
X181793750Y-111300000D01*
X181769858Y-111298826D01*
X181746197Y-111295316D01*
X181722993Y-111289504D01*
X181700471Y-111281446D01*
X181678847Y-111271218D01*
X181658330Y-111258921D01*
X181639117Y-111244671D01*
X181621393Y-111228607D01*
X181605329Y-111210883D01*
X181591079Y-111191670D01*
X181578782Y-111171153D01*
X181568554Y-111149529D01*
X181560496Y-111127007D01*
X181554684Y-111103803D01*
X181551174Y-111080142D01*
X181550000Y-111056250D01*
X181550000Y-110568750D01*
X181551174Y-110544858D01*
X181554684Y-110521197D01*
X181560496Y-110497993D01*
X181568554Y-110475471D01*
X181578782Y-110453847D01*
X181591079Y-110433330D01*
X181605329Y-110414117D01*
X181621393Y-110396393D01*
X181639117Y-110380329D01*
X181658330Y-110366079D01*
X181678847Y-110353782D01*
X181700471Y-110343554D01*
X181722993Y-110335496D01*
X181746197Y-110329684D01*
X181769858Y-110326174D01*
X181793750Y-110325000D01*
X182706250Y-110325000D01*
X182730142Y-110326174D01*
X182730142Y-110326174D01*
G37*
D12*
X182250000Y-110812500D03*
D11*
G36*
X182730142Y-112201174D02*
G01*
X182753803Y-112204684D01*
X182777007Y-112210496D01*
X182799529Y-112218554D01*
X182821153Y-112228782D01*
X182841670Y-112241079D01*
X182860883Y-112255329D01*
X182878607Y-112271393D01*
X182894671Y-112289117D01*
X182908921Y-112308330D01*
X182921218Y-112328847D01*
X182931446Y-112350471D01*
X182939504Y-112372993D01*
X182945316Y-112396197D01*
X182948826Y-112419858D01*
X182950000Y-112443750D01*
X182950000Y-112931250D01*
X182948826Y-112955142D01*
X182945316Y-112978803D01*
X182939504Y-113002007D01*
X182931446Y-113024529D01*
X182921218Y-113046153D01*
X182908921Y-113066670D01*
X182894671Y-113085883D01*
X182878607Y-113103607D01*
X182860883Y-113119671D01*
X182841670Y-113133921D01*
X182821153Y-113146218D01*
X182799529Y-113156446D01*
X182777007Y-113164504D01*
X182753803Y-113170316D01*
X182730142Y-113173826D01*
X182706250Y-113175000D01*
X181793750Y-113175000D01*
X181769858Y-113173826D01*
X181746197Y-113170316D01*
X181722993Y-113164504D01*
X181700471Y-113156446D01*
X181678847Y-113146218D01*
X181658330Y-113133921D01*
X181639117Y-113119671D01*
X181621393Y-113103607D01*
X181605329Y-113085883D01*
X181591079Y-113066670D01*
X181578782Y-113046153D01*
X181568554Y-113024529D01*
X181560496Y-113002007D01*
X181554684Y-112978803D01*
X181551174Y-112955142D01*
X181550000Y-112931250D01*
X181550000Y-112443750D01*
X181551174Y-112419858D01*
X181554684Y-112396197D01*
X181560496Y-112372993D01*
X181568554Y-112350471D01*
X181578782Y-112328847D01*
X181591079Y-112308330D01*
X181605329Y-112289117D01*
X181621393Y-112271393D01*
X181639117Y-112255329D01*
X181658330Y-112241079D01*
X181678847Y-112228782D01*
X181700471Y-112218554D01*
X181722993Y-112210496D01*
X181746197Y-112204684D01*
X181769858Y-112201174D01*
X181793750Y-112200000D01*
X182706250Y-112200000D01*
X182730142Y-112201174D01*
X182730142Y-112201174D01*
G37*
D12*
X182250000Y-112687500D03*
D11*
G36*
X186705142Y-110301174D02*
G01*
X186728803Y-110304684D01*
X186752007Y-110310496D01*
X186774529Y-110318554D01*
X186796153Y-110328782D01*
X186816670Y-110341079D01*
X186835883Y-110355329D01*
X186853607Y-110371393D01*
X186869671Y-110389117D01*
X186883921Y-110408330D01*
X186896218Y-110428847D01*
X186906446Y-110450471D01*
X186914504Y-110472993D01*
X186920316Y-110496197D01*
X186923826Y-110519858D01*
X186925000Y-110543750D01*
X186925000Y-111456250D01*
X186923826Y-111480142D01*
X186920316Y-111503803D01*
X186914504Y-111527007D01*
X186906446Y-111549529D01*
X186896218Y-111571153D01*
X186883921Y-111591670D01*
X186869671Y-111610883D01*
X186853607Y-111628607D01*
X186835883Y-111644671D01*
X186816670Y-111658921D01*
X186796153Y-111671218D01*
X186774529Y-111681446D01*
X186752007Y-111689504D01*
X186728803Y-111695316D01*
X186705142Y-111698826D01*
X186681250Y-111700000D01*
X186193750Y-111700000D01*
X186169858Y-111698826D01*
X186146197Y-111695316D01*
X186122993Y-111689504D01*
X186100471Y-111681446D01*
X186078847Y-111671218D01*
X186058330Y-111658921D01*
X186039117Y-111644671D01*
X186021393Y-111628607D01*
X186005329Y-111610883D01*
X185991079Y-111591670D01*
X185978782Y-111571153D01*
X185968554Y-111549529D01*
X185960496Y-111527007D01*
X185954684Y-111503803D01*
X185951174Y-111480142D01*
X185950000Y-111456250D01*
X185950000Y-110543750D01*
X185951174Y-110519858D01*
X185954684Y-110496197D01*
X185960496Y-110472993D01*
X185968554Y-110450471D01*
X185978782Y-110428847D01*
X185991079Y-110408330D01*
X186005329Y-110389117D01*
X186021393Y-110371393D01*
X186039117Y-110355329D01*
X186058330Y-110341079D01*
X186078847Y-110328782D01*
X186100471Y-110318554D01*
X186122993Y-110310496D01*
X186146197Y-110304684D01*
X186169858Y-110301174D01*
X186193750Y-110300000D01*
X186681250Y-110300000D01*
X186705142Y-110301174D01*
X186705142Y-110301174D01*
G37*
D12*
X186437500Y-111000000D03*
D11*
G36*
X184830142Y-110301174D02*
G01*
X184853803Y-110304684D01*
X184877007Y-110310496D01*
X184899529Y-110318554D01*
X184921153Y-110328782D01*
X184941670Y-110341079D01*
X184960883Y-110355329D01*
X184978607Y-110371393D01*
X184994671Y-110389117D01*
X185008921Y-110408330D01*
X185021218Y-110428847D01*
X185031446Y-110450471D01*
X185039504Y-110472993D01*
X185045316Y-110496197D01*
X185048826Y-110519858D01*
X185050000Y-110543750D01*
X185050000Y-111456250D01*
X185048826Y-111480142D01*
X185045316Y-111503803D01*
X185039504Y-111527007D01*
X185031446Y-111549529D01*
X185021218Y-111571153D01*
X185008921Y-111591670D01*
X184994671Y-111610883D01*
X184978607Y-111628607D01*
X184960883Y-111644671D01*
X184941670Y-111658921D01*
X184921153Y-111671218D01*
X184899529Y-111681446D01*
X184877007Y-111689504D01*
X184853803Y-111695316D01*
X184830142Y-111698826D01*
X184806250Y-111700000D01*
X184318750Y-111700000D01*
X184294858Y-111698826D01*
X184271197Y-111695316D01*
X184247993Y-111689504D01*
X184225471Y-111681446D01*
X184203847Y-111671218D01*
X184183330Y-111658921D01*
X184164117Y-111644671D01*
X184146393Y-111628607D01*
X184130329Y-111610883D01*
X184116079Y-111591670D01*
X184103782Y-111571153D01*
X184093554Y-111549529D01*
X184085496Y-111527007D01*
X184079684Y-111503803D01*
X184076174Y-111480142D01*
X184075000Y-111456250D01*
X184075000Y-110543750D01*
X184076174Y-110519858D01*
X184079684Y-110496197D01*
X184085496Y-110472993D01*
X184093554Y-110450471D01*
X184103782Y-110428847D01*
X184116079Y-110408330D01*
X184130329Y-110389117D01*
X184146393Y-110371393D01*
X184164117Y-110355329D01*
X184183330Y-110341079D01*
X184203847Y-110328782D01*
X184225471Y-110318554D01*
X184247993Y-110310496D01*
X184271197Y-110304684D01*
X184294858Y-110301174D01*
X184318750Y-110300000D01*
X184806250Y-110300000D01*
X184830142Y-110301174D01*
X184830142Y-110301174D01*
G37*
D12*
X184562500Y-111000000D03*
M02*
