M48
; DRILL file {KiCad (5.1.4)-1} date 3/24/2020 11:26:45 PM
; FORMAT={-:-/ absolute / inch / decimal}
; #@! TF.CreationDate,2020-03-24T23:26:45+09:00
; #@! TF.GenerationSoftware,Kicad,Pcbnew,(5.1.4)-1
; #@! TF.FileFunction,Plated,1,2,PTH
FMAT,2
INCH
T1C0.0130
T2C0.0394
T3C0.0866
%
G90
G05
T1
X6.88Y-4.715
X6.985Y-4.905
X6.99Y-4.33
X6.99Y-4.385
X7.0436Y-4.6886
X7.045Y-4.49
X7.195Y-4.865
X7.27Y-4.715
X7.335Y-4.675
X7.335Y-4.925
X7.3917Y-4.6752
X7.485Y-4.39
X7.49Y-4.655
X7.64Y-4.65
X7.67Y-4.425
X7.7362Y-4.3504
T2
X8.2677Y-4.5669
X8.2677Y-4.6669
T3
X6.7717Y-4.3701
X8.2677Y-4.3701
X8.2677Y-4.8819
X6.7717Y-4.8819
T0
M30
